<?xml version="1.0" encoding="UTF-8"?><!DOCTYPE svg PUBLIC "-//W3C//DTD SVG 1.1//EN" "http://www.w3.org/Graphics/SVG/1.1/DTD/svg11.dtd"><svg xmlns="http://www.w3.org/2000/svg" xmlns:xlink="http://www.w3.org/1999/xlink"><defs>
<clipPath id="clip0_1565_12315">
<rect width="24" height="24" fill="white" transform="translate(0.5)"/>
</clipPath>

<clipPath id="clip0_47_1776">
<rect width="24" height="24" fill="white"/>
</clipPath>

<clipPath id="clip0_26_2665">
<rect width="24" height="24" fill="white"/>
</clipPath>

<clipPath id="clip0_26_2654">
<rect width="24" height="24" fill="white"/>
</clipPath>

<clipPath id="clip0_47_1770">
<rect width="24" height="24" fill="white"/>
</clipPath>

<clipPath id="clip0_45_4117">
<rect width="24" height="24" fill="white"/>
</clipPath>

<clipPath id="clip0_47_1773">
<rect width="24" height="24" fill="white"/>
</clipPath>

<clipPath id="clip0_102_16032">
<rect width="24" height="24" fill="white"/>
</clipPath>

<clipPath id="clip0_26_1765">
<rect width="24" height="24" fill="white"/>
</clipPath>

<clipPath id="clip0_26_1763">
<rect width="24" height="24" fill="white"/>
</clipPath>

<clipPath id="clip0_37_5316">
<rect width="24" height="24" fill="white"/>
</clipPath>

<clipPath id="clip0_321_11574">
<rect width="24" height="24" fill="white"/>
</clipPath>

<clipPath id="clip0_105_17013">
<rect width="24" height="24" fill="white"/>
</clipPath>

<clipPath id="clip0_426_17094">
<rect width="24" height="24" fill="white"/>
</clipPath>

<clipPath id="clip0_43_2904">
<rect width="24" height="24" fill="white"/>
</clipPath>

<clipPath id="clip0_43_2909">
<rect width="24" height="24" fill="white"/>
</clipPath>

<clipPath id="clip0_1178_56206">
<rect width="24" height="24" fill="white"/>
</clipPath>

<clipPath id="clip0_2684_12640">
<rect width="24" height="24" fill="white"/>
</clipPath>

<clipPath id="clip0_1359_41835">
<rect width="24" height="24" fill="white"/>
</clipPath>

<clipPath id="clip0_198_12566">
<rect width="24" height="24" fill="white"/>
</clipPath>

<clipPath id="clip0_712_34409">
<rect width="24" height="24" fill="white"/>
</clipPath>

<clipPath id="clip0_193_11722">
<rect width="24" height="24" fill="white"/>
</clipPath>

<clipPath id="clip0_418_16327">
<rect width="24" height="24" fill="white"/>
</clipPath>

<clipPath id="clip0_712_34396">
<rect width="24" height="24" fill="white"/>
</clipPath>

<clipPath id="clip0_204_15298">
<rect width="24" height="24" fill="white"/>
</clipPath>

<clipPath id="clip0_221_10840">
<rect width="24" height="24" fill="white"/>
</clipPath>

<clipPath id="clip0_193_11990">
<rect width="24" height="24" fill="white"/>
</clipPath>

<clipPath id="clip0_193_11733">
<rect width="24" height="24" fill="white"/>
</clipPath>

<clipPath id="clip0_664_27175">
<rect width="24" height="24" fill="white"/>
</clipPath>

<clipPath id="clip0_193_11744">
<rect width="24" height="24" fill="white"/>
</clipPath>

<clipPath id="clip0_193_11706">
<rect width="24" height="24" fill="white"/>
</clipPath>

<linearGradient id="paint0_linear_3376_42369" x1="1804.71" y1="54.0765" x2="1837.68" y2="-1178.51" gradientUnits="userSpaceOnUse">
<stop stop-color="#222357"/>
<stop offset="1" stop-color="#254AA5"/>
</linearGradient>
</defs><symbol id="arrow-left" viewBox="0 0 25 24">
<g clip-path="url(#clip0_1565_12315)">
<path fill-rule="evenodd" clip-rule="evenodd" d="M10.4736 7.16272C10.2333 6.94576 9.84364 6.94576 9.60332 7.16272L4.68024 11.6072C4.43992 11.8241 4.43992 12.1759 4.68024 12.3928L9.60332 16.8373C9.84364 17.0542 10.2333 17.0542 10.4736 16.8373C10.7139 16.6203 10.7139 16.2686 10.4736 16.0516L6.60105 12.5556H19.8846C20.2245 12.5556 20.5 12.3068 20.5 12C20.5 11.6932 20.2245 11.4444 19.8846 11.4444H6.60105L10.4736 7.94839C10.7139 7.73143 10.7139 7.37968 10.4736 7.16272Z" fill="#F16439"/>
</g>

</symbol><symbol id="caution-outline" viewBox="0 0 34 34">
<path fill-rule="evenodd" clip-rule="evenodd" d="M17 32.0571C25.3158 32.0571 32.0571 25.3158 32.0571 17C32.0571 8.68417 25.3158 1.94286 17 1.94286C8.68417 1.94286 1.94286 8.68417 1.94286 17C1.94286 25.3158 8.68417 32.0571 17 32.0571ZM17 34C26.3888 34 34 26.3888 34 17C34 7.61116 26.3888 0 17 0C7.61116 0 0 7.61116 0 17C0 26.3888 7.61116 34 17 34Z" fill="#151515"/>
<path d="M14.6792 6.79701C14.6207 5.74351 15.4592 4.85714 16.5143 4.85714C17.5694 4.85714 18.4079 5.74351 18.3494 6.79701L17.5396 21.3729C17.5094 21.9171 17.0593 22.3429 16.5143 22.3429C15.9693 22.3429 15.5192 21.9171 15.489 21.3729L14.6792 6.79701Z" fill="#151515"/>
<path d="M14.5714 26.2286C14.5714 25.1556 15.4413 24.2857 16.5143 24.2857C17.5873 24.2857 18.4571 25.1556 18.4571 26.2286C18.4571 27.3016 17.5873 28.1714 16.5143 28.1714C15.4413 28.1714 14.5714 27.3016 14.5714 26.2286Z" fill="#151515"/>
</symbol><symbol id="check-circle-solid" viewBox="0 0 138 138">
<path d="M138 69C138 107.108 107.108 138 69 138C30.8924 138 0 107.108 0 69C0 30.8924 30.8924 0 69 0C107.108 0 138 30.8924 138 69Z" fill="#00ABBB"/>
<path fill-rule="evenodd" clip-rule="evenodd" d="M109.033 44.0687C111.204 46.572 110.935 50.3615 108.431 52.5327L59.4314 95.0327C56.9384 97.195 53.1671 96.9381 50.9903 94.4576L29.4903 69.9576C27.3046 67.467 27.5519 63.676 30.0425 61.4903C32.5332 59.3047 36.3241 59.5519 38.5098 62.0426L56.0752 82.0589L100.569 43.4675C103.072 41.2963 106.861 41.5655 109.033 44.0687Z" fill="white"/>
</symbol><symbol id="diagnose-heart" viewBox="0 0 169 110">
<path d="M49.1205 107.726C48.6615 107.829 48.1514 107.88 47.7433 107.88L47.4883 104.653C48.1004 104.602 48.7635 104.5 49.4776 104.346C59.0672 102.246 57.996 83.9622 56.8228 64.6541C56.1597 53.3355 55.4456 41.6584 56.9248 32.4397C58.6591 21.4284 63.3009 15.4874 71.1051 14.207C71.1051 14.207 71.1051 14.207 71.1561 14.207L71.6662 17.3824C57.4349 19.6871 58.7611 42.4266 60.0873 64.4492C61.3625 85.1914 62.5357 104.807 50.1917 107.521C49.7837 107.624 49.4266 107.675 49.1205 107.726Z" fill="#2E5D7D"/>
<mask id="mask0_4634_58126" style="mask-type:luminance" maskUnits="userSpaceOnUse" x="47" y="14" width="25" height="94">
<path d="M49.1205 107.726C48.6615 107.829 48.1514 107.88 47.7433 107.88L47.4883 104.653C48.1004 104.602 48.7635 104.5 49.4776 104.346C59.0672 102.246 57.996 83.9622 56.8228 64.6541C56.1597 53.3355 55.4456 41.6584 56.9248 32.4397C58.6591 21.4284 63.3009 15.4874 71.1051 14.207C71.1051 14.207 71.1051 14.207 71.1561 14.207L71.6662 17.3824C57.4349 19.6871 58.7611 42.4266 60.0873 64.4492C61.3625 85.1914 62.5357 104.807 50.1917 107.521C49.7837 107.624 49.4266 107.675 49.1205 107.726Z" fill="white"/>
</mask>
<g mask="url(#mask0_4634_58126)">
<g opacity="0.3">
<path d="M50.1909 110.902C49.7318 111.004 49.2217 111.056 48.8136 111.056L48.5586 107.829C49.1707 107.778 49.8338 107.675 50.5479 107.522C53.5064 106.856 55.3937 104.551 56.5159 101.888C58.3522 97.4835 57.6381 93.5911 56.1078 89.1866C55.2407 86.6771 54.2205 84.1675 53.7614 81.5043C53.3534 79.0972 53.4554 76.6389 53.0473 74.1293C52.0782 68.2396 51.109 62.2986 50.1909 56.4089C49.8338 54.1554 49.4767 51.9019 49.3747 49.6484C49.2217 44.8342 50.3439 40.02 51.6191 35.3594C51.9251 34.1302 52.2822 32.8498 53.0983 31.8767C55.8018 28.599 59.2193 25.987 62.3818 23.1701C65.4423 20.4557 67.9417 18.0998 72.1754 17.3828C72.1754 17.3828 72.1754 17.3828 72.2264 17.3828L72.7365 20.5582C58.5052 22.8628 59.8314 45.6024 61.1576 67.625C62.4329 88.3672 63.606 107.983 51.262 110.697C50.854 110.748 50.5479 110.851 50.1909 110.902Z" fill="#2E5D7D"/>
</g>
</g>
<path d="M136.142 31.7226C127.47 12.5169 102.68 10.3146 90.03 32.3884C88.1937 35.5637 84.215 36.6392 81.0525 34.7443C59.272 21.7356 38.7156 35.8198 40.5519 56.8181C42.0822 74.3337 70.3408 98.661 98.2423 109.109C102.884 110.85 108.138 109.467 111.351 105.677C130.582 82.8354 143.385 47.753 136.142 31.7226Z" fill="#D04B5E"/>
<mask id="mask1_4634_58126" style="mask-type:luminance" maskUnits="userSpaceOnUse" x="40" y="16" width="99" height="94">
<path d="M136.142 31.7226C127.47 12.5169 102.68 10.3146 90.03 32.3884C88.1937 35.5637 84.215 36.6392 81.0525 34.7443C59.272 21.7356 38.7156 35.8198 40.5519 56.8181C42.0822 74.3337 70.3408 98.661 98.2423 109.109C102.884 110.85 108.138 109.467 111.351 105.677C130.582 82.8354 143.385 47.753 136.142 31.7226Z" fill="white"/>
</mask>
<g mask="url(#mask1_4634_58126)">
<path d="M135.937 25.2692C133.438 18.0478 127.878 12.0044 120.533 9.39243C109.668 5.50007 98.2934 10.2119 90.9992 18.56C87.9387 22.0938 85.4903 26.1398 83.603 30.4419C59.272 8.41934 32.4416 22.8108 33.4618 47.2405C33.9209 58.9176 43.1534 69.6216 50.9067 77.4575C58.0988 84.6789 66.3112 92.8733 76.5128 95.3829C107.322 102.912 133.234 72.4384 136.958 44.3725C137.519 40.1728 137.621 35.9219 137.264 31.7223C137.111 29.52 136.652 27.369 135.937 25.2692Z" fill="#D4647A"/>
</g>
<mask id="mask2_4634_58126" style="mask-type:luminance" maskUnits="userSpaceOnUse" x="40" y="16" width="99" height="94">
<path d="M136.142 31.7226C127.47 12.5169 102.68 10.3146 90.03 32.3884C88.1937 35.5637 84.215 36.6392 81.0525 34.7443C59.272 21.7356 38.7156 35.8198 40.5519 56.8181C42.0822 74.3337 70.3408 98.661 98.2423 109.109C102.884 110.85 108.138 109.467 111.351 105.677C130.582 82.8354 143.385 47.753 136.142 31.7226Z" fill="white"/>
</mask>
<g mask="url(#mask2_4634_58126)">
<path d="M119.258 111.053C118.697 111.105 118.085 111.207 117.473 111.207C101.507 112.129 96.2535 87.0335 91.1527 62.7575C86.3069 39.6082 81.3081 15.6906 67.7909 17.4832L67.3828 14.2566C83.8585 12.1056 89.1634 37.5083 94.3152 62.0405C99.11 84.9849 104.058 108.698 117.269 107.929C117.779 107.878 118.34 107.827 118.799 107.776L119.258 111.053Z" fill="#D04B5E"/>
</g>
<mask id="mask3_4634_58126" style="mask-type:luminance" maskUnits="userSpaceOnUse" x="40" y="16" width="99" height="94">
<path d="M136.142 31.7226C127.47 12.5169 102.68 10.3146 90.03 32.3884C88.1937 35.5637 84.215 36.6392 81.0525 34.7443C59.272 21.7356 38.7156 35.8198 40.5519 56.8181C42.0822 74.3337 70.3408 98.661 98.2423 109.109C102.884 110.85 108.138 109.467 111.351 105.677C130.582 82.8354 143.385 47.753 136.142 31.7226Z" fill="white"/>
</mask>
<g mask="url(#mask3_4634_58126)">
<path d="M119.361 41.66L118.341 41.9161C116.81 35.719 115.79 29.6244 114.923 23.9907C113.903 17.1791 114.77 12.0063 117.422 9.03585C119.769 6.47509 122.88 6.11658 125.125 6.27023L125.278 4.11918C121.452 3.86311 118.137 5.09227 115.841 7.60182C112.679 11.0332 111.659 16.8206 112.781 24.3492C113.648 30.0853 114.668 36.2312 116.249 42.4794L115.229 42.7355C119.82 61.0194 126.502 70.1869 135.734 70.7503L135.989 66.4482C128.95 65.9872 123.39 57.6391 119.361 41.66Z" fill="#D04B5E"/>
</g>
<path opacity="0.2" d="M103.09 24.7592C104.722 23.1203 106.507 21.5326 108.65 20.918C109.619 20.6108 110.894 20.7132 111.455 21.7375C111.863 22.5569 111.557 23.5812 111.098 24.3495C109.874 26.3981 107.68 27.32 105.793 28.6003C101.712 31.3147 98.3969 35.4632 93.6022 36.4875C92.684 36.6924 91.7149 36.7436 90.8477 36.2314C90.7967 35.8729 91.0007 35.5144 91.2558 35.3095C91.5618 35.1559 91.8679 35.1047 92.1739 35.0022C94.2143 34.4901 96.2036 32.4415 97.5808 30.7514C99.3151 28.6003 101.202 26.6542 103.09 24.7592Z" fill="#C1E3F9"/>
<path opacity="0.2" d="M43.7649 50.7254C43.3569 53.1837 43.4079 55.7445 44.53 57.998C44.9891 58.9198 45.9583 59.8929 46.9274 59.5344C47.7436 59.2271 47.9986 58.2028 48.1006 57.3322C48.8147 52.2106 50.192 46.9355 53.7625 43.248C55.1908 41.7627 56.8741 40.5848 58.0983 38.9459C58.3533 38.5874 58.5573 38.2289 58.6083 37.8191C59.2714 32.7488 50.549 39.1507 49.6309 39.919C46.4684 42.5822 44.428 46.6282 43.7649 50.7254Z" fill="#C1E3F9"/>
<path opacity="0.2" d="M64.2217 36.8431C65.4459 37.1504 67.0272 37.048 68.0474 36.8943C68.4044 36.8431 68.8125 36.7407 69.1185 36.587C69.4246 36.3822 69.6796 36.0749 69.6796 35.6652C69.6796 32.9507 65.599 33.1556 63.9667 33.7702C63.4056 33.9751 62.7425 34.2823 62.5385 34.8969C62.3344 35.5115 62.6915 36.1773 63.2526 36.4846C63.5076 36.6382 63.8647 36.7407 64.2217 36.8431Z" fill="#C1E3F9"/>
<path d="M16.1689 53.0797C17.138 57.4842 14.3326 61.8887 9.94585 62.8618C5.55914 63.8349 1.17243 61.0181 0.203269 56.6136C-0.765889 52.2091 2.03957 47.8045 6.42628 46.8314C10.813 45.8584 15.1997 48.624 16.1689 53.0797Z" fill="#C1E3F9"/>
<path d="M14.4341 53.49C15.0972 56.6141 13.1589 59.7383 9.99637 60.4041C6.88486 61.0699 3.77335 59.1237 3.11025 55.9483C2.44714 52.8242 4.38545 49.7001 7.54797 49.0343C10.6595 48.3685 13.771 50.3659 14.4341 53.49Z" fill="#A2C6DB"/>
<path d="M47.6916 107.932C37.49 108.7 34.9396 98.8157 31.9811 87.3435C30.7059 82.3756 29.2266 76.6907 26.9823 71.1595C22.6466 60.4042 18.3109 57.024 15.4544 56.1022C12.7509 55.2315 10.8636 56.3582 10.8126 56.4095L9.02734 53.695C9.12936 53.5926 12.1388 51.6464 16.3215 52.9268C21.5244 54.5145 26.1151 60.2506 29.9918 69.9303C32.2871 75.6664 33.7664 81.4025 35.0926 86.4728C38.3061 98.8157 40.2954 105.218 47.4876 104.654L47.6916 107.932Z" fill="#2E5D7D"/>
<mask id="mask4_4634_58126" style="mask-type:luminance" maskUnits="userSpaceOnUse" x="9" y="52" width="39" height="56">
<path d="M47.6916 107.932C37.49 108.7 34.9396 98.8157 31.9811 87.3435C30.7059 82.3756 29.2266 76.6907 26.9823 71.1595C22.6466 60.4042 18.3109 57.024 15.4544 56.1022C12.7509 55.2315 10.8636 56.3582 10.8126 56.4095L9.02734 53.695C9.12936 53.5926 12.1388 51.6464 16.3215 52.9268C21.5244 54.5145 26.1151 60.2506 29.9918 69.9303C32.2871 75.6664 33.7664 81.4025 35.0926 86.4728C38.3061 98.8157 40.2954 105.218 47.4876 104.654L47.6916 107.932Z" fill="white"/>
</mask>
<g mask="url(#mask4_4634_58126)">
<g opacity="0.3">
<path d="M48.4044 108.649C47.5882 108.444 46.7721 108.239 45.9049 108.035C44.8848 107.778 43.8646 107.522 42.9465 107.01C41.8243 106.396 40.9571 105.371 40.192 104.347C36.2644 99.0207 34.7851 92.2603 33.1019 86.012C31.7757 81.0441 30.2964 75.4104 28.052 69.8792C26.4708 65.9356 24.5325 61.9408 21.778 58.7142C20.9619 57.7411 20.0437 56.8705 19.0236 56.1023C17.7484 55.2316 16.0141 55.078 15.0449 53.8488C14.6879 53.3879 14.4838 52.8245 14.0758 52.3635C13.3617 51.4929 12.0354 51.1344 10.9643 51.5441C9.9441 51.9538 9.28099 52.9269 8.77091 53.9512C8.31183 54.8731 8.00578 55.9998 7.34267 56.7681C6.78158 57.4339 5.86343 57.8948 5.55738 58.8167C5.14932 60.0971 5.30234 61.4799 5.50637 62.8115C5.86343 65.2698 6.2715 67.7281 6.62856 70.1865C7.13864 73.5155 7.69973 76.8957 8.82191 80.071C10.1481 83.8609 12.2395 87.2924 14.4838 90.6214C20.4008 99.4304 27.491 107.83 36.9275 112.644C40.9571 114.744 46.007 116.075 49.9346 113.822C50.8017 113.31 51.6179 112.644 51.8729 111.671C52.383 109.93 50.8017 109.264 49.4245 108.905C49.1695 108.854 48.7614 108.752 48.4044 108.649Z" fill="#2E5D7D"/>
</g>
</g>
<path d="M125.788 109.467H125.737L125.227 106.292H125.278C133.031 105.011 140.784 99.3776 139.713 67.3681L142.926 67.2656C143.845 94.717 138.744 107.316 125.788 109.467Z" fill="#2E5D7D"/>
<mask id="mask5_4634_58126" style="mask-type:luminance" maskUnits="userSpaceOnUse" x="125" y="67" width="19" height="43">
<path d="M125.788 109.467H125.737L125.227 106.292H125.278C133.031 105.011 140.784 99.3776 139.713 67.3681L142.926 67.2656C143.845 94.717 138.744 107.316 125.788 109.467Z" fill="white"/>
</mask>
<g mask="url(#mask5_4634_58126)">
<g opacity="0.3">
<path d="M122.318 106.498H122.267L122.062 103.271H122.114C129.969 102.708 138.181 97.74 139.864 65.7305L143.078 65.8841C141.599 93.3867 135.427 105.525 122.318 106.498Z" fill="#2E5D7D"/>
</g>
</g>
<path d="M125.685 109.466C125.123 109.568 124.511 109.619 123.899 109.67C107.934 111.053 102.017 86.1114 96.2018 61.989C90.6929 38.9933 85.031 15.2294 71.5648 17.4317L71.0547 14.2563C87.4794 11.5931 93.4983 36.8423 99.3643 61.2719C104.822 84.0627 110.433 107.622 123.644 106.495C124.154 106.444 124.715 106.393 125.174 106.29L125.685 109.466Z" fill="#2E5D7D"/>
<mask id="mask6_4634_58126" style="mask-type:luminance" maskUnits="userSpaceOnUse" x="71" y="14" width="55" height="96">
<path d="M125.685 109.466C125.123 109.568 124.511 109.619 123.899 109.67C107.934 111.053 102.017 86.1114 96.2018 61.989C90.6929 38.9933 85.031 15.2294 71.5648 17.4317L71.0547 14.2563C87.4794 11.5931 93.4983 36.8423 99.3643 61.2719C104.822 84.0627 110.433 107.622 123.644 106.495C124.154 106.444 124.715 106.393 125.174 106.29L125.685 109.466Z" fill="white"/>
</mask>
<g mask="url(#mask6_4634_58126)">
<g opacity="0.3">
<path d="M125.329 112.794C124.768 112.896 124.156 112.947 123.544 112.999C107.578 114.381 101.661 89.4395 95.8463 65.3171C90.3374 42.3214 84.6755 18.5575 71.2093 20.7598L70.6992 17.5844C87.1239 14.9212 93.1429 40.1704 99.0088 64.6001C104.467 87.3909 110.078 110.95 123.289 109.823C123.799 109.772 124.36 109.721 124.819 109.618L125.329 112.794Z" fill="#2E5D7D"/>
</g>
</g>
<path d="M120.33 42.2231C118.442 36.026 117.065 29.9314 115.892 24.2977C114.362 16.8715 115.076 11.033 118.034 7.44792C120.177 4.83594 123.441 3.45312 127.267 3.45312V5.60417C125.022 5.60417 121.911 6.11632 119.718 8.77951C117.167 11.8524 116.606 17.0764 117.983 23.8368C119.156 29.4193 120.483 35.4627 122.37 41.5573L120.33 42.2231Z" fill="#C1E3F9"/>
<path d="M159.605 41.6085C154.453 57.2804 148.332 65.2188 141.293 65.1163C134.254 65.0651 128.235 57.0243 123.389 41.25L119.309 42.5304C124.868 60.5582 132.01 69.316 141.242 69.4184C142.058 69.4184 142.823 69.3672 143.64 69.2135C151.75 67.8819 158.33 59.2266 163.686 42.8889L159.605 41.6085Z" fill="#2E5D7D"/>
<mask id="mask7_4634_58126" style="mask-type:luminance" maskUnits="userSpaceOnUse" x="119" y="41" width="45" height="29">
<path d="M159.605 41.6085C154.453 57.2804 148.332 65.2188 141.293 65.1163C134.254 65.0651 128.235 57.0243 123.389 41.25L119.309 42.5304C124.868 60.5582 132.01 69.316 141.242 69.4184C142.058 69.4184 142.823 69.3672 143.64 69.2135C151.75 67.8819 158.33 59.2266 163.686 42.8889L159.605 41.6085Z" fill="white"/>
</mask>
<g mask="url(#mask7_4634_58126)">
<path opacity="0.3" d="M161.9 41.0437C161.951 40.9413 162.002 40.8389 162.053 40.7877C162.359 40.1731 162.767 39.6097 163.277 39.2C165.011 37.8684 166.848 39.5073 167.919 40.8901C170.112 43.7069 172.051 47.0359 172 50.6722C171.949 53.3866 170.775 55.9474 169.449 58.3033C165.879 64.5515 160.727 69.9804 154.3 73.1557C147.873 76.3311 140.119 77.0481 133.488 74.4361C128.235 72.3363 123.95 68.3415 120.073 64.2443C118.084 62.0932 116.095 59.891 114.768 57.279C113.748 55.2816 113.085 53.0793 112.677 50.8771C112.269 48.6236 112.167 46.2677 112.83 44.1166C113.493 41.9656 115.074 39.917 117.268 39.2512C120.991 46.0116 122.267 53.6427 127.163 59.891C130.326 63.937 134.662 67.0611 139.915 67.0611C140.732 67.0611 141.497 67.0099 142.313 66.8562C147.618 65.9856 151.596 62.042 154.504 57.7399C156.289 55.0767 157.666 52.2087 158.89 49.2382C159.911 46.5238 160.574 43.6045 161.9 41.0437Z" fill="#2E5D7D"/>
</g>
<path d="M162.665 42.5799L160.624 41.9141C162.614 35.8707 164.042 29.8273 165.317 24.2448C166.847 17.5356 166.337 12.3116 163.889 9.13629C161.746 6.42188 158.635 5.80729 156.391 5.80729V3.65625C160.216 3.70747 163.43 5.14149 165.521 7.80469C168.429 11.4922 169.041 17.3307 167.357 24.7057C166.184 30.3906 164.705 36.434 162.665 42.5799Z" fill="#C1E3F9"/>
<path d="M126.575 2.3555L123.352 2.87109L124.058 7.3217L127.281 6.80611L126.575 2.3555Z" fill="#2E5D7D"/>
<path d="M136.191 3.14321C136.191 3.04078 136.14 2.93835 136.089 2.83592C135.222 0.88974 131.141 0.377588 129.968 0.275157C128.744 0.172727 127.673 0.633664 126.602 2.4262L126.806 3.7578L127.112 5.55033L127.316 6.88193C128.846 8.21352 130.019 8.36717 131.141 7.85502C132.212 7.39408 135.987 5.60155 136.191 3.50172C136.191 3.34807 136.191 3.24564 136.191 3.14321Z" fill="#A2C6DB"/>
<mask id="mask8_4634_58126" style="mask-type:luminance" maskUnits="userSpaceOnUse" x="126" y="0" width="11" height="9">
<path d="M136.191 3.14321C136.191 3.04078 136.14 2.93835 136.089 2.83592C135.222 0.88974 131.141 0.377588 129.968 0.275157C128.744 0.172727 127.673 0.633664 126.602 2.4262L126.806 3.7578L127.112 5.55033L127.316 6.88193C128.846 8.21352 130.019 8.36717 131.141 7.85502C132.212 7.39408 135.987 5.60155 136.191 3.50172C136.191 3.34807 136.191 3.24564 136.191 3.14321Z" fill="white"/>
</mask>
<g mask="url(#mask8_4634_58126)">
<path d="M143.945 0.531194C144.353 3.09196 141.089 5.75515 136.702 6.47217C132.315 7.18918 128.388 5.65272 127.98 3.09196C127.572 0.531194 130.836 -2.132 135.223 -2.84901C139.661 -3.51481 143.537 -2.02957 143.945 0.531194Z" fill="#C1E3F9"/>
</g>
<path d="M156.594 6.7998L159.824 7.27344L160.473 2.81382L157.243 2.34018L156.594 6.7998Z" fill="#2E5D7D"/>
<path d="M147.668 3.19549C147.668 3.09306 147.719 2.99063 147.77 2.8882C148.586 0.942018 152.718 0.37865 153.891 0.225004C155.115 0.0713578 156.186 0.58351 157.258 2.32483L157.053 3.65643L156.798 5.50018L156.594 6.83178C155.064 8.21459 153.891 8.36823 152.769 7.85608C151.698 7.39514 147.923 5.65382 147.668 3.554C147.668 3.45157 147.668 3.34914 147.668 3.19549Z" fill="#A2C6DB"/>
<mask id="mask9_4634_58126" style="mask-type:luminance" maskUnits="userSpaceOnUse" x="147" y="0" width="11" height="9">
<path d="M147.668 3.19549C147.668 3.09306 147.719 2.99063 147.77 2.8882C148.586 0.942018 152.718 0.37865 153.891 0.225004C155.115 0.0713578 156.186 0.58351 157.258 2.32483L157.053 3.65643L156.798 5.50018L156.594 6.83178C155.064 8.21459 153.891 8.36823 152.769 7.85608C151.698 7.39514 147.923 5.65382 147.668 3.554C147.668 3.45157 147.668 3.34914 147.668 3.19549Z" fill="white"/>
</mask>
<g mask="url(#mask9_4634_58126)">
<path d="M155.904 3.06607C156.279 0.491137 152.989 -2.12309 148.557 -2.77296C144.125 -3.42283 140.228 -1.86226 139.854 0.712678C139.479 3.28761 142.769 5.90183 147.201 6.5517C151.633 7.20157 155.53 5.64101 155.904 3.06607Z" fill="#C1E3F9"/>
</g>
<path d="M13.2633 53.6936C13.8754 56.5105 12.0901 59.3273 9.28467 59.9419C6.47921 60.5565 3.67375 58.764 3.06165 55.9471C2.44955 53.1303 4.23484 50.3134 7.0403 49.6989C9.89676 49.0843 12.6512 50.8768 13.2633 53.6936Z" fill="#2E5D7D"/>
<path opacity="0.2" d="M10.1483 57.7404C7.34285 58.355 4.53739 56.5625 3.92529 53.7457C3.77227 53.1311 3.77227 52.5165 3.87428 51.9531C3.10916 53.0799 2.80311 54.5139 3.16017 55.9479C3.77227 58.7648 6.57772 60.5573 9.38318 59.9427C11.5765 59.4306 13.1578 57.638 13.4638 55.487C12.6477 56.6137 11.5255 57.4332 10.1483 57.7404Z" fill="#C1E3F9"/>
</symbol><symbol id="icon-add" viewBox="0 0 17 16">
<path d="M8.5 0C8.00908 0 7.61111 0.39797 7.61111 0.888889V7.11111L1.38889 7.11111C0.897969 7.11111 0.5 7.50908 0.5 8C0.5 8.49092 0.897969 8.88889 1.38889 8.88889H7.61111V15.1111C7.61111 15.602 8.00908 16 8.5 16C8.99092 16 9.38889 15.602 9.38889 15.1111V8.88889H15.6111C16.102 8.88889 16.5 8.49092 16.5 8C16.5 7.50908 16.102 7.11111 15.6111 7.11111L9.38889 7.11111V0.888889C9.38889 0.397969 8.99092 0 8.5 0Z" fill="#008C99"/>
</symbol><symbol id="icon-apple-logo" viewBox="0 0 15 17">
<path d="M9.86035 2.96387C10.3667 2.34961 10.7236 1.51123 10.7236 0.664551C10.7236 0.54834 10.7153 0.432129 10.6987 0.34082C9.86865 0.374023 8.87256 0.888672 8.2832 1.58594C7.81006 2.11719 7.37842 2.96387 7.37842 3.81055C7.37842 3.94336 7.40332 4.06787 7.41162 4.10938C7.46143 4.11768 7.54443 4.13428 7.63574 4.13428C8.37451 4.13428 9.3042 3.63623 9.86035 2.96387ZM10.4414 4.30859C9.20459 4.30859 8.19189 5.06396 7.54443 5.06396C6.85547 5.06396 5.95898 4.3584 4.87988 4.3584C2.82959 4.3584 0.754395 6.05176 0.754395 9.23926C0.754395 11.2314 1.51807 13.3315 2.47266 14.6846C3.28613 15.8301 4 16.7681 5.0293 16.7681C6.04199 16.7681 6.49023 16.0957 7.75195 16.0957C9.03027 16.0957 9.3208 16.7515 10.4414 16.7515C11.5537 16.7515 12.2925 15.7305 12.998 14.7261C13.7783 13.5723 14.1104 12.4517 14.1187 12.3936C14.0522 12.377 11.9272 11.5054 11.9272 9.07324C11.9272 6.96484 13.5957 6.01855 13.6953 5.94385C12.5913 4.3584 10.9062 4.30859 10.4414 4.30859Z" fill="white"/>
</symbol><symbol id="icon-arrow-down" viewBox="0 0 24 24">
<g clip-path="url(#clip0_47_1776)">
<path fill-rule="evenodd" clip-rule="evenodd" d="M16.8373 14.0264C17.0542 14.2667 17.0542 14.6564 16.8373 14.8967L12.3928 19.8198C12.2887 19.9352 12.1473 20 12 20C11.8527 20 11.7114 19.9352 11.6072 19.8198L7.16272 14.8967C6.94576 14.6564 6.94576 14.2667 7.16272 14.0264C7.37968 13.7861 7.73144 13.7861 7.94839 14.0264L11.4444 17.8989L11.4444 4.61538C11.4444 4.27552 11.6932 4 12 4C12.3068 4 12.5556 4.27552 12.5556 4.61538L12.5556 17.8989L16.0516 14.0264C16.2686 13.7861 16.6203 13.7861 16.8373 14.0264Z" fill="#151515"/>
</g>

</symbol><symbol id="icon-arrow-head-down" viewBox="0 0 24 24">
<g clip-path="url(#clip0_26_2665)">
<path fill-rule="evenodd" clip-rule="evenodd" d="M4.18024 8.16737C4.42056 7.94421 4.8102 7.94421 5.05053 8.16737L12 14.6205L18.9495 8.16737C19.1898 7.94421 19.5794 7.94421 19.8198 8.16737C20.0601 8.39052 20.0601 8.75233 19.8198 8.97549L12.4351 15.8326C12.1948 16.0558 11.8052 16.0558 11.5649 15.8326L4.18024 8.97549C3.93992 8.75233 3.93992 8.39052 4.18024 8.16737Z" fill="#151515"/>
</g>

</symbol><symbol id="icon-arrow-head-up" viewBox="0 0 24 24">
<g clip-path="url(#clip0_26_2654)">
<path fill-rule="evenodd" clip-rule="evenodd" d="M4.18024 15.8326C4.42056 16.0558 4.8102 16.0558 5.05053 15.8326L12 9.37955L18.9495 15.8326C19.1898 16.0558 19.5794 16.0558 19.8198 15.8326C20.0601 15.6095 20.0601 15.2477 19.8198 15.0245L12.4351 8.16737C12.1948 7.94421 11.8052 7.94421 11.5649 8.16737L4.18024 15.0245C3.93992 15.2477 3.93992 15.6095 4.18024 15.8326Z" fill="#151515"/>
</g>

</symbol><symbol id="icon-arrow-left" viewBox="0 0 24 24">
<g clip-path="url(#clip0_47_1770)">
<path fill-rule="evenodd" clip-rule="evenodd" d="M9.9736 7.16272C9.73328 6.94576 9.34364 6.94576 9.10332 7.16272L4.18024 11.6072C3.93992 11.8241 3.93992 12.1759 4.18024 12.3928L9.10332 16.8373C9.34364 17.0542 9.73328 17.0542 9.9736 16.8373C10.2139 16.6203 10.2139 16.2686 9.9736 16.0516L6.10105 12.5556H19.3846C19.7245 12.5556 20 12.3068 20 12C20 11.6932 19.7245 11.4444 19.3846 11.4444H6.10105L9.9736 7.94839C10.2139 7.73143 10.2139 7.37968 9.9736 7.16272Z" fill="#151515"/>
</g>

</symbol><symbol id="icon-arrow-right" viewBox="0 0 24 24">
<g clip-path="url(#clip0_45_4117)">
<path fill-rule="evenodd" clip-rule="evenodd" d="M14.0264 7.16272C14.2667 6.94576 14.6564 6.94576 14.8967 7.16272L19.8198 11.6072C20.0601 11.8241 20.0601 12.1759 19.8198 12.3928L14.8967 16.8373C14.6564 17.0542 14.2667 17.0542 14.0264 16.8373C13.7861 16.6203 13.7861 16.2686 14.0264 16.0516L17.8989 12.5556H4.61538C4.27552 12.5556 4 12.3068 4 12C4 11.6932 4.27552 11.4444 4.61538 11.4444H17.8989L14.0264 7.94839C13.7861 7.73143 13.7861 7.37968 14.0264 7.16272Z" fill="#151515"/>
</g>

</symbol><symbol id="icon-arrow-up" viewBox="0 0 24 24">
<g clip-path="url(#clip0_47_1773)">
<path fill-rule="evenodd" clip-rule="evenodd" d="M16.8373 9.9736C17.0542 9.73328 17.0542 9.34364 16.8373 9.10332L12.3928 4.18024C12.2887 4.06483 12.1473 4 12 4C11.8527 4 11.7114 4.06483 11.6072 4.18024L7.16272 9.10332C6.94576 9.34364 6.94576 9.73328 7.16272 9.9736C7.37968 10.2139 7.73144 10.2139 7.94839 9.9736L11.4444 6.10105L11.4444 19.3846C11.4444 19.7245 11.6932 20 12 20C12.3068 20 12.5556 19.7245 12.5556 19.3846L12.5556 6.10105L16.0516 9.9736C16.2686 10.2139 16.6203 10.2139 16.8373 9.9736Z" fill="#151515"/>
</g>

</symbol><symbol id="icon-burger-menu" viewBox="0 0 24 24">
<g clip-path="url(#clip0_102_16032)">
<path d="M4 6.5C4 6.22386 4.22386 6 4.5 6H19.5C19.7761 6 20 6.22386 20 6.5C20 6.77614 19.7761 7 19.5 7H4.5C4.22386 7 4 6.77614 4 6.5Z" fill="#151515"/>
<path d="M4 11.5C4 11.2239 4.22386 11 4.5 11H19.5C19.7761 11 20 11.2239 20 11.5C20 11.7761 19.7761 12 19.5 12H4.5C4.22386 12 4 11.7761 4 11.5Z" fill="#151515"/>
<path d="M4 16.5C4 16.2239 4.22386 16 4.5 16H19.5C19.7761 16 20 16.2239 20 16.5C20 16.7761 19.7761 17 19.5 17H4.5C4.22386 17 4 16.7761 4 16.5Z" fill="#151515"/>
</g>

</symbol><symbol id="icon-cal-open" viewBox="0 0 24 24">
<g clip-path="url(#clip0_26_1765)">
<path fill-rule="evenodd" clip-rule="evenodd" d="M7 3.5C7 3.22386 6.77614 3 6.5 3C6.22386 3 6 3.22386 6 3.5V5H5C3.89543 5 3 5.89543 3 7V19C3 20.1046 3.89543 21 5 21H19C20.1046 21 21 20.1046 21 19V7C21 5.89543 20.1046 5 19 5H18V3.5C18 3.22386 17.7761 3 17.5 3C17.2239 3 17 3.22386 17 3.5V5H12.5V3.5C12.5 3.22386 12.2761 3 12 3C11.7239 3 11.5 3.22386 11.5 3.5V5H7V3.5ZM6 6V6.5C6 6.77614 6.22386 7 6.5 7C6.77614 7 7 6.77614 7 6.5V6H11.5V6.5C11.5 6.77614 11.7239 7 12 7C12.2761 7 12.5 6.77614 12.5 6.5V6H17V6.5C17 6.77614 17.2239 7 17.5 7C17.7761 7 18 6.77614 18 6.5V6H19C19.5523 6 20 6.44772 20 7V10.5H4V7C4 6.44772 4.44772 6 5 6H6ZM4 19V11.5H20V19C20 19.5523 19.5523 20 19 20H5C4.44772 20 4 19.5523 4 19Z" fill="#151515"/>
</g>

</symbol><symbol id="icon-cal-single" viewBox="0 0 24 24">
<g clip-path="url(#clip0_26_1763)">
<path d="M16.5 16C16.2239 16 16 16.2239 16 16.5V18.5C16 18.7761 16.2239 19 16.5 19H18.5C18.7761 19 19 18.7761 19 18.5V16.5C19 16.2239 18.7761 16 18.5 16H16.5Z" fill="#151515"/>
<path fill-rule="evenodd" clip-rule="evenodd" d="M6.5 3C6.77614 3 7 3.22386 7 3.5V5H11.5V3.5C11.5 3.22386 11.7239 3 12 3C12.2761 3 12.5 3.22386 12.5 3.5V5H17V3.5C17 3.22386 17.2239 3 17.5 3C17.7761 3 18 3.22386 18 3.5V5H19C20.1046 5 21 5.89543 21 7V19C21 20.1046 20.1046 21 19 21H5C3.89543 21 3 20.1046 3 19V7C3 5.89543 3.89543 5 5 5H6V3.5C6 3.22386 6.22386 3 6.5 3ZM6 6.5V6H5C4.44772 6 4 6.44772 4 7V10.5H20V7C20 6.44772 19.5523 6 19 6H18V6.5C18 6.77614 17.7761 7 17.5 7C17.2239 7 17 6.77614 17 6.5V6H12.5V6.5C12.5 6.77614 12.2761 7 12 7C11.7239 7 11.5 6.77614 11.5 6.5V6H7V6.5C7 6.77614 6.77614 7 6.5 7C6.22386 7 6 6.77614 6 6.5ZM4 11.5V19C4 19.5523 4.44772 20 5 20H19C19.5523 20 20 19.5523 20 19V11.5H4Z" fill="#151515"/>
</g>

</symbol><symbol id="icon-carrot-right" viewBox="0 0 8 16">
<path fill-rule="evenodd" clip-rule="evenodd" d="M0.167368 15.8198C-0.0557886 15.5794 -0.0557886 15.1898 0.167368 14.9495L6.62045 8L0.167368 1.05053C-0.0557892 0.810205 -0.0557892 0.420565 0.167368 0.180242C0.390524 -0.0600806 0.752333 -0.0600806 0.97549 0.180242L7.83263 7.56486C8.05579 7.80518 8.05579 8.19482 7.83263 8.43514L0.97549 15.8198C0.752333 16.0601 0.390525 16.0601 0.167368 15.8198Z" fill="#F16439"/>
</symbol><symbol id="icon-check-circle" viewBox="0 0 24 24">
<g clip-path="url(#clip0_37_5316)">
<path d="M16.3536 10.3536C16.5488 10.1583 16.5488 9.84171 16.3536 9.64645C16.1583 9.45118 15.8417 9.45118 15.6464 9.64645L11 14.2929L8.35355 11.6464C8.15829 11.4512 7.84171 11.4512 7.64645 11.6464C7.45118 11.8417 7.45118 12.1583 7.64645 12.3536L10.6464 15.3536C10.8417 15.5488 11.1583 15.5488 11.3536 15.3536L16.3536 10.3536Z" fill="#151515"/>
<path fill-rule="evenodd" clip-rule="evenodd" d="M21 12C21 16.9706 16.9706 21 12 21C7.02944 21 3 16.9706 3 12C3 7.02944 7.02944 3 12 3C16.9706 3 21 7.02944 21 12ZM20 12C20 16.4183 16.4183 20 12 20C7.58172 20 4 16.4183 4 12C4 7.58172 7.58172 4 12 4C16.4183 4 20 7.58172 20 12Z" fill="#151515"/>
</g>

</symbol><symbol id="icon-clock" viewBox="0 0 24 24">
<g clip-path="url(#clip0_321_11574)">
<path fill-rule="evenodd" clip-rule="evenodd" d="M12 18.8571C15.7871 18.8571 18.8571 15.7871 18.8571 12C18.8571 8.2129 15.7871 5.14286 12 5.14286C8.2129 5.14286 5.14286 8.2129 5.14286 12C5.14286 15.7871 8.2129 18.8571 12 18.8571ZM12 20C16.4183 20 20 16.4183 20 12C20 7.58172 16.4183 4 12 4C7.58172 4 4 7.58172 4 12C4 16.4183 7.58172 20 12 20Z" fill="#151515"/>
<path fill-rule="evenodd" clip-rule="evenodd" d="M12 6.28571C12.3156 6.28571 12.5714 6.54155 12.5714 6.85714V11.7633L15.2612 14.4531C15.4844 14.6762 15.4844 15.038 15.2612 15.2612C15.038 15.4844 14.6762 15.4844 14.4531 15.2612L11.5959 12.4041C11.4888 12.2969 11.4286 12.1516 11.4286 12V6.85714C11.4286 6.54155 11.6844 6.28571 12 6.28571Z" fill="#151515"/>
</g>

</symbol><symbol id="icon-close" viewBox="0 0 24 24">
<g clip-path="url(#clip0_105_17013)">
<path fill-rule="evenodd" clip-rule="evenodd" d="M5.13668 5.13668C5.31893 4.95444 5.61441 4.95444 5.79665 5.13668L18.8633 18.2034C19.0456 18.3856 19.0456 18.6811 18.8633 18.8633C18.6811 19.0456 18.3856 19.0456 18.2034 18.8633L5.13668 5.79665C4.95444 5.61441 4.95444 5.31893 5.13668 5.13668Z" fill="#151515"/>
<path fill-rule="evenodd" clip-rule="evenodd" d="M18.8633 5.13668C18.6811 4.95444 18.3856 4.95444 18.2034 5.13668L5.13668 18.2034C4.95444 18.3856 4.95444 18.6811 5.13668 18.8633C5.31893 19.0456 5.61441 19.0456 5.79665 18.8633L18.8633 5.79665C19.0456 5.61441 19.0456 5.31893 18.8633 5.13668Z" fill="#151515"/>
</g>

</symbol><symbol id="icon-cycle" viewBox="0 0 24 24">
<path d="M11.9939 5.78899C8.41446 5.78899 5.51278 8.79157 5.51278 12.4954C5.51278 12.7133 5.34209 12.8899 5.13154 12.8899C4.92099 12.8899 4.7503 12.7133 4.7503 12.4954C4.7503 8.35582 7.99335 5 11.9939 5C15.2483 5 18.0007 7.22053 18.9148 10.277L19.257 9.21471C19.3236 9.00801 19.5395 8.89631 19.7392 8.96521C19.939 9.0341 20.0469 9.25752 19.9803 9.46421L19.2179 11.8312C19.1761 11.9609 19.0724 12.059 18.9438 12.0904C18.8152 12.1218 18.68 12.0821 18.5866 11.9854L17.0616 10.4074C16.9128 10.2533 16.9128 10.0036 17.0616 9.8495C17.2105 9.69544 17.4519 9.69544 17.6008 9.8495L18.1619 10.4301C17.3203 7.73675 14.8765 5.78899 11.9939 5.78899Z" fill="#151515"/>
<path fill-rule="evenodd" clip-rule="evenodd" d="M11.9939 17.2294C13.6783 17.2294 15.0438 15.6879 15.0438 13.7865C15.0438 12.4186 13.4653 9.90053 12.5794 8.59519C12.2909 8.16996 11.6968 8.16996 11.4083 8.59519C10.5225 9.90052 8.94394 12.4186 8.94394 13.7865C8.94394 15.6879 10.3094 17.2294 11.9939 17.2294ZM11.9939 16.4404C13.1961 16.4404 14.2813 15.3182 14.2813 13.7865C14.2813 13.5825 14.2182 13.2716 14.0689 12.8576C13.9238 12.4552 13.7164 12.0066 13.4736 11.5437C13.0024 10.6451 12.4256 9.74434 11.9939 9.10533C11.5621 9.74434 10.9853 10.6451 10.5141 11.5437C10.2714 12.0066 10.0639 12.4552 9.9188 12.8576C9.76954 13.2716 9.70642 13.5825 9.70642 13.7865C9.70642 15.3182 10.7916 16.4404 11.9939 16.4404Z" fill="#151515"/>
<path d="M18.5612 12.6797C18.469 16.3777 15.4593 19.3056 11.8291 19.2087C8.91589 19.1309 6.49735 17.1281 5.70454 14.4288L6.45115 15.0399C6.61627 15.1751 6.85604 15.1462 6.98667 14.9753C7.1173 14.8044 7.08934 14.5563 6.92421 14.4212L5.42925 13.1974C5.33623 13.1212 5.21427 13.0942 5.09928 13.1243C4.98429 13.1544 4.88939 13.2381 4.84251 13.3508L4.03113 15.3023C3.94792 15.5025 4.03726 15.7345 4.23067 15.8206C4.42408 15.9067 4.64833 15.8143 4.73154 15.6141L5.04074 14.8705C5.98969 17.7828 8.64049 19.9128 11.8094 19.9974C15.8516 20.1053 19.2201 16.8429 19.3234 12.7C19.3288 12.4822 19.1626 12.3011 18.9521 12.2955C18.7416 12.2899 18.5666 12.4619 18.5612 12.6797Z" fill="#151515"/>
</symbol><symbol id="icon-date-picker" viewBox="0 0 19 18">
<path d="M14 13C13.7239 13 13.5 13.2239 13.5 13.5V15.5C13.5 15.7761 13.7239 16 14 16H16C16.2761 16 16.5 15.7761 16.5 15.5V13.5C16.5 13.2239 16.2761 13 16 13H14Z" fill="#151515"/>
<path fill-rule="evenodd" clip-rule="evenodd" d="M4 0C4.27614 0 4.5 0.223858 4.5 0.5V2H9V0.5C9 0.223858 9.22386 0 9.5 0C9.77614 0 10 0.223858 10 0.5V2H14.5V0.5C14.5 0.223858 14.7239 0 15 0C15.2761 0 15.5 0.223858 15.5 0.5V2H16.5C17.6046 2 18.5 2.89543 18.5 4V16C18.5 17.1046 17.6046 18 16.5 18H2.5C1.39543 18 0.5 17.1046 0.5 16V4C0.5 2.89543 1.39543 2 2.5 2H3.5V0.5C3.5 0.223858 3.72386 0 4 0ZM3.5 3.5V3H2.5C1.94772 3 1.5 3.44772 1.5 4V7.5H17.5V4C17.5 3.44772 17.0523 3 16.5 3H15.5V3.5C15.5 3.77614 15.2761 4 15 4C14.7239 4 14.5 3.77614 14.5 3.5V3H10V3.5C10 3.77614 9.77614 4 9.5 4C9.22386 4 9 3.77614 9 3.5V3H4.5V3.5C4.5 3.77614 4.27614 4 4 4C3.72386 4 3.5 3.77614 3.5 3.5ZM1.5 8.5V16C1.5 16.5523 1.94772 17 2.5 17H16.5C17.0523 17 17.5 16.5523 17.5 16V8.5H1.5Z" fill="#151515"/>
</symbol><symbol id="icon-datetime" viewBox="0 0 18 18">
<path d="M13.5 13C13.2239 13 13 13.2239 13 13.5V15.5C13 15.7761 13.2239 16 13.5 16H15.5C15.7761 16 16 15.7761 16 15.5V13.5C16 13.2239 15.7761 13 15.5 13H13.5Z" fill="#151515"/>
<path fill-rule="evenodd" clip-rule="evenodd" d="M3.5 0C3.77614 0 4 0.223858 4 0.5V2H8.5V0.5C8.5 0.223858 8.72386 0 9 0C9.27614 0 9.5 0.223858 9.5 0.5V2H14V0.5C14 0.223858 14.2239 0 14.5 0C14.7761 0 15 0.223858 15 0.5V2H16C17.1046 2 18 2.89543 18 4V16C18 17.1046 17.1046 18 16 18H2C0.89543 18 0 17.1046 0 16V4C0 2.89543 0.895431 2 2 2H3V0.5C3 0.223858 3.22386 0 3.5 0ZM3 3.5V3H2C1.44772 3 1 3.44772 1 4V7.5H17V4C17 3.44772 16.5523 3 16 3H15V3.5C15 3.77614 14.7761 4 14.5 4C14.2239 4 14 3.77614 14 3.5V3H9.5V3.5C9.5 3.77614 9.27614 4 9 4C8.72386 4 8.5 3.77614 8.5 3.5V3H4V3.5C4 3.77614 3.77614 4 3.5 4C3.22386 4 3 3.77614 3 3.5ZM1 8.5V16C1 16.5523 1.44772 17 2 17H16C16.5523 17 17 16.5523 17 16V8.5H1Z" fill="#151515"/>
</symbol><symbol id="icon-egg-cycle" viewBox="0 0 24 24">
<path d="M5.51278 11.9957C5.51278 8.5388 8.41446 5.73639 11.9939 5.73639C14.8765 5.73639 17.3203 7.5543 18.1619 10.0681L17.6008 9.5262C17.4519 9.38241 17.2105 9.38241 17.0616 9.5262C16.9128 9.66999 16.9128 9.90312 17.0616 10.0469L18.5866 11.5197C18.68 11.6099 18.8152 11.647 18.9438 11.6177C19.0724 11.5884 19.1761 11.4968 19.2179 11.3758L19.9803 9.1666C20.0469 8.97368 19.939 8.76516 19.7392 8.70086C19.5395 8.63655 19.3236 8.74081 19.257 8.93373L18.9148 9.92518C18.0007 7.0725 15.2483 5 11.9939 5C7.99335 5 4.7503 8.1321 4.7503 11.9957C4.7503 12.1991 4.92099 12.3639 5.13154 12.3639C5.34209 12.3639 5.51278 12.1991 5.51278 11.9957Z" fill="#151515"/>
<path d="M11.8291 18.2614C15.4593 18.3519 18.469 15.6192 18.5612 12.1677C18.5666 11.9644 18.7416 11.8039 18.9521 11.8091C19.1626 11.8144 19.3288 11.9834 19.3234 12.1867C19.2201 16.0534 15.8516 19.0983 11.8094 18.9976C8.64049 18.9186 5.98969 16.9306 5.04074 14.2125L4.73154 14.9065C4.64833 15.0933 4.42408 15.1796 4.23067 15.0992C4.03726 15.0189 3.94792 14.8023 4.03113 14.6155L4.84251 12.7941C4.88938 12.6889 4.98429 12.6107 5.09928 12.5827C5.21427 12.5546 5.33623 12.5798 5.42925 12.6509L6.92421 13.7931C7.08934 13.9192 7.1173 14.1508 6.98667 14.3103C6.85604 14.4698 6.61627 14.4968 6.45115 14.3706L5.70454 13.8002C6.49734 16.3196 8.91589 18.1889 11.8291 18.2614Z" fill="#151515"/>
<path d="M13 12C13 12.5523 12.5523 13 12 13C11.4477 13 11 12.5523 11 12C11 11.4477 11.4477 11 12 11C12.5523 11 13 11.4477 13 12Z" fill="#151515"/>
<path fill-rule="evenodd" clip-rule="evenodd" d="M12 16C14.2091 16 16 14.2091 16 12C16 9.79086 14.2091 8 12 8C9.79086 8 8 9.79086 8 12C8 14.2091 9.79086 16 12 16ZM12 15C13.6569 15 15 13.6569 15 12C15 10.3431 13.6569 9 12 9C10.3431 9 9 10.3431 9 12C9 13.6569 10.3431 15 12 15Z" fill="#151515"/>
</symbol><symbol id="icon-envelope" viewBox="0 0 24 24">
<g clip-path="url(#clip0_426_17094)">
<path fill-rule="evenodd" clip-rule="evenodd" d="M4 8C4 6.89543 4.89543 6 6 6H18C19.1046 6 20 6.89543 20 8V16C20 17.1046 19.1046 18 18 18H6C4.89543 18 4 17.1046 4 16V8ZM6 7H18C18.0709 7 18.14 7.00738 18.2068 7.0214L12.9762 11.5047C12.4145 11.9862 11.5856 11.9862 11.0238 11.5047L5.79326 7.0214C5.85997 7.00737 5.92912 7 6 7ZM5.04633 7.69825C5.01623 7.79346 5 7.89484 5 8V16C5 16.5523 5.44772 17 6 17H18C18.5523 17 19 16.5523 19 16V8C19 7.89484 18.9838 7.79347 18.9537 7.69826L13.627 12.264C12.6908 13.0665 11.3093 13.0665 10.373 12.264L5.04633 7.69825Z" fill="#151515"/>
</g>

</symbol><symbol id="icon-eye-closed" viewBox="0 0 24 24">
<g clip-path="url(#clip0_43_2904)">
<path d="M12 14.6133C8.15725 14.6133 5.01641 13.0389 3.89047 11L3 11.4532C3.42835 12.2289 4.07494 12.9244 4.886 13.5135L4.09679 14.2712C3.89999 14.4601 3.89999 14.7665 4.09679 14.9554C4.29359 15.1444 4.61267 15.1444 4.80947 14.9554L5.74091 14.0612C6.25366 14.3508 6.8126 14.6042 7.40826 14.8169L6.98788 16.4312C6.92038 16.6904 7.08454 16.9531 7.35455 17.0179C7.62456 17.0827 7.89816 16.9251 7.96567 16.6659L8.36932 15.1158C8.89175 15.2555 9.43593 15.3656 9.99647 15.4436V17.0324C9.99647 17.2996 10.2221 17.5162 10.5004 17.5162C10.7787 17.5162 11.0044 17.2996 11.0044 17.0324V15.5474C11.3323 15.5696 11.6645 15.5809 12 15.5809C12.173 15.5809 12.3451 15.5779 12.5162 15.572V17.5162C12.5162 17.7834 12.7418 18 13.0201 18C13.2984 18 13.524 17.7834 13.524 17.5162V15.502C13.8865 15.464 14.243 15.4128 14.5921 15.3489L15.0617 16.7016C15.1497 16.955 15.4351 17.092 15.6992 17.0075C15.9632 16.923 16.1059 16.6491 16.0179 16.3956L15.5784 15.1296C16.0024 15.0182 16.4123 14.8872 16.8053 14.7383L17.1048 15.3135C17.2293 15.5525 17.532 15.6494 17.7809 15.5299C18.0299 15.4104 18.1308 15.1197 18.0063 14.8808L17.7254 14.3414C18.1389 14.1398 18.5275 13.9162 18.8869 13.6728L19.215 13.9878C19.4118 14.1767 19.7309 14.1767 19.9277 13.9878C20.1245 13.7988 20.1245 13.4925 19.9277 13.3036L19.6777 13.0635C20.2277 12.5801 20.6762 12.0396 21 11.4532L20.1095 11C18.9836 13.0389 15.8427 14.6133 12 14.6133Z" fill="#151515"/>
</g>

</symbol><symbol id="icon-eye-open" viewBox="0 0 24 24">
<g clip-path="url(#clip0_43_2909)">
<path fill-rule="evenodd" clip-rule="evenodd" d="M15 12C15 13.6569 13.6569 15 12 15C10.3431 15 9 13.6569 9 12C9 10.3431 10.3431 9 12 9C13.6569 9 15 10.3431 15 12ZM14 12C14 13.1046 13.1046 14 12 14C10.8954 14 10 13.1046 10 12C10 10.8954 10.8954 10 12 10C13.1046 10 14 10.8954 14 12Z" fill="#151515"/>
<path fill-rule="evenodd" clip-rule="evenodd" d="M12 17C7.02944 17 3 12 3 12C3 12 7.02944 7 12 7C16.9706 7 21 12 21 12C21 12 16.9706 17 12 17ZM4.42449 12.0844C4.39651 12.0556 4.36937 12.0275 4.34308 12C4.36937 11.9725 4.39651 11.9444 4.42449 11.9156C4.85481 11.4727 5.47768 10.8821 6.24488 10.2933C7.80324 9.09726 9.83766 8 12 8C14.1623 8 16.1968 9.09726 17.7551 10.2933C18.5223 10.8821 19.1452 11.4727 19.5755 11.9156C19.6035 11.9444 19.6306 11.9725 19.6569 12C19.6306 12.0275 19.6035 12.0556 19.5755 12.0844C19.1452 12.5273 18.5223 13.1179 17.7551 13.7067C16.1968 14.9027 14.1623 16 12 16C9.83766 16 7.80324 14.9027 6.24488 13.7067C5.47768 13.1179 4.85481 12.5273 4.42449 12.0844Z" fill="#151515"/>
</g>

</symbol><symbol id="icon-google-login" viewBox="0 0 24 24">
<path fill-rule="evenodd" clip-rule="evenodd" d="M20.458 12.1942C20.458 11.5879 20.4036 11.0049 20.3025 10.4453H12.25V13.7526H16.8515C16.6532 14.8214 16.0509 15.7269 15.1453 16.3332V18.4784H17.9085C19.5253 16.9899 20.458 14.798 20.458 12.1942Z" fill="#4285F4"/>
<path fill-rule="evenodd" clip-rule="evenodd" d="M12.25 20.5495C14.5585 20.5495 16.4939 19.7839 17.9085 18.4781L15.1453 16.3328C14.3797 16.8458 13.4003 17.149 12.25 17.149C10.0231 17.149 8.13819 15.6449 7.46585 13.624H4.60938V15.8393C6.01624 18.6335 8.90769 20.5495 12.25 20.5495Z" fill="#34A853"/>
<path fill-rule="evenodd" clip-rule="evenodd" d="M7.46511 13.6244C7.29411 13.1114 7.19695 12.5634 7.19695 11.9999C7.19695 11.4364 7.29411 10.8884 7.46511 10.3754V8.16016H4.60863C4.02956 9.31441 3.69922 10.6202 3.69922 11.9999C3.69922 13.3795 4.02956 14.6854 4.60863 15.8396L7.46511 13.6244Z" fill="#FBBC05"/>
<path fill-rule="evenodd" clip-rule="evenodd" d="M12.25 6.84979C13.5053 6.84979 14.6323 7.28117 15.5184 8.1284L17.9707 5.67611C16.49 4.29645 14.5546 3.44922 12.25 3.44922C8.90769 3.44922 6.01624 5.3652 4.60938 8.15949L7.46585 10.3747C8.13819 8.35381 10.0231 6.84979 12.25 6.84979Z" fill="#EA4335"/>
</symbol><symbol id="icon-med-pro" viewBox="0 0 20 22">
<path fill-rule="evenodd" clip-rule="evenodd" d="M12.0585 1.8697C11.6282 1.36101 10.9828 1.07987 10.1731 1.06894C9.91491 0.629013 9.43221 0.333008 8.87934 0.333008C8.05459 0.333008 7.38601 0.991714 7.38601 1.80427C7.38601 2.61683 8.05459 3.27553 8.87934 3.27553C9.43187 3.27553 9.91432 2.97989 10.1726 2.5404C10.612 2.55014 10.8095 2.69123 10.9113 2.81158C11.0367 2.95989 11.1193 3.20089 11.1193 3.52071C11.1193 3.62777 11.0648 3.94018 10.9312 4.45979C10.8061 4.94633 10.6331 5.53717 10.4439 6.14943C10.066 7.37268 9.63343 8.65145 9.41544 9.29574C9.21838 9.87817 8.94556 10.388 8.53541 10.7517C8.14277 11.0998 7.56456 11.3674 6.63935 11.3674C5.70998 11.3674 5.13469 11.1043 4.74543 10.7609C4.33853 10.402 4.06566 9.89398 3.86325 9.29574C3.64527 8.65145 3.21265 7.37268 2.83478 6.14943C2.64564 5.53717 2.47256 4.94633 2.34746 4.45979C2.21385 3.94018 2.15935 3.62777 2.15935 3.52071C2.15935 3.20089 2.24195 2.95989 2.3674 2.81158C2.46919 2.69124 2.66667 2.55014 3.10609 2.54041C3.36437 2.97989 3.84681 3.27553 4.39934 3.27553C5.22409 3.27553 5.89268 2.61683 5.89268 1.80427C5.89268 0.991714 5.22409 0.333008 4.39934 0.333008C3.84647 0.333008 3.36378 0.629013 3.10562 1.06894C2.29584 1.07988 1.65045 1.36101 1.22019 1.8697C0.80119 2.36507 0.666016 2.9823 0.666016 3.52071C0.666016 3.84277 0.77485 4.33496 0.899853 4.8211C1.03336 5.3403 1.21417 5.95636 1.40614 6.57781C1.79012 7.82079 2.22814 9.11543 2.44592 9.75913L2.44655 9.76099C2.68918 10.4781 3.06965 11.2575 3.74926 11.857C4.30014 12.343 5.00529 12.6738 5.89274 12.7913V16.5169C5.89274 17.3957 6.19794 18.6754 7.11301 19.7487C8.05253 20.8506 9.57697 21.6663 11.8661 21.6663C14.1552 21.6663 15.6796 20.8506 16.6191 19.7487C17.5342 18.6754 17.8394 17.3957 17.8394 16.5169V9.16058C17.8394 9.11899 17.8359 9.07821 17.8292 9.03851C18.7045 8.7384 19.3327 7.91832 19.3327 6.95367C19.3327 5.73484 18.3298 4.74678 17.0927 4.74678C15.8556 4.74678 14.8527 5.73484 14.8527 6.95367C14.8527 7.91834 15.4809 8.73845 16.3563 9.03853C16.3496 9.07823 16.3461 9.119 16.3461 9.16058V16.5169C16.3461 17.1093 16.1286 18.0366 15.4757 18.8024C14.8472 19.5395 13.7583 20.195 11.8661 20.195C9.97384 20.195 8.88495 19.5395 8.25646 18.8024C7.60354 18.0366 7.38607 17.1093 7.38607 16.5169V12.7905C8.27704 12.6707 8.98386 12.3334 9.5344 11.8453C10.2131 11.2434 10.5936 10.4659 10.8321 9.76099L10.8328 9.75907L10.8329 9.75884C11.0507 9.11504 11.4886 7.82061 11.8726 6.57781C12.0645 5.95636 12.2453 5.3403 12.3788 4.8211C12.5038 4.33496 12.6127 3.84277 12.6127 3.52071C12.6127 2.9823 12.4775 2.36507 12.0585 1.8697ZM17.8394 6.95365C17.8394 7.35992 17.5051 7.68928 17.0927 7.68928C16.6803 7.68928 16.346 7.35992 16.346 6.95365C16.346 6.54737 16.6803 6.21802 17.0927 6.21802C17.5051 6.21802 17.8394 6.54737 17.8394 6.95365Z" fill="#6F6F6F"/>
</symbol><symbol id="icon-search" viewBox="0 0 24 24">
<g clip-path="url(#clip0_1178_56206)">
<path fill-rule="evenodd" clip-rule="evenodd" d="M15.5895 16.2856C14.3607 17.3535 12.7558 18 11 18C7.13401 18 4 14.866 4 11C4 7.13401 7.13401 4 11 4C14.866 4 18 7.13401 18 11C18 12.7558 17.3535 14.3607 16.2856 15.5895C16.3095 15.6062 16.3323 15.6251 16.3536 15.6464L19.8536 19.1464C20.0488 19.3417 20.0488 19.6583 19.8536 19.8536C19.6583 20.0488 19.3417 20.0488 19.1464 19.8536L15.6464 16.3536C15.6251 16.3323 15.6062 16.3095 15.5895 16.2856ZM17 11C17 14.3137 14.3137 17 11 17C7.68629 17 5 14.3137 5 11C5 7.68629 7.68629 5 11 5C14.3137 5 17 7.68629 17 11Z" fill="#151515"/>
</g>

</symbol><symbol id="icon-star-rating" viewBox="0 0 18 17">
<path d="M9 0L12.0153 4.84974L17.5595 6.21885L13.8789 10.5853L14.2901 16.2812L9 14.13L3.70993 16.2812L4.12108 10.5853L0.440492 6.21885L5.98466 4.84974L9 0Z" fill="#DCB93A"/>
</symbol><symbol id="icon-time-picker" viewBox="0 0 16 16">
<path fill-rule="evenodd" clip-rule="evenodd" d="M8 14.8571C11.7871 14.8571 14.8571 11.7871 14.8571 8C14.8571 4.2129 11.7871 1.14286 8 1.14286C4.2129 1.14286 1.14286 4.2129 1.14286 8C1.14286 11.7871 4.2129 14.8571 8 14.8571ZM8 16C12.4183 16 16 12.4183 16 8C16 3.58172 12.4183 0 8 0C3.58172 0 0 3.58172 0 8C0 12.4183 3.58172 16 8 16Z" fill="#151515"/>
<path fill-rule="evenodd" clip-rule="evenodd" d="M8 2.28571C8.31559 2.28571 8.57143 2.54155 8.57143 2.85714V7.76331L11.2612 10.4531C11.4844 10.6762 11.4844 11.038 11.2612 11.2612C11.038 11.4844 10.6762 11.4844 10.4531 11.2612L7.59594 8.40406C7.48878 8.2969 7.42857 8.15155 7.42857 8V2.85714C7.42857 2.54155 7.68441 2.28571 8 2.28571Z" fill="#151515"/>
</symbol><symbol id="icon-video-off" viewBox="0 0 24 24">
<path d="M5.79665 5.13668C5.61441 4.95444 5.31893 4.95444 5.13668 5.13668C4.95444 5.31893 4.95444 5.61441 5.13668 5.79665L18.2034 18.8633C18.3856 19.0456 18.6811 19.0456 18.8633 18.8633C19.0456 18.6811 19.0456 18.3856 18.8633 18.2034L5.79665 5.13668Z" fill="#151515"/>
<path d="M5.93333 15.9926V9.09632C5.93333 8.83859 5.7244 8.62965 5.46667 8.62965C5.20893 8.62965 5 8.83859 5 9.09632V15.9926C5 16.6513 5.53395 17.1852 6.19259 17.1852H13.4519C13.7096 17.1852 13.9185 16.9763 13.9185 16.7185C13.9185 16.4608 13.7096 16.2519 13.4519 16.2519H6.19259C6.0494 16.2519 5.93333 16.1358 5.93333 15.9926Z" fill="#151515"/>
<path d="M10.0814 7.28147C10.0814 7.02373 10.2903 6.8148 10.548 6.8148H14.1777C14.8363 6.8148 15.3703 7.34875 15.3703 8.00739V9.13295L18.36 7.93706C18.5038 7.87955 18.6667 7.8971 18.7949 7.98392C18.9232 8.07073 19 8.2155 19 8.37035V15.6296C19 15.8873 18.7911 16.0963 18.5333 16.0963C18.2756 16.0963 18.0667 15.8873 18.0667 15.6296V9.05963L15.3703 10.1382V11.2741C15.3703 11.5318 15.1613 11.7407 14.9036 11.7407C14.6459 11.7407 14.4369 11.5318 14.4369 11.2741V9.82823C14.4369 9.8243 14.4369 9.82038 14.4369 9.81646V8.00739C14.4369 7.8642 14.3209 7.74813 14.1777 7.74813H10.548C10.2903 7.74813 10.0814 7.5392 10.0814 7.28147Z" fill="#151515"/>
</symbol><symbol id="icon-video" viewBox="0 0 24 24">
<path fill-rule="evenodd" clip-rule="evenodd" d="M6.1926 7C5.53395 7 5 7.51488 5 8.15V15.85C5 16.4852 5.53395 17 6.1926 17H14.1778C14.8365 17 15.3704 16.4852 15.3704 15.85V14.7647L18.36 15.9178C18.5038 15.9733 18.6667 15.9564 18.7949 15.8726C18.9232 15.7889 19 15.6493 19 15.5V8.49998C19 8.35066 18.9232 8.21107 18.7949 8.12735C18.6667 8.04364 18.5038 8.02671 18.36 8.08217L15.3704 9.2353V8.15C15.3704 7.51488 14.8365 7 14.1778 7H6.1926ZM14.4371 9.8881C14.4368 9.8961 14.4368 9.90412 14.4371 9.91215V14.0878C14.4368 14.0959 14.4368 14.1039 14.4371 14.1119V15.85C14.4371 15.9881 14.321 16.1 14.1778 16.1H6.1926C6.04941 16.1 5.93334 15.9881 5.93334 15.85V8.15C5.93334 8.01194 6.04941 7.9 6.1926 7.9H14.1778C14.321 7.9 14.4371 8.01193 14.4371 8.15V9.8881ZM15.3704 13.7954V10.2046L18.0667 9.16465V14.8353L15.3704 13.7954Z" fill="#151515"/>
</symbol><symbol id="icons-hamburger" viewBox="0 0 24 24">
<g clip-path="url(#clip0_2684_12640)">
<path d="M14 12C14 13.1046 13.1046 14 12 14C10.8954 14 10 13.1046 10 12C10 10.8954 10.8954 10 12 10C13.1046 10 14 10.8954 14 12Z" fill="#6F6F6F"/>
<path d="M14 5C14 6.10457 13.1046 7 12 7C10.8954 7 10 6.10457 10 5C10 3.89543 10.8954 3 12 3C13.1046 3 14 3.89543 14 5Z" fill="#6F6F6F"/>
<path d="M14 19C14 20.1046 13.1046 21 12 21C10.8954 21 10 20.1046 10 19C10 17.8954 10.8954 17 12 17C13.1046 17 14 17.8954 14 19Z" fill="#6F6F6F"/>
</g>

</symbol><symbol id="icons-time" viewBox="0 0 24 24">
<g clip-path="url(#clip0_1359_41835)">
<path fill-rule="evenodd" clip-rule="evenodd" d="M12 18.8571C15.7871 18.8571 18.8571 15.7871 18.8571 12C18.8571 8.2129 15.7871 5.14286 12 5.14286C8.2129 5.14286 5.14286 8.2129 5.14286 12C5.14286 15.7871 8.2129 18.8571 12 18.8571ZM12 20C16.4183 20 20 16.4183 20 12C20 7.58172 16.4183 4 12 4C7.58172 4 4 7.58172 4 12C4 16.4183 7.58172 20 12 20Z" fill="#151515"/>
<path fill-rule="evenodd" clip-rule="evenodd" d="M12 6.28571C12.3156 6.28571 12.5714 6.54155 12.5714 6.85714V11.7633L15.2612 14.4531C15.4844 14.6762 15.4844 15.038 15.2612 15.2612C15.038 15.4844 14.6762 15.4844 14.4531 15.2612L11.5959 12.4041C11.4888 12.2969 11.4286 12.1516 11.4286 12V6.85714C11.4286 6.54155 11.6844 6.28571 12 6.28571Z" fill="#151515"/>
</g>

</symbol><symbol id="mastercard" viewBox="0 0 48 48">
<path d="M28.8516 12.6299H19.1094V30.1587H28.8516V12.6299Z" fill="#FF5A00"/>
<path d="M19.763 21.3946C19.763 17.8333 21.4347 14.6724 24 12.6302C22.1121 11.1436 19.7306 10.2451 17.1329 10.2451C10.9792 10.2451 6 15.2317 6 21.3946C6 27.5575 10.9792 32.5441 17.1329 32.5441C19.7306 32.5441 22.1121 31.6456 24 30.159C21.4311 28.1456 19.763 24.9559 19.763 21.3946Z" fill="#EB001B"/>
<path d="M42 21.3946C42 27.5575 37.0208 32.5441 30.8671 32.5441C28.2694 32.5441 25.8879 31.6456 24 30.159C26.5977 28.1132 28.237 24.9559 28.237 21.3946C28.237 17.8333 26.5653 14.6724 24 12.6302C25.8843 11.1436 28.2658 10.2451 30.8635 10.2451C37.0208 10.2451 42 15.2642 42 21.3946Z" fill="#F79E1B"/>
<path d="M12.4962 37.6934V35.8352C12.4962 35.1244 12.0639 34.6589 11.3217 34.6589C10.9506 34.6589 10.5471 34.7816 10.2696 35.1857C10.0535 34.8465 9.74361 34.6589 9.27884 34.6589C8.96899 34.6589 8.65914 34.7527 8.41414 35.0919V34.7202H7.76562V37.6934H8.41414V36.0517C8.41414 35.5249 8.69157 35.2759 9.12391 35.2759C9.55626 35.2759 9.77243 35.5537 9.77243 36.0517V37.6934H10.4209V36.0517C10.4209 35.5249 10.7308 35.2759 11.1307 35.2759C11.5631 35.2759 11.7792 35.5537 11.7792 36.0517V37.6934H12.4962ZM22.1159 34.7202H21.0639V33.8218H20.4153V34.7202H19.8281V35.3084H20.4153V36.6723C20.4153 37.3543 20.6928 37.7548 21.435 37.7548C21.7124 37.7548 22.0222 37.661 22.2384 37.5383L22.0511 36.979C21.8637 37.1017 21.6475 37.1342 21.4926 37.1342C21.1828 37.1342 21.0603 36.9465 21.0603 36.6398V35.3084H22.1123V34.7202H22.1159ZM27.6211 34.6553C27.25 34.6553 27.0014 34.8429 26.8465 35.0883V34.7166H26.198V37.6898H26.8465V36.0156C26.8465 35.5213 27.0627 35.2398 27.4662 35.2398C27.5887 35.2398 27.7436 35.2723 27.8697 35.3012L28.0571 34.6805C27.9274 34.6553 27.7436 34.6553 27.6211 34.6553ZM19.3021 34.9656C18.9922 34.7491 18.5599 34.6553 18.0951 34.6553C17.3529 34.6553 16.8593 35.0269 16.8593 35.6151C16.8593 36.1094 17.2304 36.3909 17.8789 36.4811L18.1888 36.5135C18.5274 36.5749 18.7148 36.6687 18.7148 36.8238C18.7148 37.0403 18.4662 37.1955 18.0338 37.1955C17.6015 37.1955 17.2592 37.0403 17.043 36.8852L16.7332 37.3795C17.0719 37.6285 17.5366 37.7512 18.0014 37.7512C18.8661 37.7512 19.3633 37.347 19.3633 36.7914C19.3633 36.2646 18.9598 35.9867 18.3437 35.8929L18.0338 35.8604C17.7564 35.828 17.5402 35.7666 17.5402 35.5826C17.5402 35.3661 17.7564 35.2434 18.0987 35.2434C18.4698 35.2434 18.8409 35.3986 19.0282 35.4924L19.3021 34.9656ZM36.5563 34.6553C36.1852 34.6553 35.9366 34.8429 35.7816 35.0883V34.7166H35.1331V37.6898H35.7816V36.0156C35.7816 35.5213 35.9978 35.2398 36.4013 35.2398C36.5238 35.2398 36.6788 35.2723 36.8049 35.3012L36.9922 34.6878C36.8661 34.6553 36.6824 34.6553 36.5563 34.6553ZM28.2696 36.2068C28.2696 37.1053 28.8893 37.7548 29.8477 37.7548C30.28 37.7548 30.5899 37.661 30.8997 37.4156L30.5899 36.8888C30.3413 37.0764 30.0963 37.1666 29.8153 37.1666C29.2892 37.1666 28.9181 36.795 28.9181 36.2068C28.9181 35.6476 29.2892 35.2759 29.8153 35.247C30.0927 35.247 30.3413 35.3409 30.5899 35.5249L30.8997 34.9981C30.5899 34.7491 30.28 34.6589 29.8477 34.6589C28.8893 34.6553 28.2696 35.3084 28.2696 36.2068ZM34.2684 36.2068V34.7202H33.6199V35.0919C33.4037 34.814 33.0939 34.6589 32.6904 34.6589C31.8545 34.6589 31.206 35.3084 31.206 36.2068C31.206 37.1053 31.8545 37.7548 32.6904 37.7548C33.1227 37.7548 33.4326 37.5996 33.6199 37.3218V37.6934H34.2684V36.2068ZM31.8869 36.2068C31.8869 35.68 32.2256 35.247 32.784 35.247C33.3101 35.247 33.6812 35.6512 33.6812 36.2068C33.6812 36.7336 33.3101 37.1666 32.784 37.1666C32.2292 37.1342 31.8869 36.73 31.8869 36.2068ZM24.1263 34.6553C23.2616 34.6553 22.6419 35.2759 22.6419 36.2032C22.6419 37.1342 23.2616 37.7512 24.1587 37.7512C24.5911 37.7512 25.0234 37.6285 25.3657 37.347L25.0559 36.8816C24.8073 37.0692 24.4974 37.1919 24.1912 37.1919C23.7876 37.1919 23.3877 37.0043 23.294 36.4811H25.4882C25.4882 36.3872 25.4882 36.3259 25.4882 36.2321C25.517 35.2759 24.9586 34.6553 24.1263 34.6553ZM24.1263 35.2146C24.5298 35.2146 24.8073 35.4635 24.8685 35.9254H23.3229C23.3841 35.5249 23.6615 35.2146 24.1263 35.2146ZM40.2384 36.2068V33.5439H39.5899V35.0919C39.3737 34.814 39.0639 34.6589 38.6603 34.6589C37.8245 34.6589 37.176 35.3084 37.176 36.2068C37.176 37.1053 37.8245 37.7548 38.6603 37.7548C39.0927 37.7548 39.4025 37.5996 39.5899 37.3218V37.6934H40.2384V36.2068ZM37.8569 36.2068C37.8569 35.68 38.1956 35.247 38.754 35.247C39.28 35.247 39.6511 35.6512 39.6511 36.2068C39.6511 36.7336 39.28 37.1666 38.754 37.1666C38.1956 37.1342 37.8569 36.73 37.8569 36.2068ZM16.1459 36.2068V34.7202H15.4974V35.0919C15.2812 34.814 14.9714 34.6589 14.5679 34.6589C13.732 34.6589 13.0835 35.3084 13.0835 36.2068C13.0835 37.1053 13.732 37.7548 14.5679 37.7548C15.0002 37.7548 15.3101 37.5996 15.4974 37.3218V37.6934H16.1459V36.2068ZM13.7356 36.2068C13.7356 35.68 14.0743 35.247 14.6327 35.247C15.1587 35.247 15.5298 35.6512 15.5298 36.2068C15.5298 36.7336 15.1587 37.1666 14.6327 37.1666C14.0743 37.1342 13.7356 36.73 13.7356 36.2068Z" fill="black"/>
</symbol><symbol id="style=line, name=analytics" viewBox="0 0 24 24">
<path fill-rule="evenodd" clip-rule="evenodd" d="M4 4.47059C4 4.21069 4.21069 4 4.47059 4H19.5294C19.7893 4 20 4.21069 20 4.47059V19.5294C20 19.7893 19.7893 20 19.5294 20H4.47059C4.21069 20 4 19.7893 4 19.5294V4.47059ZM4.94118 4.94118V19.0588H19.0588V4.94118H4.94118Z" fill="#151515"/>
<path fill-rule="evenodd" clip-rule="evenodd" d="M16.0261 10.2222C16.286 10.2222 16.4967 10.4212 16.4967 10.6667V16C16.4967 16.2455 16.286 16.4445 16.0261 16.4445C15.7662 16.4445 15.5555 16.2455 15.5555 16V10.6667C15.5555 10.4212 15.7662 10.2222 16.0261 10.2222Z" fill="#151515"/>
<path fill-rule="evenodd" clip-rule="evenodd" d="M12 6.66666C12.2599 6.66666 12.4706 6.86564 12.4706 7.1111V16C12.4706 16.2455 12.2599 16.4444 12 16.4444C11.7401 16.4444 11.5294 16.2455 11.5294 16V7.1111C11.5294 6.86564 11.7401 6.66666 12 6.66666Z" fill="#151515"/>
<path fill-rule="evenodd" clip-rule="evenodd" d="M8.02613 12.8889C8.28603 12.8889 8.49672 13.0879 8.49672 13.3333V16C8.49672 16.2455 8.28603 16.4444 8.02613 16.4444C7.76623 16.4444 7.55554 16.2455 7.55554 16V13.3333C7.55554 13.0879 7.76623 12.8889 8.02613 12.8889Z" fill="#151515"/>
</symbol><symbol id="style=line, name=export" viewBox="0 0 24 24">
<g clip-path="url(#clip0_198_12566)">
<path fill-rule="evenodd" clip-rule="evenodd" d="M8.1591 7.32843L11.6159 4.14645C11.828 3.95118 12.172 3.95118 12.3841 4.14645L15.8409 7.32843C16.053 7.52369 16.053 7.84027 15.8409 8.03553C15.6288 8.2308 15.2849 8.2308 15.0727 8.03553L12.5432 5.70711V15.5C12.5432 15.7761 12.3 16 12 16C11.7 16 11.4568 15.7761 11.4568 15.5L11.4568 5.70711L8.92728 8.03553C8.71515 8.2308 8.37122 8.2308 8.1591 8.03553C7.94697 7.84027 7.94697 7.52369 8.1591 7.32843Z" fill="#151515"/>
<path fill-rule="evenodd" clip-rule="evenodd" d="M5 10.5C5.27614 10.5 5.5 10.7239 5.5 11V18C5.5 18.8284 6.17157 19.5 7 19.5H17C17.8284 19.5 18.5 18.8284 18.5 18V11C18.5 10.7239 18.7239 10.5 19 10.5C19.2761 10.5 19.5 10.7239 19.5 11V18C19.5 19.3807 18.3807 20.5 17 20.5H7C5.61929 20.5 4.5 19.3807 4.5 18V11C4.5 10.7239 4.72386 10.5 5 10.5Z" fill="#151515"/>
</g>

</symbol><symbol id="style=line, name=female" viewBox="0 0 24 24">
<g clip-path="url(#clip0_712_34409)">
<path fill-rule="evenodd" clip-rule="evenodd" d="M17 10C17 12.5929 15.0263 14.7248 12.4994 14.9754C12.4998 14.9835 12.5 14.9917 12.5 15V16.5H14.25C14.5261 16.5 14.75 16.7239 14.75 17C14.75 17.2761 14.5261 17.5 14.25 17.5H12.5V19.5C12.5 19.7761 12.2761 20 12 20C11.7239 20 11.5 19.7761 11.5 19.5V17.5H9.75C9.47386 17.5 9.25 17.2761 9.25 17C9.25 16.7239 9.47386 16.5 9.75 16.5H11.5V15C11.5 14.9917 11.5002 14.9835 11.5006 14.9754C8.97365 14.7248 7 12.5929 7 10C7 7.23858 9.23858 5 12 5C14.7614 5 17 7.23858 17 10ZM12 14C14.2091 14 16 12.2091 16 10C16 7.79086 14.2091 6 12 6C9.79086 6 8 7.79086 8 10C8 12.2091 9.79086 14 12 14Z" fill="#151515"/>
</g>

</symbol><symbol id="style=line, name=heart-beat" viewBox="0 0 24 24">
<g clip-path="url(#clip0_193_11722)">
<path fill-rule="evenodd" clip-rule="evenodd" d="M16.5581 14.4571C14.1744 17.1219 11.1673 19 11.1673 19C11.1673 19 6.19144 15.8924 3.9673 12C1.39593 7.5 4.48158 5 7.05297 5C8.96047 5 10.0115 5.89406 10.5726 6.70602C11.0394 7.38141 11.1673 8 11.1673 8C11.1673 8 11.2952 7.38141 11.762 6.70602C12.3231 5.89406 13.3741 5 15.2816 5C17.853 5 20.9387 7.5 18.3673 12C18.0838 12.496 17.7557 12.9793 17.3989 13.4451L17.5245 14.0557L17.9407 12.8419C18.0107 12.6377 18.2072 12.5 18.4286 12.5H20.4857C20.7697 12.5 21 12.7239 21 13C21 13.2762 20.7697 13.5 20.4857 13.5H18.7992L17.8879 16.1581C17.8142 16.3732 17.6008 16.5131 17.368 16.4991C17.1353 16.485 16.9414 16.3204 16.8957 16.0981L16.5581 14.4571ZM11.1673 9C11.6546 9 12.0746 8.66763 12.1741 8.20457L12.1756 8.1985C12.178 8.18885 12.1829 8.16969 12.1908 8.14238C12.2067 8.08753 12.2343 8.00134 12.2772 7.89435C12.3639 7.67801 12.5072 7.39137 12.7302 7.10868C13.1526 6.57342 13.8936 6 15.2816 6C16.262 6 17.3245 6.48619 17.8834 7.34649C18.4024 8.14546 18.6236 9.49239 17.4682 11.5144C17.3589 11.7055 17.2421 11.8952 17.1187 12.083L16.8757 10.902C16.8326 10.6925 16.6575 10.5328 16.4397 10.5044C16.2219 10.4761 16.0097 10.5854 15.9114 10.7764L15.025 12.5H12.2571C12.0212 12.5 11.8154 12.6562 11.7582 12.8787L11.3664 14.4025L10.7091 9.92931C10.6754 9.69975 10.4837 9.52286 10.2462 9.50204C10.0086 9.48121 9.78753 9.62191 9.71211 9.8419L8.80075 12.5H7.11429C6.83025 12.5 6.6 12.7239 6.6 13C6.6 13.2762 6.83025 13.5 7.11429 13.5H9.17143C9.39279 13.5 9.58932 13.3623 9.65932 13.1581L9.99898 12.1675L10.7195 17.0707C10.7542 17.3074 10.9565 17.487 11.2021 17.4994C11.4477 17.5117 11.6679 17.3532 11.7275 17.1213L12.6587 13.5H15.3429C15.5377 13.5 15.7157 13.393 15.8028 13.2236L16.1611 12.527L16.2987 13.1962C15.3748 14.3314 14.2733 15.3624 13.2653 16.1991C12.5297 16.8098 11.8608 17.3032 11.3771 17.6431C11.3025 17.6955 11.2325 17.7441 11.1673 17.789C11.1021 17.7441 11.0321 17.6955 10.9575 17.6431C10.4738 17.3032 9.80491 16.8098 9.06926 16.1991C7.58155 14.9641 5.89023 13.3061 4.86643 11.5144C3.71105 9.4924 3.93223 8.14546 4.45125 7.34649C5.01011 6.48618 6.07258 6 7.05297 6C8.44099 6 9.18201 6.57343 9.60437 7.10868C9.82744 7.39137 9.97072 7.67802 10.0574 7.89436C10.1003 8.00134 10.1279 8.08754 10.1438 8.14239C10.1518 8.1697 10.1567 8.18886 10.159 8.19851L10.1605 8.20458C10.26 8.66764 10.68 9 11.1673 9Z" fill="#151515"/>
</g>

</symbol><symbol id="style=line, name=link" viewBox="0 0 24 24">
<g clip-path="url(#clip0_418_16327)">
<path d="M13 12V7C13 5.89543 12.1046 5 11 5C9.89543 5 9 5.89543 9 7V14.2361C8.38625 13.6868 8 12.8885 8 12V7C8 5.34315 9.34315 4 11 4C12.6569 4 14 5.34315 14 7V12C14 13.3062 13.1652 14.4175 12 14.8293V13.7324C12.5978 13.3866 13 12.7403 13 12Z" fill="#151515"/>
<path d="M10 12C10 10.6938 10.8348 9.58255 12 9.17072V10.2676C11.4022 10.6134 11 11.2597 11 12V17C11 18.1046 11.8954 19 13 19C14.1046 19 15 18.1046 15 17V9.7639C15.6137 10.3132 16 11.1115 16 12V17C16 18.6569 14.6569 20 13 20C11.3431 20 10 18.6569 10 17V12Z" fill="#151515"/>
</g>

</symbol><symbol id="style=line, name=male" viewBox="0 0 24 24">
<g clip-path="url(#clip0_712_34396)">
<path fill-rule="evenodd" clip-rule="evenodd" d="M18.5 5H14C13.7239 5 13.5 5.22386 13.5 5.5C13.5 5.77614 13.7239 6 14 6H17.2929L14.0195 9.27337C13.0658 8.47831 11.8387 8 10.5 8C7.46243 8 5 10.4624 5 13.5C5 16.5376 7.46243 19 10.5 19C13.5376 19 16 16.5376 16 13.5C16 12.1613 15.5217 10.9342 14.7266 9.98047L18 6.70711V10C18 10.2761 18.2239 10.5 18.5 10.5C18.7761 10.5 19 10.2761 19 10V5.5C19 5.22386 18.7761 5 18.5 5ZM15 13.5C15 15.9853 12.9853 18 10.5 18C8.01472 18 6 15.9853 6 13.5C6 11.0147 8.01472 9 10.5 9C12.9853 9 15 11.0147 15 13.5Z" fill="#151515"/>
</g>

</symbol><symbol id="style=line, name=message" viewBox="0 0 24 24">
<path fill-rule="evenodd" clip-rule="evenodd" d="M17 7H7C6.44772 7 6 7.44772 6 8V13.3173C6 13.6944 6.30565 14 6.68269 14C7.31699 14 7.87444 14.4205 8.0487 15.0304L8.45074 16.4375L10.0911 14.5238L10.8503 15.1746L8.605 17.7942C8.34572 18.0967 7.85406 17.9892 7.74461 17.6061L7.08717 15.3051C7.03557 15.1245 6.87051 15 6.68269 15C5.75336 15 5 14.2466 5 13.3173V8C5 6.89543 5.89543 6 7 6H17C18.1046 6 19 6.89543 19 8V13C19 14.1046 18.1046 15 17 15H11.23C11.084 15 10.9453 15.0638 10.8503 15.1746L10.0911 14.5238C10.3761 14.1913 10.7921 14 11.23 14H17C17.5523 14 18 13.5523 18 13V8C18 7.44772 17.5523 7 17 7Z" fill="#151515"/>
</symbol><symbol id="style=line, name=mic-active" viewBox="0 0 24 24">
<path fill-rule="evenodd" clip-rule="evenodd" d="M9.25806 7.64444C9.25806 6.18397 10.4856 5 12 5C13.5144 5 14.7419 6.18397 14.7419 7.64444V12C14.7419 13.4605 13.5144 14.6444 12 14.6444C10.4856 14.6444 9.25806 13.4605 9.25806 12V7.64444ZM12 5.93333C11.0201 5.93333 10.2258 6.69942 10.2258 7.64444V12C10.2258 12.9451 11.0201 13.7111 12 13.7111C12.9799 13.7111 13.7742 12.9451 13.7742 12V7.64444C13.7742 6.69942 12.9799 5.93333 12 5.93333Z" fill="#151515"/>
<path fill-rule="evenodd" clip-rule="evenodd" d="M7.48387 11.5333C7.75111 11.5333 7.96774 11.7423 7.96774 12C7.96774 14.1478 9.77304 15.8889 12 15.8889C14.2269 15.8889 16.0323 14.1478 16.0323 12C16.0323 11.7423 16.2489 11.5333 16.5161 11.5333C16.7834 11.5333 17 11.7423 17 12C17 14.6632 14.7614 16.8222 12 16.8222C9.23857 16.8222 7 14.6632 7 12C7 11.7423 7.21664 11.5333 7.48387 11.5333Z" fill="#151515"/>
<path fill-rule="evenodd" clip-rule="evenodd" d="M12 15.8889C12.2672 15.8889 12.4839 16.0978 12.4839 16.3556V18.5333C12.4839 18.7911 12.2672 19 12 19C11.7328 19 11.5161 18.7911 11.5161 18.5333V16.3556C11.5161 16.0978 11.7328 15.8889 12 15.8889Z" fill="#151515"/>
<path fill-rule="evenodd" clip-rule="evenodd" d="M9.25806 18.5333C9.25806 18.2756 9.4747 18.0667 9.74194 18.0667H14.2581C14.5253 18.0667 14.7419 18.2756 14.7419 18.5333C14.7419 18.7911 14.5253 19 14.2581 19H9.74194C9.4747 19 9.25806 18.7911 9.25806 18.5333Z" fill="#151515"/>
</symbol><symbol id="style=line, name=mic-muted" viewBox="0 0 24 24">
<path fill-rule="evenodd" clip-rule="evenodd" d="M12.0001 5.93333C11.3673 5.93333 10.8142 6.27656 10.5176 6.78923C10.3885 7.01232 10.1031 7.08856 9.87998 6.95951C9.65689 6.83045 9.58065 6.54498 9.7097 6.32188C10.1662 5.53268 11.0207 5 12.0001 5C13.4606 5 14.6445 6.18397 14.6445 7.64444V10.5481C14.6445 10.8059 14.4356 11.0148 14.1778 11.0148C13.9201 11.0148 13.7112 10.8059 13.7112 10.5481V7.64444C13.7112 6.69942 12.9451 5.93333 12.0001 5.93333Z" fill="#151515"/>
<path fill-rule="evenodd" clip-rule="evenodd" d="M16.3556 11.5333C16.6133 11.5333 16.8222 11.7423 16.8222 12C16.8222 12.2733 16.7994 12.5416 16.7556 12.8031C16.713 13.0572 16.4724 13.2288 16.2182 13.1862C15.9641 13.1436 15.7925 12.903 15.8351 12.6488C15.8704 12.4381 15.8889 12.2213 15.8889 12C15.8889 11.7423 16.0978 11.5333 16.3556 11.5333Z" fill="#151515"/>
<path fill-rule="evenodd" clip-rule="evenodd" d="M5.13668 5.13668C5.31893 4.95444 5.61441 4.95444 5.79665 5.13668L18.8633 18.2034C19.0456 18.3856 19.0456 18.6811 18.8633 18.8633C18.6811 19.0456 18.3856 19.0456 18.2034 18.8633L5.13668 5.79665C4.95444 5.61441 4.95444 5.31893 5.13668 5.13668Z" fill="#151515"/>
<path fill-rule="evenodd" clip-rule="evenodd" d="M7.64451 11.5333C7.90224 11.5333 8.11118 11.7423 8.11118 12C8.11118 14.1478 9.85229 15.8889 12.0001 15.8889C12.2214 15.8889 12.4381 15.8704 12.6487 15.8351C12.9029 15.7924 13.1435 15.9639 13.1862 16.218C13.2289 16.4722 13.0574 16.7129 12.8033 16.7555C12.5417 16.7994 12.2734 16.8222 12.0001 16.8222C9.33683 16.8222 7.17784 14.6632 7.17784 12C7.17784 11.7423 7.38678 11.5333 7.64451 11.5333Z" fill="#151515"/>
<path fill-rule="evenodd" clip-rule="evenodd" d="M12.0001 15.8889C12.2578 15.8889 12.4667 16.0978 12.4667 16.3555V18.5333C12.4667 18.791 12.2577 19 12 19C11.7423 19 11.5333 18.791 11.5333 18.5333V16.3555C11.5333 16.0978 11.7423 15.8889 12.0001 15.8889Z" fill="#151515"/>
<path fill-rule="evenodd" clip-rule="evenodd" d="M9.35549 18.5333C9.35549 18.2756 9.56442 18.0667 9.82216 18.0667H14.1777C14.4354 18.0667 14.6444 18.2756 14.6444 18.5333C14.6444 18.7911 14.4354 19 14.1777 19H9.82216C9.56442 19 9.35549 18.7911 9.35549 18.5333Z" fill="#151515"/>
</symbol><symbol id="style=line, name=note" viewBox="0 0 24 24">
<path d="M9.3555 12.3203C9.15011 12.3203 8.98361 12.5047 8.98361 12.7321C8.98361 12.9595 9.15011 13.1439 9.3555 13.1439H13.3224C13.5278 13.1439 13.6943 12.9595 13.6943 12.7321C13.6943 12.5047 13.5278 12.3203 13.3224 12.3203H9.3555Z" fill="#151515"/>
<path d="M9.3555 15.2484C9.15011 15.2484 8.98361 15.4328 8.98361 15.6602C8.98361 15.8876 9.15011 16.0719 9.3555 16.0719H14.6448C14.8502 16.0719 15.0167 15.8876 15.0167 15.6602C15.0167 15.4328 14.8502 15.2484 14.6448 15.2484H9.3555Z" fill="#151515"/>
<path fill-rule="evenodd" clip-rule="evenodd" d="M7 5.41176C7 5.18435 7.1665 5 7.3719 5H13.3223C13.4209 5 13.5155 5.04338 13.5853 5.1206L16.8911 8.78073C16.9608 8.85795 17 8.96269 17 9.07189V18.5882C17 18.8156 16.8335 19 16.6281 19H7.3719C7.1665 19 7 18.8156 7 18.5882V5.41176ZM7.7438 5.82352V18.1765H16.2562V10.2158H13.9834C13.5319 10.2158 13.1115 9.96994 12.8113 9.63764C12.5112 9.30534 12.2892 8.83987 12.2892 8.33994V5.82352H7.7438ZM13.033 5.82352V8.33994C13.033 8.57204 13.1415 8.8386 13.3373 9.05532C13.533 9.27204 13.7738 9.39223 13.9834 9.39223H16.2562V9.24245L13.1683 5.82352H13.033Z" fill="#151515"/>
</symbol><symbol id="style=line, name=paper-plane" viewBox="0 0 24 24">
<path fill-rule="evenodd" clip-rule="evenodd" d="M17.689 6.30699C17.8772 6.49354 17.9341 6.77523 17.8333 7.02025L12.608 19.7102C12.5362 19.8844 12.367 19.9986 12.1786 20C11.9902 20.0013 11.8194 19.8896 11.7452 19.7164L9.50669 14.4933L4.28361 12.2549C4.11044 12.1807 3.99867 12.0098 4.00001 11.8214C4.00136 11.633 4.11556 11.4638 4.28977 11.3921L16.9798 6.16678M15.5849 7.75324L5.676 11.8334L9.75615 13.582L15.5849 7.75324ZM10.418 14.2438L16.2469 8.41485L12.1666 18.324L10.418 14.2438Z" fill="#151515"/>
</symbol><symbol id="style=line, name=pencil" viewBox="0 0 24 24">
<g clip-path="url(#clip0_204_15298)">
<path fill-rule="evenodd" clip-rule="evenodd" d="M16.0335 6.63127L14.5691 5.57886L7.55556 15.3384L7.54964 16.8917L9.02 16.3908L16.0335 6.63127ZM9.64534 17.2342L6.54429 18.2906L6.55678 15.0146L14.3406 4.18323L17.4292 6.40278L9.64534 17.2342Z" fill="#151515"/>
<path d="M4 19H20V20H4V19Z" fill="#151515"/>
</g>

</symbol><symbol id="style=line, name=phone" viewBox="0 0 24 24">
<path fill-rule="evenodd" clip-rule="evenodd" d="M12 8.5C8.42037 8.5 5.90139 9.97396 4.43487 11.1572C3.95725 11.5425 3.84961 12.254 4.19676 12.8495L4.97417 14.1831C5.36254 14.8493 6.19277 15.1125 6.89403 14.7917L8.63641 13.9947V12.4738C8.63641 12.1502 8.79372 11.8294 9.08651 11.6428C9.61237 11.3075 10.5032 10.8684 12 10.8684C13.4969 10.8684 14.3877 11.3075 14.9136 11.6428C15.2064 11.8294 15.3637 12.1502 15.3637 12.4738V13.9947L17.1061 14.7917C17.8073 15.1125 18.6375 14.8493 19.0259 14.1831L19.8548 12.7613C20.184 12.1965 20.0941 11.5479 19.6649 11.1925C18.2355 10.0087 15.6217 8.5 12 8.5ZM3.80695 10.3789C5.39311 9.09916 8.12689 7.5 12 7.5C15.9109 7.5 18.7427 9.13041 20.3027 10.4223C21.1806 11.1494 21.2442 12.3634 20.7187 13.2649L19.8898 14.6867C19.2426 15.7971 17.8588 16.2357 16.6901 15.7011L14.9477 14.9041C14.5919 14.7413 14.3637 14.386 14.3637 13.9947V12.4782C13.9657 12.2263 13.2602 11.8684 12 11.8684C10.7399 11.8684 10.0344 12.2263 9.63641 12.4782V13.9947C9.63641 14.386 9.40821 14.7413 9.05239 14.9041L7.31001 15.7011C6.14125 16.2357 4.75753 15.7971 4.11025 14.6867L3.33283 13.3531C2.77584 12.3977 2.88737 11.1208 3.80695 10.3789Z" fill="#151515"/>
</symbol><symbol id="style=line, name=pills" viewBox="0 0 24 24">
<g clip-path="url(#clip0_221_10840)">
<path fill-rule="evenodd" clip-rule="evenodd" d="M13.0434 5.16667C14.5989 3.61111 17.121 3.61111 18.6765 5.16667L18.8333 5.32346C20.3889 6.87902 20.3889 9.40109 18.8333 10.9566L10.9566 18.8333C9.40109 20.3889 6.87902 20.3889 5.32346 18.8333L5.16667 18.6765C3.61111 17.121 3.61111 14.5989 5.16667 13.0434L13.0434 5.16667ZM17.7377 6.10554L17.8945 6.26232C18.9315 7.29937 18.9315 8.98074 17.8945 10.0178L13.9562 13.9561L10.0439 10.0438L13.9822 6.10554C15.0193 5.06849 16.7006 5.06849 17.7377 6.10554ZM9.07884 11.0089L6.10554 13.9822C5.0685 15.0193 5.06849 16.7006 6.10553 17.7377L6.26232 17.8945C7.29936 18.9315 8.98074 18.9315 10.0178 17.8945L12.9911 14.9212L9.07884 11.0089Z" fill="#151515"/>
</g>

</symbol><symbol id="style=line, name=plus" viewBox="0 0 24 24">
<g clip-path="url(#clip0_193_11990)">
<path d="M12 4C11.5091 4 11.1111 4.39797 11.1111 4.88889V11.1111L4.88889 11.1111C4.39797 11.1111 4 11.5091 4 12C4 12.4909 4.39797 12.8889 4.88889 12.8889H11.1111V19.1111C11.1111 19.602 11.5091 20 12 20C12.4909 20 12.8889 19.602 12.8889 19.1111V12.8889H19.1111C19.602 12.8889 20 12.4909 20 12C20 11.5091 19.602 11.1111 19.1111 11.1111L12.8889 11.1111V4.88889C12.8889 4.39797 12.4909 4 12 4Z" fill="#151515"/>
</g>

</symbol><symbol id="style=line, name=pressure" viewBox="0 0 24 24">
<g clip-path="url(#clip0_193_11733)">
<path fill-rule="evenodd" clip-rule="evenodd" d="M16.913 15.5C16.4271 18.6235 13.9647 21 11 21C7.68629 21 5 18.0309 5 14.3684C5 11.4382 8.84044 5.91999 10.3763 3.83035C10.7601 3.30809 11 3 11 3C11 3 11.2399 3.30809 11.6237 3.83035C13.1596 5.91999 17 11.4382 17 14.3684C17 14.4124 16.9996 14.4562 16.9988 14.5H19C19.2761 14.5 19.5 14.7239 19.5 15C19.5 15.2761 19.2761 15.5 19 15.5H16.913ZM15.9003 15.5C15.4285 18.1288 13.3452 20 11 20C8.33039 20 6 17.5752 6 14.3684C6 13.6765 6.29776 12.671 6.84786 11.4608C7.38452 10.2802 8.10882 9.01571 8.84643 7.84327C9.58196 6.67413 10.3192 5.61458 10.8735 4.84637C10.9168 4.78628 10.959 4.72801 11 4.67164C11.041 4.72801 11.0832 4.78628 11.1265 4.84637C11.6808 5.61458 12.418 6.67413 13.1536 7.84327C13.8912 9.01571 14.6155 10.2802 15.1521 11.4608C15.7022 12.671 16 13.6765 16 14.3684C16 14.4124 15.9996 14.4563 15.9987 14.5H14C13.7848 14.5 13.5937 14.6377 13.5257 14.8419L13.1954 15.8326L12.495 10.9293C12.4612 10.6926 12.2645 10.513 12.0258 10.5007C11.787 10.4884 11.5729 10.6468 11.5149 10.8787L10.6096 14.5H8C7.72386 14.5 7.5 14.7239 7.5 15C7.5 15.2761 7.72386 15.5 8 15.5H11C11.2294 15.5 11.4294 15.3439 11.4851 15.1213L11.866 13.5976L12.505 18.0707C12.5378 18.3003 12.7241 18.4772 12.9551 18.498C13.186 18.5188 13.401 18.3781 13.4743 18.1581L14.3604 15.5H15.9003Z" fill="#151515"/>
</g>

</symbol><symbol id="style=line, name=rotate" viewBox="0 0 24 24">
<g clip-path="url(#clip0_664_27175)">
<path d="M19.6614 9.21101C17.8116 7.15146 15.003 5.58018 11.2649 6.10036C8.04073 6.54902 6.25451 8.27335 4.91875 10.2447L4.02076 7.02444C3.94639 6.75776 3.66161 6.59962 3.38467 6.67123C3.10774 6.74285 2.94353 7.0171 3.01789 7.28378L4.22977 11.6297C4.30413 11.8964 4.58892 12.0545 4.86585 11.9829L9.37874 10.8159C9.65567 10.7442 9.81988 10.47 9.74552 10.2033C9.67115 9.93662 9.38636 9.77849 9.10943 9.8501L5.8564 10.6913C7.09307 8.8959 8.65269 7.47422 11.4134 7.09005C14.7238 6.62938 17.2016 8.00085 18.876 9.86516C19.0636 10.074 19.3915 10.0969 19.6084 9.91624C19.8252 9.7356 19.849 9.41986 19.6614 9.21101Z" fill="#151515"/>
<path d="M4.33861 14.789C6.1884 16.8485 8.99702 18.4198 12.7351 17.8996C15.9593 17.451 17.7455 15.7266 19.0813 13.7553L19.9792 16.9756C20.0536 17.2422 20.3384 17.4004 20.6153 17.3288C20.8923 17.2572 21.0565 16.9829 20.9821 16.7162L19.7702 12.3703C19.6959 12.1036 19.4111 11.9455 19.1341 12.0171L14.6213 13.1841C14.3443 13.2558 14.1801 13.53 14.2545 13.7967C14.3289 14.0634 14.6136 14.2215 14.8906 14.1499L18.1436 13.3087C16.9069 15.1041 15.3473 16.5258 12.5866 16.91C9.27618 17.3706 6.79843 15.9991 5.12399 14.1348C4.9364 13.926 4.60853 13.9031 4.39165 14.0838C4.17477 14.2644 4.15102 14.5801 4.33861 14.789Z" fill="#151515"/>
</g>

</symbol><symbol id="style=line, name=scale" viewBox="0 0 24 24">
<g clip-path="url(#clip0_193_11744)">
<path d="M10.5271 5.64705L4.31719 4.21448L4.09241 5.18889L10.048 6.56278C10.0166 6.70351 10.0001 6.84982 10.0001 7C10.0001 7.74028 10.4023 8.38663 11.0001 8.73244V18H8.00006C7.44777 18 7.00006 18.4477 7.00006 19V20H17.0001V19C17.0001 18.4477 16.5523 18 16.0001 18H13.0001V8.73244C13.4694 8.46093 13.8182 8.00415 13.9464 7.46211L19.6829 8.78548L19.9077 7.81107L13.9174 6.42916C13.6717 5.60272 12.9063 5 12.0001 5C11.4172 5 10.8927 5.24929 10.5271 5.64705Z" fill="#151515"/>
<path fill-rule="evenodd" clip-rule="evenodd" d="M5.8345 6.23174C5.78223 6.09235 5.64897 6 5.5001 6C5.35122 6 5.21797 6.09235 5.16569 6.23174L3.02284 11.946C3.00597 11.991 2.99876 12.0372 3.00017 12.0824C3.01234 12.8663 4.32213 13.5 5.50009 13.5C6.67746 13.5 7.98652 12.867 7.99998 12.0836C8.00156 12.038 7.99437 11.9914 7.97736 11.946L5.8345 6.23174ZM7.26153 12.0714L5.5001 7.37429L3.73867 12.0714H7.26153Z" fill="#151515"/>
<path fill-rule="evenodd" clip-rule="evenodd" d="M18.5001 9C18.649 9 18.7822 9.09235 18.8345 9.23174L20.9774 14.946C20.9944 14.9914 21.0016 15.038 21 15.0836C20.9865 15.867 19.6775 16.5 18.5001 16.5C17.3221 16.5 16.0123 15.8663 16.0002 15.0824C15.9988 15.0372 16.006 14.991 16.0228 14.946L18.1657 9.23174C18.218 9.09235 18.3512 9 18.5001 9ZM18.5001 10.3743L20.2615 15.0714H16.7387L18.5001 10.3743Z" fill="#151515"/>
</g>

</symbol><symbol id="style=line, name=thermometer" viewBox="0 0 24 24">
<g clip-path="url(#clip0_193_11706)">
<path fill-rule="evenodd" clip-rule="evenodd" d="M8 6C8 4.34315 9.34315 3 11 3C12.6569 3 14 4.34315 14 6V12.9998C15.213 13.9109 16 15.3631 16 17C16 19.7614 13.7614 22 11 22C8.23858 22 6 19.7614 6 17C6 15.3631 6.78702 13.9109 8 12.9998V6ZM9 13.5351V6C9 4.89543 9.89543 4 11 4C12.1046 4 13 4.89543 13 6V13.5351C14.1956 14.2267 15 15.5194 15 17C15 19.2091 13.2091 21 11 21C8.79086 21 7 19.2091 7 17C7 15.5194 7.8044 14.2267 9 13.5351Z" fill="#151515"/>
<path d="M11 8C10.4477 8 10 8.44772 10 9V14.1672C8.80174 14.5815 7.94118 15.7197 7.94118 17.0588C7.94118 18.7482 9.31066 20.1176 11 20.1176C12.6893 20.1176 14.0588 18.7482 14.0588 17.0588C14.0588 15.7197 13.1983 14.5815 12 14.1672V9C12 8.44772 11.5523 8 11 8Z" fill="#151515"/>
<path d="M18 4C18 4.55228 17.5523 5 17 5C16.4477 5 16 4.55228 16 4C16 3.44772 16.4477 3 17 3C17.5523 3 18 3.44772 18 4Z" fill="#151515"/>
</g>

</symbol><symbol id="visa" viewBox="0 0 48 48">
<path d="M24.6738 21.8368C24.6515 23.5085 26.2436 24.4414 27.443 24.996C28.6753 25.5652 29.0892 25.9301 29.0845 26.4389C29.0751 27.2178 28.1015 27.5616 27.1902 27.5749C25.6004 27.5984 24.6762 27.1676 23.9413 26.8418L23.3686 29.385C24.1059 29.7075 25.4711 29.9887 26.8868 30.001C30.2098 30.001 32.384 28.4443 32.3958 26.0305C32.4087 22.9673 27.931 22.7976 27.9616 21.4284C27.9721 21.0133 28.3896 20.5703 29.3044 20.4575C29.7571 20.4006 31.0071 20.3571 32.424 20.9765L32.9802 18.5158C32.2182 18.2525 31.2387 18.0003 30.0193 18.0003C26.8915 18.0003 24.6915 19.5782 24.6738 21.8368ZM38.3245 18.2123C37.7177 18.2123 37.2062 18.5482 36.9781 19.0637L32.2311 29.8202H35.5518L36.2126 28.0872H40.2705L40.6539 29.8202H43.5806L41.0266 18.2123H38.3245ZM38.789 21.3481L39.7473 25.7069H37.1227L38.789 21.3481ZM20.6477 18.2123L18.0302 29.8202H21.1944L23.8108 18.2123H20.6477ZM15.9665 18.2123L12.6729 26.1131L11.3407 19.3952C11.1843 18.6453 10.567 18.2123 9.88143 18.2123H4.49713L4.42188 18.5493C5.52719 18.777 6.78302 19.1441 7.5438 19.5369C8.00945 19.7768 8.14232 19.9866 8.29518 20.5569L10.8186 29.8202H14.1628L19.2895 18.2123H15.9665Z" fill="url(#paint0_linear_3376_42369)"/>

</symbol></svg>