<svg width="138" height="138" viewBox="0 0 138 138" fill="none" xmlns="http://www.w3.org/2000/svg">
<path d="M138 69C138 107.108 107.108 138 69 138C30.8924 138 0 107.108 0 69C0 30.8924 30.8924 0 69 0C107.108 0 138 30.8924 138 69Z" fill="#00ABBB"/>
<path fill-rule="evenodd" clip-rule="evenodd" d="M109.033 44.0687C111.204 46.572 110.935 50.3615 108.431 52.5327L59.4314 95.0327C56.9384 97.195 53.1671 96.9381 50.9903 94.4576L29.4903 69.9576C27.3046 67.467 27.5519 63.676 30.0425 61.4903C32.5332 59.3047 36.3241 59.5519 38.5098 62.0426L56.0752 82.0589L100.569 43.4675C103.072 41.2963 106.861 41.5655 109.033 44.0687Z" fill="white"/>
</svg>
