<svg width="252" height="601" viewBox="0 0 252 601" fill="none" xmlns="http://www.w3.org/2000/svg">
<g style="mix-blend-mode:hard-light">
<path d="M105.002 58.5C105.002 61 105.502 68 109.002 73C108.503 56 117.503 51 126.003 51C134.503 51 144.003 58 143.003 73C146 68 147.337 59 147.003 58C146.503 56.5 148.997 44 149.997 40.5C147.991 39 157.502 0.499562 126.002 0.5C96 0.500417 102.002 39 102.002 40.5C103.002 41.5 105.002 56 105.002 58.5Z" fill="#197FA0"/>
</g>
<g style="mix-blend-mode:hard-light">
<path d="M152.997 38C151.497 38 150.497 40.5 149.997 40.5C149.5 42 146.499 54.5 146.997 58C147.164 58.3333 147.5 59 148.497 59C149.497 59 150.16 57.0115 150.494 56.0087L150.497 56C151.497 53.5 152.997 51.5 153.497 48.5C154.694 41.3189 154.497 38 152.997 38Z" fill="#197FA0"/>
</g>
<g style="mix-blend-mode:hard-light">
<path d="M99 38C100.5 38 101.38 40.5 101.99 40.5C102.599 40.5 105 53.5 105 58C104.833 58.3333 104.497 59 103.5 59C102 59 101.333 56 101 55C100 52.5 99 51 98.5 48C97.4832 41.8995 97.5 38 99 38Z" fill="#197FA0"/>
</g>
<g style="mix-blend-mode:hard-light">
<path d="M101 91C111.5 88 108.5 81.5 109 73C108.5 56.5 117 51 125.5 51C134.19 51 144 57 143 73L142.986 73.2215C142.309 84.0539 142.061 88.0202 151 91C145 89.5 130.5 89.5 125.5 89.5C120 89.5 110.5 89 101 91Z" fill="#197FA0"/>
</g>
<g style="mix-blend-mode:hard-light">
<path d="M76.0005 124.499C74.5005 113.499 77.5 103 80.5 95C90.9984 94.0004 97.5 92 101.026 90.9917C109 88.9999 121.526 89.4995 126.526 89.4917C133.359 89.4917 147.826 89.7917 151.026 90.9917C155.026 92.4917 165.526 94.9917 170.526 94.9917C174.526 103.492 177.2 111.041 176.026 122.492C175 132.5 172 137.5 171.026 141.492C160.526 141.992 139.526 132.992 125.026 132.992C111.526 132.992 91.526 140.492 81.026 140.492C80.0254 139.158 77.2005 133.299 76.0005 124.499Z" fill="#197FA0"/>
</g>
<g style="mix-blend-mode:hard-light">
<path d="M81.4986 154.996C81.4979 149.496 80.5008 146.996 80.9986 140.496C90.9974 140.496 110 132.996 125 132.996C143 132.996 153 140.501 171 141.496C171.333 142.996 171.8 146.696 171 149.496C170 152.996 170.5 157.496 170.5 160.996C170.5 163.796 169.5 170.833 169 174C169 180 165.5 189.996 165 198.996C154.833 198.329 132.8 196.996 126 196.996C117.5 196.996 89.5 198.996 87 198.996C87 196.996 85 185.996 83.5 179.496C82 172.996 83.0002 169.496 82.0002 164.996C81.2002 161.396 81.3324 156.829 81.4986 154.996Z" fill="#197FA0"/>
</g>
<g style="mix-blend-mode:hard-light">
<path d="M89.5 227C89.9 220.2 88 205.5 87 199C97.8333 198.167 121 197 127 197C133 197 154.833 198.167 165 199C164 206.667 162 223 162 227C162 231 163.667 234.667 164.5 236C154.667 236.833 140.01 248.5 127 248.5C113.5 248.5 97.6667 236.833 87 236C87.6667 234.5 89.1 230.6 89.5 227Z" fill="#197FA0"/>
</g>
<g style="mix-blend-mode:hard-light">
<path d="M176 125C176.5 122.5 177.5 110 170.5 95C193 97.5 192 123.5 197 149.5C198.912 159.445 207.5 182.5 209.5 193.5C207.5 196.5 198.1 200.8 188.5 198C186.5 190 178 168.5 171 149.5V140.5C172.5 138 175.5 127.5 176 125Z" fill="#197FA0"/>
</g>
<g style="mix-blend-mode:hard-light">
<path d="M76 125C75.5 122.5 74.5 110 81.5 95C59 97.5 60 123.5 55 149.5C53.0875 159.445 44.5 182.5 42.5 193.5C44.5 196.5 53.9 200.8 63.5 198C65.5 190 74 168.5 81 149.5V140.5C79.5 138 76.5 127.5 76 125Z" fill="#197FA0"/>
</g>
<g style="mix-blend-mode:hard-light">
<path d="M193.5 221.5C192.5 214.5 191 208 188.5 198C196.5 200.5 206.5 197.5 209.5 193.5C211.5 199.5 215 206 218.5 215.5C216.5 218.5 208.7 223.9 193.5 221.5Z" fill="#197FA0"/>
</g>
<g style="mix-blend-mode:hard-light">
<path d="M58.5 221.5C59.5 214.5 61 208 63.5 198C55.5 200.5 45.5 197.5 42.5 193.5C40.5 199.5 37 206 33.5 215.5C35.5 218.5 43.3 223.9 58.5 221.5Z" fill="#197FA0"/>
</g>
<g style="mix-blend-mode:hard-light">
<path d="M213 270.5C210.6 264.1 197.5 240 193.5 221.5C201.5 222.5 213.5 222 218.5 215.5C224.792 232.578 223.5 262 231 272.5C229 282.5 217 281.5 216 278.5C215.2 276.1 213.667 272.167 213 270.5Z" fill="#197FA0"/>
</g>
<g style="mix-blend-mode:hard-light">
<path d="M39 270.5C41.4 264.1 54.5 240 58.5 221.5C50.5 222.5 38.5 222 33.5 215.5C27.2081 232.578 28.5 262 21 272.5C23 282.5 35 281.5 36 278.5C36.8 276.1 38.3333 272.167 39 270.5Z" fill="#197FA0"/>
</g>
<g style="mix-blend-mode:hard-light">
<path d="M217 287C216.5 284 216.5 281 216 278.5C216.5 279.5 220 281.5 224.5 280C229 278 230 276 231 272.5C233.5 273.5 240.5 275.5 243 277.5C245.5 279.5 246.5 279.5 248 280.5C249.2 281.3 250.5 283.5 251 284.5C251.667 285.5 252.4 287.6 250 288C247 288.5 245.58 286.387 243.5 285C242 284 240.667 283.667 240 284C239.833 284.5 239.8 286.2 241 289C243.5 294.5 242.5 294.5 242.5 296.5C242.5 298.5 243.5 300.5 244 303C244.5 305.5 243.5 307.5 244 311C244.4 316.2 243.5 317.833 243 318C242.5 318.167 241.4 318.2 241 317C240 316.5 239.5 311 239 308.5C238.5 306 238 303.5 237 301C237 303 238 305 238.5 309C239 313 239 315 239 317C239.5 319 240 322 239.5 323C239.5 324.5 238.5 325 238 325C237.5 325 237 325 236.5 324C235.5 323.5 234.5 320 234.5 318C234.5 316 233 310.5 232.5 309C232 307.5 232 302.5 231.5 302.5C231 302.5 231 303.5 231 304.5C231.5 307 231.5 309.316 231.5 314C231.5 315.5 233 320 232 322C232 323.2 231 323.5 230.5 323.5C230.167 323.5 229.5 323.3 229.5 322.5C228.5 322 227.5 318.5 227.5 317C227.5 315.5 226 311 226 308C226 302.5 225 301.5 224.5 301C224 301.5 224.5 304.5 224.5 305.5C224.5 306.5 225.5 308.5 225.5 310.5C227 313.5 226.5 315 226 315.5C226 316.3 225.667 316.5 225.5 316.5C225.167 316.667 224.4 316.8 224 316C223.5 315.5 222.5 313.5 222 312C221.5 310.5 221.5 310 221 309C220.5 308 220.5 306.5 220 304.5C219.5 302.5 218.5 301 218 299.5C217.5 298 218.5 295 218 293C217.6 291.4 217.167 288.333 217 287Z" fill="#197FA0"/>
</g>
<g style="mix-blend-mode:hard-light">
<path d="M34.6523 287C35.1523 284 35.1523 281 35.6523 278.5C35.1523 279.5 31.6523 281.5 27.1523 280C22.6523 278 21.6523 276 20.6523 272.5C18.1523 273.5 11.1523 275.5 8.65234 277.5C6.15234 279.5 5.15234 279.5 3.65234 280.5C2.45234 281.3 1.15234 283.5 0.652344 284.5C-0.0143242 285.5 -0.747658 287.6 1.65234 288C4.65234 288.5 6.07222 286.387 8.15234 285C9.65234 284 10.9857 283.667 11.6523 284C11.819 284.5 11.8523 286.2 10.6523 289C8.15234 294.5 9.15234 294.5 9.15234 296.5C9.15234 298.5 8.15234 300.5 7.65234 303C7.15234 305.5 8.15234 307.5 7.65234 311C7.25234 316.2 8.15234 317.833 8.65234 318C9.15234 318.167 10.2523 318.2 10.6523 317C11.6523 316.5 12.1523 311 12.6523 308.5C13.1523 306 13.6523 303.5 14.6523 301C14.6523 303 13.6523 305 13.1523 309C12.6523 313 12.6523 315 12.6523 317C12.1523 319 11.6523 322 12.1523 323C12.1523 324.5 13.1523 325 13.6523 325C14.1523 325 14.6523 325 15.1523 324C16.1523 323.5 17.1523 320 17.1523 318C17.1523 316 18.6523 310.5 19.1523 309C19.6523 307.5 19.6523 302.5 20.1523 302.5C20.6523 302.5 20.6523 303.5 20.6523 304.5C20.1523 307 20.1523 309.316 20.1523 314C20.1523 315.5 18.6523 320 19.6523 322C19.6523 323.2 20.6523 323.5 21.1523 323.5C21.4857 323.5 22.1523 323.3 22.1523 322.5C23.1523 322 24.1523 318.5 24.1523 317C24.1523 315.5 25.6523 311 25.6523 308C25.6523 302.5 26.6523 301.5 27.1523 301C27.6523 301.5 27.1523 304.5 27.1523 305.5C27.1523 306.5 26.1523 308.5 26.1523 310.5C24.6523 313.5 25.1523 315 25.6523 315.5C25.6523 316.3 25.9857 316.5 26.1523 316.5C26.4857 316.667 27.2523 316.8 27.6523 316C28.1523 315.5 29.1523 313.5 29.6523 312C30.1523 310.5 30.1523 310 30.6523 309C31.1523 308 31.1523 306.5 31.6523 304.5C32.1523 302.5 33.1523 301 33.6523 299.5C34.1523 298 33.1523 295 33.6523 293C34.0523 291.4 34.4857 288.333 34.6523 287Z" fill="#197FA0"/>
</g>
<g style="mix-blend-mode:hard-light">
<path d="M77.0025 272C79.0025 258 84.5025 242.167 87.0025 236C95.5 236 112 247.5 127 248.5C127 248.5 127.259 261.574 126.5 282.5C126.168 291.646 126.216 302.291 125 314C121.5 325 108.002 329.545 98.0025 330C87.0025 330.5 68.9999 322.5 69.5025 313.5C70.283 299.522 74.5025 289.5 77.0025 272Z" fill="#197FA0"/>
</g>
<g style="mix-blend-mode:hard-light">
<path d="M174.849 272C172.849 258 167 242.167 164.5 236C154 237 139.5 248.5 127 248.5C127 248.5 127 263 126.5 283.5C126.515 292.646 126.288 302.291 126.852 314C130.352 325 143.849 329.545 153.849 330C164.849 330.5 182.852 322.5 182.349 313.5C181.569 299.522 177.349 289.5 174.849 272Z" fill="#197FA0"/>
</g>
<g style="mix-blend-mode:hard-light">
<path d="M118.5 309.5C118.5 306 122.5 283.5 126.5 283.5C130.5 283.5 133 305.5 133 309.5C133 312 130.5 314 126 314C121.5 314 118.5 312.193 118.5 309.5Z" fill="#197FA0"/>
</g>
<g style="mix-blend-mode:hard-light">
<path d="M74.4986 378.5C74.083 361.498 68.4986 333.5 69.4986 315.5C75.0974 325.9 88.8324 329.5 95 330C100.833 330.167 114.1 328.6 120.5 321C121.5 337.5 117 349 115 361C112.75 374.5 114 410 110.5 432.5C109.88 436.483 109 439.5 107.5 445C99.5 439.5 82 442.5 78.9984 443.5C79.3972 439.9 79.1646 432 78.9984 428.5C78.9984 420 74.9996 399 74.4986 378.5Z" fill="#197FA0"/>
</g>
<g style="mix-blend-mode:hard-light">
<path d="M177.146 378.5C177.562 361.498 183.146 333.5 182.146 315.5C176.547 325.9 162.812 329.5 156.645 330C150.811 330.167 137.545 328.6 131.145 321C130.145 337.5 134.645 349 136.645 361C138.895 374.5 137.645 410 141.145 432.5C141.764 436.483 142.645 439.5 144.145 445C152.145 439.5 169.645 442.5 172.646 443.5C172.247 439.9 172.48 432 172.646 428.5C172.646 420 176.645 399 177.146 378.5Z" fill="#197FA0"/>
</g>
<g style="mix-blend-mode:hard-light">
<path d="M76.006 466C76.006 458 78.506 449 79.006 443.5C85.0051 441.5 101.005 440 107.505 445C107.105 448.6 107.005 453.166 107.005 455C106.605 461.4 108.62 471.5 109.005 481.5C109.405 491.9 106.005 504.5 104.505 515C102.338 527 98.0051 550.5 99.5051 560.5C91.5051 566.1 84.5051 563.833 82.0051 562C82.0051 560.5 81.8051 555.5 81.0051 547.5C80.0051 537.5 76 515 75.506 498C75.2965 490.792 75.6726 473.666 76.006 466Z" fill="#197FA0"/>
</g>
<g style="mix-blend-mode:hard-light">
<path d="M176.033 465.999C176.033 457.999 173 449 172.5 443.5C166.501 441.5 150.5 440 144 445C144.4 448.6 145.034 453.166 145.034 454.999C145.434 461.399 143.419 471.499 143.034 481.499C142.634 491.899 146.034 504.499 147.534 514.999C149.701 526.999 154.034 550.499 152.534 560.499C160.534 566.099 167.534 563.833 170.034 561.999C170.034 560.499 170.234 555.499 171.034 547.499C172.034 537.499 176.039 514.999 176.533 497.999C176.743 490.791 176.367 473.666 176.033 465.999Z" fill="#197FA0"/>
</g>
<g style="mix-blend-mode:hard-light">
<path d="M81 573.5C81 571.5 82.5 569 82 562C88.5 566 95 563.5 99.5 560.5C100 566 101 566.674 101 569.5C101 573.5 99 575 99 577.5C96 582 84.5 580 82 580C82 578.5 81 575.5 81 573.5Z" fill="#197FA0"/>
</g>
<g style="mix-blend-mode:hard-light">
<path d="M171.039 573.5C171.039 571.5 169.539 569 170.039 562C163.539 566 157.039 563.5 152.539 560.5C152.039 566 151.039 566.674 151.039 569.5C151.039 573.5 152.5 575 152.5 577.5C155.5 582 167.539 580 170.039 580C170.039 578.5 171.039 575.5 171.039 573.5Z" fill="#197FA0"/>
</g>
<g style="mix-blend-mode:hard-light">
<path d="M97.9999 589.502C98.4243 586.532 99.4999 581.502 98.9999 577.502C96 582 85 580 82 580C82 578 81 575 81 573C79.5 573 78.5 573.5 78 574.502C75.6 574.102 74.6667 575.668 74.5 576.502C74.1667 576.502 73.2997 576.602 72.4985 577.002C70.4985 578.602 71.6661 580.668 72.4999 581.502C72.3332 582.168 72.1999 583.802 72.9999 585.002C73.7999 586.202 75.9999 588.502 76.9999 589.502C79 592 78.5 593.5 80.5 596.5C83.2456 600.618 86.5 600.5 90.5 600.5C97.5 600.5 97.5 593 97.9999 589.502Z" fill="#197FA0"/>
</g>
<g style="mix-blend-mode:hard-light">
<path d="M153.5 589.5C153.076 586.53 152 581.5 152.5 577.5C155.5 581.998 167.126 580 170.126 580C170.126 578 171 575.5 171 573.5C172.5 573.5 173 573.998 173.5 575C175 574.5 176.833 575.667 177 576.5C177.333 576.5 178.5 576 179.5 577.5C180 579.5 179.5 580.5 179 581C179.167 581.667 179.109 583.583 178.497 584.5C177.697 585.7 175.997 588 174.997 589C172.997 591.498 173.497 592.5 171.497 595.5C168.752 599.618 165.626 600.5 161.626 600.5C154.626 600.5 154 592.998 153.5 589.5Z" fill="#197FA0"/>
</g>
</svg>
