<svg width="150" height="92" viewBox="0 0 150 92" fill="none" xmlns="http://www.w3.org/2000/svg">
<path fill-rule="evenodd" clip-rule="evenodd" d="M125.344 4.00006L71.0004 54.5377L16.6565 4.00006H125.344ZM125.344 0L125.367 5.72205e-05H125.5C127.709 5.72205e-05 129.5 1.79092 129.5 4.00006V34.1648C128.515 34.0559 127.514 34 126.5 34C126.165 34 125.832 34.0061 125.5 34.0182V9.31752L73.7244 57.4668C72.189 58.8946 69.8117 58.8946 68.2764 57.4668L16.5 9.31682L16.5 72.0001H101.835C102.461 73.4005 103.202 74.7379 104.047 76.0001H16.5C14.2909 76.0001 12.5 74.2092 12.5 72.0001V4.00006C12.5 1.79092 14.2909 5.72205e-05 16.5 5.72205e-05H16.6339L16.6565 0H125.344Z" fill="#F16439"/>
<path fill-rule="evenodd" clip-rule="evenodd" d="M126.5 84C139.203 84 149.5 73.7025 149.5 61C149.5 48.2975 139.203 38 126.5 38C113.797 38 103.5 48.2975 103.5 61C103.5 73.7025 113.797 84 126.5 84ZM139.561 59.9393L130.015 50.3934C129.429 49.8076 128.479 49.8076 127.893 50.3934C127.308 50.9792 127.308 51.9289 127.893 52.5147L134.879 59.5L114.5 59.5C113.672 59.5 113 60.1716 113 61C113 61.8284 113.672 62.5 114.5 62.5L134.879 62.5L127.893 69.4853C127.308 70.0711 127.308 71.0208 127.893 71.6066C128.479 72.1924 129.429 72.1924 130.015 71.6066L139.561 62.0606C140.146 61.4749 140.146 60.5251 139.561 59.9393Z" fill="#00ABBB"/>
<path fill-rule="evenodd" clip-rule="evenodd" d="M0.5 91C0.5 90.4477 0.947715 90 1.5 90H65.5C66.0523 90 66.5 90.4477 66.5 91C66.5 91.5523 66.0523 92 65.5 92H1.5C0.947715 92 0.5 91.5523 0.5 91Z" fill="#363636"/>
<path fill-rule="evenodd" clip-rule="evenodd" d="M59.5 70C59.5 69.4477 59.9477 69 60.5 69L90.5 69C91.0523 69 91.5 69.4477 91.5 70C91.5 70.5523 91.0523 71 90.5 71L60.5 71C59.9477 71 59.5 70.5523 59.5 70Z" fill="#363636"/>
<path fill-rule="evenodd" clip-rule="evenodd" d="M27.5 81C27.5 80.4477 27.9477 80 28.5 80H74.5C75.0523 80 75.5 80.4477 75.5 81C75.5 81.5523 75.0523 82 74.5 82H28.5C27.9477 82 27.5 81.5523 27.5 81Z" fill="#363636"/>
<path fill-rule="evenodd" clip-rule="evenodd" d="M80.5 76C80.5 75.4477 80.9477 75 81.5 75H94.5C95.0523 75 95.5 75.4477 95.5 76C95.5 76.5523 95.0523 77 94.5 77H81.5C80.9477 77 80.5 76.5523 80.5 76Z" fill="#363636"/>
<path fill-rule="evenodd" clip-rule="evenodd" d="M36.5 65C36.5 64.4477 36.9477 64 37.5 64H50.5C51.0523 64 51.5 64.4477 51.5 65C51.5 65.5523 51.0523 66 50.5 66H37.5C36.9477 66 36.5 65.5523 36.5 65Z" fill="#363636"/>
<path fill-rule="evenodd" clip-rule="evenodd" d="M77.5 83C77.5 82.4477 77.9477 82 78.5 82H81.5C82.0523 82 82.5 82.4477 82.5 83C82.5 83.5523 82.0523 84 81.5 84H78.5C77.9477 84 77.5 83.5523 77.5 83Z" fill="#363636"/>
<path fill-rule="evenodd" clip-rule="evenodd" d="M66.5 65C66.5 64.4477 66.9477 64 67.5 64H70.5C71.0523 64 71.5 64.4477 71.5 65C71.5 65.5523 71.0523 66 70.5 66H67.5C66.9477 66 66.5 65.5523 66.5 65Z" fill="#363636"/>
<path fill-rule="evenodd" clip-rule="evenodd" d="M93.5 72C93.5 71.4477 93.9477 71 94.5 71H95.5C96.0523 71 96.5 71.4477 96.5 72C96.5 72.5523 96.0523 73 95.5 73H94.5C93.9477 73 93.5 72.5523 93.5 72Z" fill="#363636"/>
<path fill-rule="evenodd" clip-rule="evenodd" d="M51.5 73C51.5 72.4477 51.9477 72 52.5 72H53.5C54.0523 72 54.5 72.4477 54.5 73C54.5 73.5523 54.0523 74 53.5 74H52.5C51.9477 74 51.5 73.5523 51.5 73Z" fill="#363636"/>
<path fill-rule="evenodd" clip-rule="evenodd" d="M21.5 59C21.5 58.4477 21.9477 58 22.5 58L64.5 58C65.0523 58 65.5 58.4477 65.5 59C65.5 59.5523 65.0523 60 64.5 60L22.5 60C21.9477 60 21.5 59.5523 21.5 59Z" fill="#363636"/>
</svg>
