<svg width="321" height="268" viewBox="0 0 321 268" fill="none" xmlns="http://www.w3.org/2000/svg">
<path d="M265.607 121.118C265.607 113.324 264.072 105.606 261.089 98.4049C258.105 91.204 253.733 84.6613 248.221 79.1504C242.709 73.6396 236.165 69.2686 228.963 66.287C221.762 63.3054 214.044 61.7717 206.249 61.7734C187.232 61.7734 170.308 71.9381 159.441 85.8533C148.561 71.9381 131.651 61.7734 112.633 61.7734C96.8942 61.7734 81.7996 68.0258 70.6703 79.1551C59.541 90.2844 53.2886 105.379 53.2886 121.118C53.2886 121.118 49.3128 146.298 84.3127 186.056C90.8401 193.408 97.7825 200.382 105.106 206.942C117.219 217.758 129.997 227.806 143.366 237.025C148.442 240.563 153.782 244.141 159.441 247.786C162.94 245.533 166.306 243.306 169.579 241.16C181.635 233.07 193.273 224.374 204.447 215.105C211.192 209.473 217.182 204.013 222.537 198.765C270.484 151.732 265.607 121.118 265.607 121.118Z" fill="#FEF0EC"/>
<path d="M39.876 243.727C39.876 242.283 39.5889 240.854 39.031 239.52C38.4731 238.186 37.6554 236.974 36.6246 235.953C35.5937 234.932 34.37 234.123 33.0232 233.57C31.6765 233.018 30.233 232.734 28.7754 232.734C25.2189 232.734 22.054 234.617 20.0218 237.195C17.987 234.617 14.8246 232.734 11.2682 232.734C8.32475 232.734 5.50189 233.893 3.42059 235.954C1.33928 238.016 0.170013 240.812 0.170013 243.727C0.170013 243.727 -0.573499 248.392 5.97188 255.756C7.19257 257.118 8.49087 258.41 9.86045 259.625C12.1257 261.629 14.5154 263.49 17.0155 265.198C17.9647 265.853 18.9635 266.516 20.0218 267.191C20.6761 266.774 21.3056 266.361 21.9177 265.963C24.1723 264.465 26.3486 262.854 28.4383 261.137C29.6998 260.094 30.82 259.082 31.8213 258.11C40.7881 249.398 39.876 243.727 39.876 243.727Z" fill="#FBC3B2"/>
<path d="M220.11 11.8054C220.11 10.3616 219.823 8.93192 219.265 7.59804C218.707 6.26416 217.89 5.0522 216.859 4.03138C215.828 3.01056 214.604 2.20088 213.258 1.64858C211.911 1.09628 210.467 0.812178 209.01 0.8125C205.453 0.8125 202.288 2.69539 200.256 5.273C198.221 2.69539 195.059 0.8125 191.503 0.8125C188.559 0.8125 185.736 1.97068 183.655 4.03225C181.574 6.09382 180.404 8.88991 180.404 11.8054C180.404 11.8054 179.661 16.4697 186.206 23.8343C187.427 25.1962 188.725 26.488 190.095 27.7031C192.36 29.7068 194.75 31.568 197.25 33.2757C198.199 33.9311 199.198 34.594 200.256 35.269C200.91 34.8517 201.54 34.4393 202.152 34.0416C204.407 32.5431 206.583 30.9323 208.673 29.2153C209.934 28.172 211.054 27.1606 212.056 26.1885C221.022 17.4762 220.11 11.8054 220.11 11.8054Z" fill="#FBC3B2"/>
<path d="M65.0562 66.0816C65.0562 64.4712 64.7403 62.8766 64.1267 61.3888C63.513 59.901 62.6135 58.5492 61.4796 57.4106C60.3457 56.272 58.9996 55.3689 57.5181 54.7529C56.0367 54.1368 54.4489 53.82 52.8455 53.8203C48.9334 53.8203 45.452 55.9205 43.2165 58.7955C40.9783 55.9205 37.4997 53.8203 33.5876 53.8203C30.3498 53.8203 27.2447 55.1121 24.9552 57.4116C22.6658 59.711 21.3796 62.8297 21.3796 66.0816C21.3796 66.0816 20.5617 71.2841 27.7616 79.4984C29.1044 81.0176 30.5325 82.4584 32.0391 83.8137C34.5308 86.0486 37.1595 88.1245 39.9096 90.0293C40.9538 90.7603 42.0524 91.4996 43.2165 92.2526C43.9363 91.7871 44.6287 91.3271 45.3021 90.8836C47.7821 89.2122 50.1761 87.4155 52.4747 85.5004C53.8624 84.3367 55.0946 83.2086 56.196 82.1243C66.0594 72.4067 65.0562 66.0816 65.0562 66.0816Z" fill="#008C99"/>
<path d="M320.839 131.25C320.839 130.306 320.657 129.371 320.304 128.499C319.951 127.627 319.433 126.835 318.78 126.167C318.127 125.5 317.352 124.97 316.499 124.609C315.646 124.248 314.732 124.062 313.809 124.063C311.556 124.063 309.552 125.294 308.265 126.979C306.976 125.294 304.973 124.063 302.721 124.063C300.857 124.063 299.069 124.82 297.751 126.168C296.432 127.516 295.692 129.344 295.692 131.25C295.692 131.25 295.221 134.3 299.366 139.115C300.14 140.006 300.962 140.85 301.829 141.645C303.264 142.955 304.777 144.172 306.361 145.288C306.962 145.717 307.594 146.15 308.265 146.592C308.679 146.319 309.078 146.049 309.465 145.789C310.893 144.809 312.272 143.756 313.595 142.634C314.394 141.951 315.104 141.29 315.738 140.654C321.417 134.958 320.839 131.25 320.839 131.25Z" fill="#FBC3B2"/>
<mask id="mask0_758_29096" style="mask-type:alpha" maskUnits="userSpaceOnUse" x="53" y="61" width="213" height="187">
<path d="M265.611 121.118C265.611 113.324 264.076 105.606 261.092 98.4049C258.109 91.204 253.737 84.6613 248.225 79.1504C242.713 73.6396 236.169 69.2686 228.967 66.287C221.766 63.3054 214.047 61.7717 206.253 61.7734C187.236 61.7734 170.312 71.9381 159.445 85.8533C148.565 71.9381 131.655 61.7734 112.637 61.7734C96.8981 61.7734 81.8035 68.0258 70.6742 79.1551C59.5449 90.2844 53.2925 105.379 53.2925 121.118C53.2925 121.118 49.3168 146.298 84.3167 186.056C90.844 193.408 97.7864 200.382 105.11 206.942C117.223 217.758 130.001 227.806 143.37 237.025C148.446 240.563 153.786 244.141 159.445 247.786C162.944 245.533 166.31 243.306 169.583 241.16C181.639 233.07 193.276 224.374 204.451 215.105C211.196 209.473 217.186 204.013 222.54 198.765C270.488 151.732 265.611 121.118 265.611 121.118Z" fill="white"/>
</mask>
<g mask="url(#mask0_758_29096)">
<path d="M137.81 151.348C136.485 149.427 135.995 148.314 131.184 144.868C130.854 144.656 130.588 144.358 130.414 144.006C130.241 143.654 130.166 143.262 130.199 142.871C130.232 142.48 130.37 142.105 130.6 141.787C130.829 141.469 131.141 141.219 131.502 141.065C132.969 140.764 134.482 140.77 135.946 141.083C137.41 141.395 138.794 142.007 140.01 142.88C142.555 145.04 143.986 146.67 145.444 147.89C146.474 148.801 147.819 149.277 149.194 149.215C151.288 148.857 151.99 146.697 151.845 143.914C151.528 139.79 150.636 135.731 149.194 131.854C147.432 126.845 144.357 117.767 144.357 117.767C144.357 117.767 142.064 111.617 143.827 110.637C145.589 109.656 146.901 109.06 148.545 111.962C150.188 114.864 155.608 129.575 155.608 129.575C155.608 129.575 156.655 132.318 157.185 133.895C157.715 135.472 159.611 135.472 159.955 134.346C160.3 133.219 160.048 132.291 159.955 129.442C159.862 126.593 158.921 108.821 158.921 108.821C158.921 108.821 158.537 103.295 159.279 102.341C159.538 102 159.885 101.737 160.284 101.581C160.682 101.425 161.116 101.383 161.537 101.458C161.958 101.534 162.35 101.724 162.67 102.008C162.989 102.293 163.224 102.66 163.348 103.07C164.416 106.567 165.157 110.156 165.561 113.791C166.303 118.535 167.271 129.442 167.271 129.442C167.271 129.442 167.761 132.927 167.96 133.617C168.158 134.306 169.669 135.79 170.332 133.206C170.994 130.622 172.837 110.385 172.837 110.385C172.837 110.385 173.446 106.144 175.699 106.104C177.952 106.065 178.35 107.96 178.509 110.252C178.668 112.545 177.528 136.015 177.528 136.015C177.528 136.015 177.038 138.573 178.509 138.918C179.98 139.262 180.377 138.268 182.021 135.326C183.916 131.934 186.632 126.434 188.289 123.399C188.885 122.352 189.747 120.364 191.099 119.688C191.721 119.37 193.749 119.423 193.338 122.259C192.927 125.095 187.282 136.068 185.678 140.813C184.804 143.463 184.896 146.26 184.896 151.216C184.896 156.172 184.817 163.143 183.77 167.556C182.723 171.969 179.132 175.071 179.052 182.134C178.973 189.198 180.218 254.268 180.218 254.268L181 324.585H148.81L151.063 290.606C151.063 290.606 155.038 232.467 155.038 217.346C155.038 202.225 155.038 185.394 155.038 185.394L154.972 179.497C154.972 179.497 154.707 173.613 151.116 170.008C147.524 166.403 144.688 163.196 143.164 159.724C141.636 156.776 139.844 153.973 137.81 151.348V151.348Z" fill="#F16439"/>
<path d="M83.2093 118.127C82.2419 116.682 81.884 115.847 78.2529 113.237C78.0051 113.078 77.8054 112.855 77.6751 112.591C77.5448 112.327 77.4889 112.033 77.5134 111.74C77.538 111.447 77.642 111.166 77.8143 110.928C77.9867 110.689 78.2208 110.502 78.4914 110.387C79.5941 110.153 80.7334 110.149 81.8375 110.377C82.9415 110.605 83.9863 111.06 84.9056 111.713C86.8272 113.329 87.8477 114.562 89.0006 115.476C89.7679 116.182 90.7816 116.558 91.8234 116.523C93.4005 116.258 93.9306 114.641 93.8378 112.547C93.58 109.437 92.8932 106.378 91.7969 103.456C90.4717 99.6925 88.1525 92.8542 88.1525 92.8542C88.1525 92.8542 86.4164 88.2158 87.7549 87.4737C89.0934 86.7315 90.0741 86.2942 91.3066 88.5074C92.5391 90.7205 96.6076 101.76 96.6076 101.76C96.6076 101.76 97.4027 103.827 97.7871 105.007C98.1714 106.186 99.6159 106.213 99.881 105.351C100.052 104.125 100.052 102.88 99.881 101.654C99.8014 99.5069 99.0991 86.1219 99.0991 86.1219C99.0991 86.1219 98.8075 81.9606 99.3641 81.2317C99.5591 80.973 99.8221 80.7735 100.124 80.6554C100.425 80.5374 100.754 80.5054 101.073 80.5631C101.392 80.6208 101.688 80.766 101.929 80.9823C102.17 81.1986 102.347 81.4777 102.439 81.7883C103.244 84.4256 103.803 87.1319 104.109 89.8724C104.665 93.4373 105.434 101.654 105.434 101.654C105.434 101.654 105.805 104.304 105.951 104.808C106.096 105.312 107.276 106.451 107.74 104.503C108.204 102.555 109.622 87.2749 109.622 87.2749C109.622 87.2749 110.085 84.081 111.782 84.0545C113.478 84.028 113.809 85.446 113.902 87.1689C113.995 88.8917 113.16 106.584 113.16 106.584C113.16 106.584 112.789 108.519 113.902 108.77C115.015 109.022 115.307 108.293 116.553 106.12C117.984 103.562 120.038 99.4142 121.284 97.1745C121.734 96.3794 122.384 94.8951 123.404 94.3782C123.868 94.1397 125.392 94.1662 125.087 96.3131C124.782 98.46 120.528 106.716 119.322 110.308C118.66 112.282 118.726 114.403 118.726 118.14C118.854 122.266 118.57 126.395 117.878 130.465C117.069 133.778 114.353 135.991 114.3 141.292C114.247 146.593 115.188 195.627 115.188 195.627L115.771 248.638H91.5054L93.2017 223.02C93.2017 223.02 96.2365 179.287 96.2365 167.824C96.2365 156.36 96.2365 143.744 96.2365 143.744V139.304C96.0711 136.665 95.0472 134.152 93.321 132.148C90.8749 129.943 88.838 127.323 87.3043 124.408C86.1387 122.191 84.7677 120.088 83.2093 118.127V118.127Z" fill="#F9AA2B"/>
<path d="M207 105.323C205.984 103.689 204.589 102.325 202.932 101.347C202.726 101.218 202.56 101.034 202.452 100.817C202.343 100.599 202.297 100.356 202.317 100.114C202.338 99.8719 202.424 99.6401 202.568 99.4439C202.711 99.2477 202.906 99.0947 203.13 99.0017C204.043 98.8108 204.985 98.8112 205.898 99.0028C206.81 99.1944 207.673 99.5731 208.431 100.115C210.008 101.44 210.843 102.461 211.784 103.216C212.417 103.792 213.248 104.1 214.103 104.077C215.429 103.852 215.84 102.527 215.76 100.791C215.548 98.2389 214.986 95.7284 214.09 93.3296C212.99 90.2285 211.095 84.6227 211.095 84.6227C211.095 84.6227 209.677 80.8192 210.764 80.2096C211.851 79.6 212.672 79.2422 213.679 81.0578C214.687 82.8734 218.053 91.9513 218.053 91.9513C218.053 91.9513 218.702 93.6477 219.033 94.6019C219.365 95.556 220.531 95.5825 220.743 94.8802C220.885 93.8736 220.885 92.8519 220.743 91.8453C220.677 90.0827 220.107 79.0964 220.107 79.0964C220.107 79.0964 219.868 75.6773 220.319 75.1206C220.479 74.9084 220.695 74.7448 220.942 74.6484C221.19 74.5519 221.46 74.5263 221.721 74.5745C221.983 74.6226 222.225 74.7426 222.422 74.921C222.62 75.0994 222.763 75.3291 222.837 75.5845C223.485 77.7468 223.929 79.9653 224.162 82.2107C224.613 85.1396 225.209 91.8851 225.209 91.8851C225.209 91.8851 225.514 94.0452 225.633 94.4693C225.752 94.8934 226.693 95.7946 227.104 94.2175C227.515 92.6405 228.655 80.1036 228.655 80.1036C228.655 80.1036 229.026 77.4531 230.431 77.4531C231.835 77.4531 232.087 78.5928 232.167 80.0108C232.246 81.4288 231.557 95.9138 231.557 95.9138C231.557 95.9138 231.252 97.4909 232.167 97.7029C233.081 97.915 233.32 97.3054 234.34 95.4898C235.506 93.3826 237.189 89.99 238.21 88.1479C238.581 87.4852 239.124 86.266 239.946 85.8552C240.33 85.6564 241.576 85.6829 241.271 87.4455C240.966 89.2081 237.521 95.9801 236.54 98.9222C235.983 100.539 236.05 102.288 236.05 105.35C236.149 108.739 235.919 112.13 235.36 115.475C234.711 118.125 232.485 120.007 232.445 124.38C232.405 128.754 233.161 168.988 233.161 168.988L233.651 212.483H213.772L215.177 191.465C215.177 191.465 217.668 155.51 217.668 146.154C217.668 136.798 217.668 126.395 217.668 126.395V122.75C217.528 120.585 216.686 118.524 215.27 116.879C213.266 115.064 211.597 112.911 210.34 110.518C209.387 108.688 208.269 106.949 207 105.323V105.323Z" fill="#00ABBB"/>
</g>
<path d="M307.543 197.561C307.543 194.173 306.873 190.819 305.571 187.689C304.269 184.56 302.361 181.717 299.956 179.322C297.551 176.927 294.695 175.027 291.553 173.731C288.41 172.435 285.042 171.769 281.641 171.77C273.343 171.77 265.958 176.187 261.216 182.235C256.468 176.187 249.09 171.77 240.791 171.77C233.923 171.77 227.336 174.487 222.48 179.324C217.624 184.16 214.895 190.72 214.895 197.561C214.895 197.561 213.161 208.504 228.433 225.782C231.281 228.978 234.311 232.008 237.506 234.859C242.792 239.56 248.368 243.927 254.202 247.933C256.416 249.471 258.747 251.026 261.216 252.61C262.743 251.631 264.212 250.663 265.64 249.73C270.901 246.214 275.979 242.435 280.855 238.407C283.798 235.959 286.412 233.586 288.748 231.305C309.671 210.865 307.543 197.561 307.543 197.561Z" fill="#EE4511"/>
</svg>
