<svg width="310" height="623" viewBox="0 0 310 623" fill="none" xmlns="http://www.w3.org/2000/svg">
<g style="mix-blend-mode:hard-light">
<path d="M143 76.5C147 79.5 157.5 83.1579 166.5 77C170.005 74.6019 172.784 71.1064 174.5 67C177.435 59.9763 176.5 49.5 179.015 42.5C180.157 33.3133 180.381 24.7047 177.001 17C173.023 7.93105 164.551 0.5 154.015 0.5C146.538 0.824688 137.001 6 132.259 17C129.887 22.5 128.608 31.6307 130.015 42.5C132.5 48.5 132.018 60.8261 134.5 66.5C136.861 71.8959 141.021 75.0157 142.982 76.4862L143 76.5Z" fill="#008C99"/>
</g>
<g style="mix-blend-mode:hard-light">
<path d="M166.491 77C157.491 83.1579 146.991 79.5 142.991 76.5L142.972 76.4862C141.024 75.0247 136.902 71.9339 134.534 66.5985C135.286 77.1206 135.154 85.5556 134.991 88.5C133.5 93.5 116 101 110.5 102C113.308 106.944 146.189 108 155.5 108C164.547 108 193.784 106.823 196.491 102C191.991 100.5 174.609 92.4108 174.491 88.5C174.461 87.5247 174.411 86.4237 174.356 85.2304C174.102 79.6938 173.757 72.1701 174.991 66C174.955 66.0059 174.915 66.0117 174.869 66.0173C174.751 66.3516 174.625 66.6794 174.491 67C172.775 71.1064 169.996 74.6019 166.491 77Z" fill="#008C99"/>
</g>
<g style="mix-blend-mode:hard-light">
<path d="M110.871 102.469C115.421 107.011 146.496 108 155.505 108C164.129 108 191.096 106.931 195.946 102.653C196.413 102.453 196.769 102.236 197.005 102C198.081 106.089 200.318 110.456 202.615 114.941C205.655 120.877 208.801 127.019 209.505 133C211.145 146.939 210.505 156 209.505 163.245C204.562 168.431 190.079 171 183.505 171C174.369 171 167.219 167.428 161.927 164.784C158.82 163.232 156.355 162 154.505 162C152.625 162 150.886 162.919 148.465 164.199C144.447 166.323 138.548 169.44 127.004 171C115.149 171.859 103.722 169.948 99.7773 164.784C100.003 150.5 99.2015 142.73 99.7811 136.243C99.9045 134.862 100.004 133.749 100.004 133C100.514 128.67 102.191 124.859 104.309 120.047C106.307 115.505 108.698 110.072 110.871 102.469Z" fill="#008C99"/>
</g>
<g style="mix-blend-mode:hard-light">
<path d="M99.8538 164.882C99.7393 164.921 99.6247 164.961 99.5101 165C97.7736 178.143 100.998 184.441 104.5 192.5C105.5 196.5 107 201 109 205.5C115.573 205.5 122.859 206.567 130.337 207.661C138.218 208.815 146.313 210 154.011 210C159.675 210 167.009 208.997 174.752 207.938C183.413 206.754 192.586 205.5 200.511 205.5C201.047 201.392 203.5 197.5 204.5 192C210.5 179 211.118 175.069 209.511 163.5C209.433 163.493 209.354 163.486 209.274 163.479C204.125 168.508 189.98 171 183.505 171C174.37 171 167.219 167.428 161.928 164.784C158.821 163.232 156.355 162 154.505 162C152.625 162 150.887 162.919 148.465 164.199C144.447 166.323 138.549 169.44 127.004 171C115.225 171.854 103.868 169.972 99.8538 164.882Z" fill="#008C99"/>
</g>
<g style="mix-blend-mode:hard-light">
<path d="M110.5 102C83.0002 105.5 69.5002 122 74.0002 154C69 162.5 63.5 175.5 60.5 191C56.8333 196.5 49.1 209.5 47.5 217.5C47.2889 218.555 47.0556 219.739 46.8023 221.023C44.6557 231.91 41.0779 250.055 37.5 259C37.0917 260.021 36.6885 261.026 36.2938 262.01C32.8219 270.668 30 277.704 30 279.5C35 279.5 46.5 288 47.5 291C48.5268 288.946 49.3005 287.062 50.133 285.034C51.3275 282.124 52.6428 278.92 55 274.5C56.2589 272.14 58.7559 268.591 61.7273 264.367C68.1972 255.172 76.9162 242.779 80 232.5C83.6 220.5 85.5 210.167 86 206.5L99.5 178C99.5005 177.998 99.5009 177.997 99.5014 177.995C98.9141 174.387 98.8183 170.237 99.5103 165C99.5797 164.976 99.6491 164.952 99.7185 164.928C99.7636 164.913 99.8086 164.898 99.8537 164.882C99.828 164.85 99.8026 164.817 99.7775 164.784C99.8825 158.149 99.7657 152.92 99.6686 148.572C99.5567 143.559 99.4709 139.716 99.7813 136.243C99.9047 134.862 100.004 133.749 100.004 133C100.514 128.67 102.191 124.859 104.309 120.047C106.307 115.505 108.699 110.072 110.871 102.469C110.904 102.501 110.938 102.534 110.973 102.566C110.825 102.356 110.668 102.168 110.5 102Z" fill="#008C99"/>
</g>
<g style="mix-blend-mode:hard-light">
<path d="M30.0003 279.5C29.0003 280.5 28.5003 281 26.5003 282C26.0514 282.224 25.4514 282.449 24.7003 282.73C22.1048 283.701 17.7048 285.347 11.5003 290C10.2139 290.919 9.26524 291.568 8.53015 292.07C7.26524 292.935 6.63278 293.368 6.00033 294C5.69871 294.302 5.35162 294.831 4.94532 295.45C4.00452 296.884 2.7463 298.802 1.00033 299.5C-1.49967 302.5 2.50033 306 6.50033 304C9.16721 302.667 10.0562 301.333 10.6488 300.444C10.945 300 11.1672 299.667 11.5003 299.5C11.6795 299.41 11.923 299.256 12.2135 299.073C13.5435 298.232 15.8585 296.769 17.5 298C16 301 14 306 13.5 309C13.4042 309.575 13.0331 311.012 12.5273 312.971C10.3933 321.237 5.86219 338.787 9.5 340C14 341.5 15.5 333 15.5 331C15.5 329.4 18.8333 319 20.5 314H21.5C20.5 317.167 18.4 324 18 326C17.9278 326.361 17.7408 327.077 17.4904 328.036C16.0067 333.716 12.2944 347.928 17 347.5C21.009 347.136 21.2988 343.583 21.5486 340.522C21.6415 339.384 21.7289 338.313 22 337.5C22.3588 336.424 23.168 333.545 24.0814 330.297C25.714 324.49 27.6794 317.5 28 317.5C28.4 317.5 28.8333 317.833 29 318C28 321.667 25.8 330.1 25 334.5C24.7654 335.79 24.4482 337.081 24.1454 338.313C23.1572 342.333 22.3211 345.735 25 346.5C28.0426 347.369 28.8181 344.082 29.9542 339.267C30.125 338.543 30.304 337.784 30.5 337C30.6548 336.381 30.8256 335.692 31.0086 334.955C32.598 328.547 35.1032 318.448 36 318C36.8 317.6 37 318.167 37 318.5C36.1667 321.333 34.4 327.5 34 329.5C33.8982 330.009 33.6928 330.705 33.4597 331.494C32.5479 334.581 31.2126 339.102 34 339.5C36.6276 339.875 37.2826 337.151 37.8689 334.711C38.0636 333.902 38.2507 333.123 38.5 332.5C39.5 330 43 321 44 316.5C44.2238 315.493 44.6229 314.235 45.0909 312.761C46.7138 307.647 49.1643 299.926 48 291C47.9661 290.74 47.9241 290.485 47.8743 290.236C47.7531 290.488 47.6285 290.743 47.5 291C46.5 288 35.0005 279.5 30.0003 279.5Z" fill="#008C99"/>
</g>
<g style="mix-blend-mode:hard-light">
<path d="M279.302 279.5C280.302 280.5 280.802 281 282.802 282C283.251 282.224 283.851 282.449 284.602 282.73C287.198 283.701 291.598 285.347 297.802 290C299.089 290.919 300.037 291.568 300.773 292.07C302.037 292.935 302.67 293.368 303.302 294C303.604 294.302 303.951 294.831 304.357 295.45C305.298 296.884 306.556 298.802 308.302 299.5C310.802 302.5 306.802 306 302.802 304C300.136 302.667 299.247 301.333 298.654 300.444C298.358 300 298.136 299.667 297.802 299.5C297.623 299.41 297.38 299.256 297.089 299.073C295.759 298.232 293.444 296.769 291.803 298C293.303 301 295.303 306 295.803 309C295.899 309.575 296.27 311.012 296.775 312.971C298.909 321.237 303.441 338.787 299.803 340C295.303 341.5 293.803 333 293.803 331C293.803 329.4 290.469 319 288.803 314H287.803C288.803 317.167 290.903 324 291.303 326C291.375 326.361 291.562 327.077 291.812 328.036C293.296 333.716 297.008 347.928 292.303 347.5C288.294 347.136 288.004 343.583 287.754 340.522C287.661 339.384 287.574 338.313 287.303 337.5C286.944 336.424 286.135 333.545 285.221 330.297C283.589 324.49 281.623 317.5 281.303 317.5C280.903 317.5 280.469 317.833 280.303 318C281.303 321.667 283.503 330.1 284.303 334.5C284.537 335.79 284.854 337.081 285.157 338.313C286.146 342.333 286.982 345.735 284.303 346.5C281.26 347.369 280.485 344.082 279.349 339.267C279.178 338.543 278.999 337.784 278.803 337C278.648 336.381 278.477 335.692 278.294 334.955C276.705 328.547 274.2 318.448 273.303 318C272.503 317.6 272.303 318.167 272.303 318.5C273.136 321.333 274.903 327.5 275.303 329.5C275.405 330.009 275.61 330.705 275.843 331.494C276.755 334.581 278.09 339.102 275.303 339.5C272.675 339.875 272.02 337.151 271.434 334.711C271.239 333.902 271.052 333.123 270.803 332.5C269.803 330 266.303 321 265.303 316.5C265.079 315.493 264.68 314.235 264.212 312.761C262.589 307.647 260.138 299.926 261.303 291C261.337 290.74 261.253 290.669 261.303 290.42C261.424 290.673 261.371 290.243 261.5 290.5C262.5 287.5 274.302 279.5 279.302 279.5Z" fill="#008C99"/>
</g>
<g style="mix-blend-mode:hard-light">
<path d="M198.472 101.995C225 105 238.5 119 234.972 153.995C239.973 162.495 245.473 175.495 248.473 190.995C252.139 196.495 259.873 209.495 261.473 217.495C261.684 218.55 261.917 219.734 262.17 221.018C264.317 231.905 267.895 250.05 271.473 258.995C271.881 260.016 272.284 261.021 272.679 262.005C276.151 270.663 278.973 277.699 278.973 279.495C273.973 279.495 262.473 287.995 261.473 290.995C260.446 288.941 259.672 287.057 258.84 285.029C257.645 282.119 256.33 278.915 253.973 274.495C252.714 272.135 250.217 268.586 247.245 264.362C240.775 255.167 232.056 242.774 228.973 232.495C225.373 220.495 223.473 210.162 222.973 206.495L209.473 177.995L209.471 177.991C210.059 174.383 210.154 170.232 209.462 164.995C209.393 164.971 209.324 164.947 209.254 164.924C209.209 164.908 209.164 164.893 209.119 164.877C209.145 164.845 209.17 164.812 209.195 164.779C210 160 210.403 152.848 210.5 148.5C210.612 143.487 210.31 139.974 210 136.5C209.877 135.119 208.969 133.744 208.969 132.995C208.459 128.665 206.782 124.854 204.664 120.042C202.665 115.5 199.673 112.097 197.5 104.494C197.112 103.135 197.035 101.962 197 101.994C197.23 101.79 198.153 101.953 198.472 101.995Z" fill="#008C99"/>
</g>
<g style="mix-blend-mode:hard-light">
<path d="M109 205.5C115.573 205.5 122.859 206.567 130.336 207.661C138.218 208.815 146.313 210 154.011 210C159.675 210 167.009 208.997 174.752 207.938C183.409 206.755 192.577 205.501 200.5 205.5C198.444 213.313 198.755 222.817 198.93 228.171C198.968 229.327 199 230.29 199 231C198.009 231 194.453 231.818 189.613 232.932C179.801 235.191 164.71 238.665 155 239C141.894 239.452 125.112 235.002 113.515 231.927C112.281 231.6 111.106 231.288 110 231C111.395 224.723 110.357 216.986 109.602 211.353C109.274 208.909 109 206.861 109 205.5Z" fill="#008C99"/>
</g>
<g style="mix-blend-mode:hard-light">
<path d="M109.999 231C107.999 238.2 108 246.5 110.499 254C112.5 259 119.098 265.8 127.498 267C127.498 267 130.238 271.599 131.998 273.66C136.641 279.095 143.498 282 154.998 283.5C164.998 282.5 172.462 278.66 177.498 273.66C179.978 271.198 180.998 268 182.498 267C188.498 265.5 195.998 261 198.498 254C200.995 247.01 201.498 239.5 198.998 231C197.498 231 193.848 231.957 189.611 232.932C179.799 235.191 164.708 238.665 154.998 239C141.893 239.452 125.111 235.002 113.513 231.927C112.28 231.6 111.105 231.288 109.999 231Z" fill="#008C99"/>
</g>
<g style="mix-blend-mode:hard-light">
<path d="M128.053 267.911C128.945 269.359 130.727 272.171 131.998 273.66C136.641 279.095 143.498 282 154.998 283.5C164.998 282.5 172.462 278.66 177.498 273.66C178.767 272.4 179.654 270.948 180.419 269.695C180.757 269.14 181.072 268.625 181.386 268.182C177.577 305.382 157.495 323.497 157 322.507C156.894 322.296 156.632 322.129 156.28 322.007C155.5 322.007 153.5 322.007 152.5 322.095C152.259 322.205 152.082 322.343 152 322.507C149.526 322.507 129.914 296.548 128.053 267.911Z" fill="#008C99"/>
</g>
<g style="mix-blend-mode:hard-light">
<path d="M110.04 252.518C110.182 253.015 110.335 253.509 110.499 254C112.5 259 119.098 265.8 127.498 267C127.498 267 127.71 267.355 128.053 267.911C129.913 296.527 149.496 322.468 151.994 322.507C151.925 322.594 151.856 322.679 151.789 322.761C149.932 325.058 149.054 326.144 150.5 343.5C152 361.5 146.5 389.5 145.5 394C145.081 395.883 144.575 400.219 144.018 404.991C143.244 411.621 142.372 419.093 141.5 422C140.633 424.889 140.1 427.111 139.612 429.147C139.255 430.634 138.922 432.022 138.5 433.5C134.161 436.504 128.708 430.819 123.48 425.368C120.876 422.653 118.327 419.996 116 418.5C110.4 414.9 105.333 416 103.5 417C103.234 413.54 101.488 409.796 99.6445 405.844C98.0253 402.373 96.3314 398.741 95.5 395C94.5 390.5 93 375 93 364C93 355.2 96.6667 333 98.5 323C99.1667 319.5 100.6 311.5 101 307.5C101.366 303.841 102.803 297.773 103.743 293.801C104.088 292.345 104.366 291.171 104.5 290.5C104.797 289.013 104.918 285.935 105.072 282.002C105.177 279.321 105.297 276.242 105.5 273C106 265 109 258.5 109.5 257.5C110 256.5 110.5 255 110 252.5L110.04 252.518Z" fill="#008C99"/>
<path d="M152.032 322.451C152.026 322.461 152.019 322.471 152.013 322.482C152.02 322.472 152.026 322.462 152.032 322.451Z" fill="#008C99"/>
</g>
<g style="mix-blend-mode:hard-light">
<path d="M138.5 433.5C138.518 433.437 138.536 433.375 138.553 433.313C139.425 438.817 137.472 447.056 136 450C134.5 453 126 462.5 118 462C110.917 461.557 108.146 455.628 106.215 451.498C105.965 450.963 105.729 450.458 105.5 450C106 447.5 105 427.5 103.5 417C105.333 416 110.4 414.9 116 418.5C118.327 419.996 120.876 422.653 123.48 425.368C128.708 430.819 134.161 436.504 138.5 433.5Z" fill="#008C99"/>
</g>
<g style="mix-blend-mode:hard-light">
<path d="M105.5 450.001C104.869 454.894 104.337 458.242 103.921 460.864C103.019 466.547 102.658 468.815 103 476C103.284 481.965 104.536 493.415 105.657 503.66C106.508 511.451 107.284 518.545 107.5 522C107.67 524.723 107.564 531.72 108 536.5C108.846 545.767 109.83 553.861 109.5 556.5C113.5 561 118 561.5 120.5 561C122.5 560.6 127.333 557.833 129.5 556.5C129 554.5 128.8 549.1 130 541.5C130.493 538.378 131 537 131 534.5C132.083 530.245 133.164 525.412 133.5 514C133.5 510 135 506 136.5 502C138 498 139.5 494 139.5 490C139.5 488.574 139.548 487.211 139.598 485.781C139.826 479.265 140.102 471.361 136.133 449.722C136.088 449.819 136.044 449.912 136 450C134.5 453 126 462.5 118 462C110.917 461.557 108.146 455.628 106.215 451.498C105.965 450.963 105.73 450.459 105.5 450.001Z" fill="#008C99"/>
</g>
<g style="mix-blend-mode:hard-light">
<path d="M109.5 556.5C113.5 561 118 561.5 120.5 561C122.5 560.6 127.333 557.833 129.5 556.5C129.5 556.5 129.5 556.5 129.5 556.5C129.593 556.872 129.703 557.279 129.822 557.714C130.338 559.617 131 562.058 131 564.5C131 567.5 131 568.5 130.5 573C126.667 574.533 119.307 573.422 113.828 572.594C112.16 572.342 110.667 572.117 109.5 572C109.5 570.68 109.361 570.057 109.229 569.469C109.111 568.943 109 568.444 109 567.5C109 566.56 109.086 565.28 109.187 563.783C109.329 561.674 109.5 559.132 109.5 556.5C109.5 556.5 109.5 556.5 109.5 556.5Z" fill="#008C99"/>
</g>
<g style="mix-blend-mode:hard-light">
<path d="M109.499 572C108.699 576.8 104.499 585 102.499 588.5C100.166 591.833 95.1992 599 93.9992 601C92.4992 603.5 89.9992 609 90.9992 613C91.7992 616.2 93.3325 615.667 93.9992 615C94.1661 615.333 94.7 616 95.5 616C96 617.5 97 619 99.5 618C100 619.5 102 622 104.5 619C105.3 621 107.167 621.833 108 622C110.167 622.5 115.1 621.8 117.5 615C120.3 613.4 121.667 609 122 607C122.167 604 122.9 597.1 124.5 593.5C127.5 592.5 131 590.5 131.5 583.5C132 576.5 132 576 130.5 573C130.5 573 130.5 573 130.5 573C126.667 574.533 119.307 573.422 113.828 572.594C112.16 572.342 110.666 572.117 109.499 572Z" fill="#008C99"/>
</g>
<g style="mix-blend-mode:hard-light">
<path d="M199.501 572C200.301 576.8 204.301 585 206.301 588.5C208.634 591.833 214.802 599 216.002 601C217.502 603.5 219.5 609 218.5 613C218 614.5 216.5 615 215.5 615C215.333 615.333 214.8 616 214 616C213.5 617.5 212.5 618.5 210.5 618C210 619.5 207 621.5 205 619C204.2 621 202.833 621.833 202 622C199.833 622.5 194.9 622.3 192.5 615.5C189.7 613.9 187.833 609 187.5 607C186.917 603.5 186 598 185.001 594C182.001 593 177.764 590 177.3 583.5C176.836 577 177.3 576 178.3 573C182.133 574.533 189.493 573.422 194.972 572.594C196.64 572.342 198.334 572.117 199.501 572Z" fill="#008C99"/>
</g>
<g style="mix-blend-mode:hard-light">
<path d="M203.492 450C204.124 454.893 204.366 458.52 204.782 461.142C205.685 466.825 206.342 471.315 206 478.5C205.716 484.465 205.12 494.255 204 504.5C203.148 512.291 201.716 519.044 201.5 522.5C201.33 525.222 201.436 531.72 201 536.5C200.154 545.767 199.17 556.861 199.5 559.5C195.5 563 190.703 561.778 188.203 561.278C186.203 560.878 181.667 558.833 179.5 557.5C180 555.5 180.2 549.6 179 542C178.507 538.878 178.163 536.005 177.633 533.922C177 528.5 176 525 175.203 514.278C175.203 510.278 174.5 506.5 173 502.5C171.5 498.5 169.203 494.278 169.203 490.278C169.203 488.851 169.156 487.489 169.106 486.059C168.878 479.543 169.031 470.138 173 448.5C173.43 448.5 173.456 449.912 173.5 450C176 453.5 183.417 462.443 190.5 462C197.583 461.557 200.562 455.63 202.492 451.5C202.742 450.965 203.263 450.458 203.492 450Z" fill="#008C99"/>
</g>
<g style="mix-blend-mode:hard-light">
<path d="M178 564.5C178 562.058 178.484 560.903 179 559L179.5 557.5C181.667 558.833 186.203 560.878 188.203 561.278C188.334 561.304 188.47 561.332 188.613 561.361L188.613 561.361C191.201 561.893 195.709 562.818 199.5 559.5V562C199.601 563.497 199.813 566.433 199.813 567.373C199.813 568.318 199.618 568.974 199.5 569.5C199.368 570.088 199.5 570.68 199.5 572C198.333 572.117 196.84 572.342 195.172 572.594C189.693 573.422 182.333 574.533 178.5 573C178 568.5 178 567.5 178 564.5Z" fill="#008C99"/>
</g>
<g style="mix-blend-mode:hard-light">
<path d="M185.289 425.347C180.062 430.797 174.61 436.48 170.271 433.48C170.332 439.831 171.538 446.077 173 449C174.5 452 182.769 462.479 190.769 461.979C197.852 461.536 200.623 455.607 202.554 451.477C202.804 450.942 203.271 450.459 203.5 450C203.5 444 204 426.5 206 417C204.167 416 198.369 414.879 192.769 418.479C190.442 419.975 187.893 422.632 185.289 425.347Z" fill="#008C99"/>
</g>
<g style="mix-blend-mode:hard-light">
<path d="M198.992 252.518C198.85 253.015 198.697 253.509 198.534 254C196.533 259 189.934 265.8 181.534 267C181.534 267 181.323 267.355 180.98 267.911C179.12 296.527 159.536 322.468 157.038 322.507C157.108 322.594 157.176 322.679 157.243 322.761C159.101 325.058 159.979 326.144 158.532 343.5C157.032 361.5 162.532 389.5 163.532 394C163.951 395.883 164.457 400.219 165.014 404.991C165.788 411.621 166.66 419.093 167.532 422C168.399 424.889 168.932 427.111 169.42 429.147C169.777 430.634 170.11 432.022 170.532 433.5C174.871 436.504 180.324 430.819 185.552 425.368C188.156 422.653 190.705 419.996 193.032 418.5C198.632 414.9 204.166 416 205.999 417C206.481 413.63 207.541 411.419 208.903 408.582C210.369 405.525 212.184 401.742 213.999 395C214.999 390.5 216.032 375 216.032 364C216.032 355.2 212.366 333 210.532 323C209.866 319.5 208.432 311.5 208.032 307.5C207.667 303.841 206.23 297.773 205.289 293.801C204.945 292.345 204.667 291.171 204.532 290.5C204.235 289.013 204.115 285.935 203.961 282.002C203.856 279.321 203.735 276.242 203.532 273C203.032 265 200.032 258.5 199.532 257.5C199.032 256.5 198.532 255 199.032 252.5L198.992 252.518Z" fill="#008C99"/>
<path d="M157 322.451C157.007 322.461 157.013 322.471 157.019 322.482C157.012 322.472 157.006 322.462 157 322.451Z" fill="#008C99"/>
</g>
<g style="mix-blend-mode:hard-light">
<path d="M184 45.0003C183 39.5003 179.5 40.5 179 43.0003C177.8 44.6003 176.833 54.3336 176.5 59.0003C176.667 59.5003 177.3 60.5003 178.5 60.5003C179.7 60.5003 181 58.5 181.5 57C182.5 55 184.8 49.4003 184 45.0003Z" fill="#008C99"/>
</g>
<g style="mix-blend-mode:hard-light">
<path d="M125.166 45.0003C126.166 39.5003 129.666 40.5 130.166 43.0003C131.366 44.6003 132.333 54.3336 132.666 59.0003C132.499 59.5003 131.866 60.5003 130.666 60.5003C129.466 60.5003 128.166 58.5 127.666 57C126.666 55 124.366 49.4003 125.166 45.0003Z" fill="#008C99"/>
</g>
<g style="mix-blend-mode:hard-light">
<path d="M151.999 34.5C151.999 31.5 152.999 30 154.499 30C156.499 30 156.999 32.5 156.999 34.5C156.999 37.5002 156.999 41.9286 158.499 43C161.999 45.5 161 49.5 159.499 50.5C157.5 52 152.5 52 150 50.5C147.335 48.5 148.998 44 151 42.9999C152.498 41 151.999 35 151.999 34.5Z" fill="#008C99"/>
</g>
<g style="mix-blend-mode:hard-light">
<path d="M135.007 37.0014C133.824 30.5004 150.051 26.9875 152.007 35.5014C153.5 42 136.007 42.5012 135.007 37.0014Z" fill="#008C99"/>
</g>
<g style="mix-blend-mode:hard-light">
<path d="M174.091 37.0014C175.274 30.5004 159.047 26.9875 157.091 35.5014C155.598 42 173.091 42.5012 174.091 37.0014Z" fill="#008C99"/>
</g>
<g style="mix-blend-mode:hard-light">
<path d="M165.502 59.0004C166.336 61.5 167.502 75 166.5 76.5C161 82.5 147.002 80 143.502 76.5C141.502 74.5 143.048 61.477 143.502 59.5002C144.514 55.0958 149.502 52.5003 154.502 52.5005C159.502 52.5007 164.002 54.5002 165.502 59.0004Z" fill="#008C99"/>
</g>
</svg>
