<svg width="283" height="604" viewBox="0 0 283 604" fill="none" xmlns="http://www.w3.org/2000/svg">
<g style="mix-blend-mode:hard-light">
<path d="M170.482 39.1692C167.984 38.6695 167.484 41.6678 166.984 42.1674C166.984 45.1657 164.486 55.6589 163.986 59.6565C164.486 60.1562 165.186 60.6558 165.985 60.6558C167.484 60.6558 167.984 58.324 168.484 57.158C168.983 55.6589 171.482 49.6627 171.981 46.6645C172.32 44.6323 172.981 39.6689 170.482 39.1692Z" fill="#008C99"/>
</g>
<g style="mix-blend-mode:hard-light">
<path d="M113.858 39.2171C116.406 39.1604 116.017 42.1672 117.016 41.6675C118.516 45.665 120.015 54.6594 120.015 59.6563C119.515 60.156 118.815 60.6557 118.016 60.6557C116.517 60.6557 116.017 58.3238 115.517 57.1578C115.018 55.6587 112.18 50.1141 112.02 46.6643C111.924 44.6063 111.311 39.2738 113.858 39.2171Z" fill="#008C99"/>
</g>
<g style="mix-blend-mode:hard-light">
<path d="M166.472 19.1814C162.475 6.18946 149.483 0.692871 141.488 0.692871C123.509 2.19194 117.013 16.683 116.499 24.678C116.266 28.2904 117.003 38.1696 117.003 42.1672C117.836 44.1659 119.39 50.4736 120.001 59.6563C120.5 67.1517 121.499 70.1498 121.999 70.6495C124.164 65.1529 128.506 54.6594 141.488 54.6594C156.989 54.6594 161.475 67.1517 161.975 70.1498C162.774 69.3503 163.641 62.821 163.974 59.6563C164.473 55.1591 166.972 45.665 166.972 42.1672C166.572 40.9679 167.138 36.6706 167.471 34.6718C167.805 31.6737 168.071 24.3782 166.472 19.1814Z" fill="#008C99"/>
</g>
<g style="mix-blend-mode:hard-light">
<path d="M122.013 70.6208C124.182 65.1165 128.532 54.6597 141.49 54.6597C156.991 54.6597 161.478 67.1519 161.978 70.1501C161.981 70.1466 161.985 70.1429 161.988 70.1392V70.1501C161.752 72.7481 161.851 76.9371 161.928 80.2236C161.96 81.5724 161.988 82.7693 161.988 83.6417C164.171 86.1884 166.884 87.6755 170.126 89.4531C171.337 90.117 172.622 90.8214 173.981 91.6367C177.625 93.8231 184.641 97.1333 187.972 98.1327C177.312 96.134 153.293 92.0365 142.5 91.6367C131.707 91.237 106.689 95.8008 95.5293 98.1327C98.3609 96.9668 105.623 93.8354 112.019 90.6374C118.415 87.4393 121.347 84.6411 122.013 83.6417V70.6208Z" fill="#008C99"/>
</g>
<g style="mix-blend-mode:hard-light">
<path d="M95.5392 98.1308L95.5295 98.1329C92.0317 98.9657 84.1366 101.031 80.5388 102.63C78.0404 113.623 81.0385 137.608 82.0379 142.605C83.0373 147.602 85.5354 166.59 84.536 178.083C94.8024 174.946 105.394 177.994 116.497 181.189C124.849 183.592 133.491 186.078 142.5 186.078C153.493 186.078 162.735 183.56 171.25 181.24C180.925 178.604 189.662 176.223 198.965 178.083C198.965 173.371 199.771 167.247 200.614 160.843C201.649 152.989 202.738 144.715 202.463 138.108C205.261 129.713 203.296 110.625 201.963 102.13L187.472 98.1329L185.825 97.7353C174.364 95.6368 152.619 92.0117 142.5 91.6369C131.71 91.2373 106.704 95.7983 95.5392 98.1308Z" fill="#008C99"/>
</g>
<g style="mix-blend-mode:hard-light">
<path d="M200.613 160.843C199.822 166.85 199.063 172.612 198.973 177.193L210.949 204.566C210.987 204.849 211.031 205.181 211.081 205.558C211.678 210.058 213.125 220.983 216.445 232.049C219.527 242.322 225.969 255.339 232.435 264.529C235.405 268.75 237.673 272.664 238.931 275.022C240.571 278.097 241.286 280.082 241.972 281.985C242.272 282.817 242.566 283.633 242.929 284.517C243.761 286.543 244.428 289.014 244.928 291.512C249.034 292.371 252.596 289.457 255.829 286.811C258.239 284.84 260.466 283.017 262.6 283.017C262.6 282.199 261.523 278.487 260.258 274.124C258.749 268.922 256.971 262.793 256.428 259.532C256.088 257.49 255.841 255.551 255.584 253.528C255.275 251.095 254.951 248.541 254.429 245.541C253.8 241.921 253.351 238.967 252.943 236.286C252.057 230.454 251.365 225.903 249.432 218.557C247.623 211.682 243.304 202.478 240.979 197.522C240.093 195.635 239.497 194.364 239.439 194.073C239.304 193.402 239.177 192.73 239.048 192.056C238.318 188.211 237.567 184.258 235.441 179.582C232.443 164.091 229.909 158.595 224.912 150.1C224.912 142.605 226.648 134.91 223.45 122.117C220.252 109.325 207.792 103.462 201.962 102.13C203.294 110.625 205.26 129.713 202.461 138.108C202.737 144.714 201.647 152.989 200.613 160.843Z" fill="#008C99"/>
</g>
<g style="mix-blend-mode:hard-light">
<path d="M84.5373 160.594C85.3284 166.601 84.4447 173.002 84.5354 177.583L73.0426 204.566C73.004 204.849 72.5927 206.688 72.5429 207.065C71.9464 211.566 70.8659 220.983 67.546 232.049C64.4641 242.322 58.0218 254.839 51.5559 264.029C48.5863 268.25 46.318 272.164 45.0599 274.523C43.4204 277.597 42.4325 279.615 41.7465 281.519C41.4469 282.35 40.9256 283.633 40.5627 284.517C39.7307 286.543 39.0636 289.014 38.5639 291.512C34.4578 292.371 32.0795 289.457 28.8459 286.811C26.4362 284.84 22.7087 282.518 20.575 282.518C20.575 281.699 22.3076 278.387 23.5732 274.023C25.0819 268.821 26.5275 262.793 27.071 259.532C27.4113 257.49 28.3131 255.059 28.5701 253.036C28.879 250.604 29.0476 248.542 29.5694 245.541C30.1991 241.921 30.661 238.729 31.0685 236.047C31.9548 230.215 32.6332 225.904 34.5663 218.558C36.3756 211.683 40.7358 202.526 43.0611 197.571C43.9468 195.683 44.502 194.364 44.5601 194.073C44.6943 193.402 44.9317 192.748 45.0598 192.074C45.7906 188.229 46.4321 183.758 48.5577 179.082C51.5558 163.592 53.5544 160.094 58.5515 151.599C58.5515 144.104 57.3522 135.409 60.5502 122.617C63.7483 109.825 76.2088 103.462 82.0389 102.13C80.7064 110.625 79.4156 129.713 82.2139 138.108C81.9386 144.714 84.0377 151.599 84.5373 160.594Z" fill="#008C99"/>
</g>
<g style="mix-blend-mode:hard-light">
<path d="M20.576 282.518C18.0776 283.017 15.5791 284.017 13.5803 285.516C13.0807 285.89 12.5497 286.265 12.0188 286.64C10.426 287.764 8.83329 288.889 8.08375 290.013C7.52255 290.855 6.96134 291.224 6.31165 291.651C5.80439 291.985 5.24318 292.354 4.58592 293.011C3.63555 293.961 3.48853 294.711 3.3809 295.26C3.31876 295.576 3.26975 295.826 3.08685 296.009C2.93556 296.161 2.73845 296.266 2.52328 296.381C2.02779 296.646 1.43649 296.963 1.08809 298.008C0.5884 299.507 0.5884 302.005 4.08623 302.005C6.8845 302.005 8.91634 299.34 9.58248 298.008L10.5819 297.508C9.91583 299.174 8.48378 302.905 8.08375 304.504C7.85071 305.435 7.50922 307.886 7.1604 310.39C6.76074 313.258 6.35146 316.196 6.08465 316.996C5.58496 318.495 5.08527 319.994 5.08527 321.993C5.08527 322.448 4.92975 323.448 4.73089 324.726C4.05656 329.06 2.88375 336.598 5.58496 336.984C9.08279 337.483 10.5819 332.986 10.5819 328.489C10.7352 328.029 10.9826 326.816 11.2952 325.284C12.0015 321.822 13.0406 316.729 14.0797 314.997C13.6026 317.383 13.1255 319.427 12.7027 321.238C12.24 323.22 11.8424 324.924 11.5812 326.49C11.5812 328.455 11.3092 330.791 11.0397 333.105C10.4179 338.444 9.80915 343.672 12.5806 343.979C16.5537 344.421 17.0778 337.483 17.0778 334.985C17.5775 332.986 18.5769 327.989 18.5769 324.991C18.8892 324.054 19.2015 322.873 19.5138 321.693C20.2009 319.095 20.888 316.497 21.575 316.497C21.575 318.027 20.825 320.683 20.2439 322.74C19.8763 324.042 19.5763 325.104 19.5763 325.491C19.4097 327.656 18.9767 332.387 18.5769 333.986C18.5615 334.047 18.5446 334.114 18.5265 334.186C17.9589 336.441 16.1866 343.48 19.5763 343.48C22.8301 343.48 23.4895 340.453 24.3701 336.41C24.4362 336.107 24.5035 335.798 24.5732 335.485C24.8212 334.369 25.0692 332.791 25.3477 331.019C26.1917 325.651 27.316 318.499 29.5701 316.996C29.4639 317.74 29.1544 319.048 28.7761 320.647C27.3749 326.57 25.0295 336.484 28.5707 336.484C30.8795 336.484 31.7067 332.928 32.1932 330.837C32.3385 330.212 32.4533 329.718 32.5682 329.488C32.7373 329.15 33.0207 327.897 33.3798 326.31C34.0822 323.204 35.0741 318.818 36.0661 317.496C37.5651 315.497 39.5639 303.005 39.5639 299.007C39.5639 294.979 39.0642 293.011 38.5645 291.512C38.5728 291.487 38.578 291.461 38.5805 291.433C38.5751 291.459 38.5698 291.486 38.5645 291.512C35.1194 292.233 32.8906 290.297 30.3524 288.092C29.8654 287.669 29.3671 287.237 28.8465 286.811C26.437 284.839 22.7097 282.518 20.576 282.518Z" fill="#008C99"/>
</g>
<g style="mix-blend-mode:hard-light">
<path d="M262.926 282.518C265.424 283.017 267.923 284.017 269.922 285.516C270.421 285.89 270.952 286.265 271.483 286.64C273.076 287.764 274.669 288.889 275.418 290.013C275.979 290.855 276.541 291.224 277.19 291.651C277.698 291.985 278.259 292.354 278.916 293.011C279.866 293.961 280.013 294.711 280.121 295.26C280.183 295.576 280.232 295.826 280.415 296.009C280.566 296.161 280.763 296.266 280.979 296.381C281.474 296.646 282.065 296.963 282.414 298.008C282.914 299.507 282.914 302.005 279.416 302.005C276.617 302.005 274.586 299.34 273.919 298.008L272.92 297.508C273.586 299.174 275.018 302.905 275.418 304.504C275.651 305.435 275.993 307.886 276.342 310.39C276.741 313.258 277.15 316.196 277.417 316.996C277.917 318.495 278.417 319.994 278.417 321.993C278.417 322.448 278.572 323.448 278.771 324.726C279.445 329.06 280.618 336.598 277.917 336.984C274.419 337.483 272.92 332.986 272.92 328.489C272.767 328.029 272.519 326.816 272.207 325.284C271.5 321.822 270.461 316.729 269.422 314.997C269.899 317.383 270.376 319.427 270.799 321.238C271.262 323.22 271.66 324.924 271.921 326.49C271.921 328.455 272.193 330.791 272.462 333.105C273.084 338.444 273.693 343.672 270.921 343.979C266.948 344.421 266.424 337.483 266.424 334.985C265.924 332.986 264.925 327.989 264.925 324.991C264.613 324.054 264.3 322.873 263.988 321.693C263.301 319.095 262.614 316.497 261.927 316.497C261.927 318.027 262.677 320.683 263.258 322.74C263.626 324.042 263.926 325.104 263.926 325.491C264.092 327.656 264.525 332.387 264.925 333.986C264.94 334.047 264.957 334.114 264.975 334.186C265.543 336.441 267.315 343.48 263.926 343.48C260.672 343.48 260.012 340.453 259.132 336.41C259.066 336.107 258.998 335.798 258.929 335.485C258.681 334.369 258.433 332.791 258.154 331.019C257.31 325.651 256.186 318.499 253.932 316.996C254.038 317.74 254.348 319.048 254.726 320.647C256.127 326.57 258.472 336.484 254.931 336.484C252.622 336.484 251.795 332.928 251.309 330.837C251.163 330.212 251.049 329.718 250.934 329.488C250.765 329.15 250.481 327.897 250.122 326.31C249.42 323.204 248.428 318.818 247.436 317.496C245.937 315.497 243.938 303.005 243.938 299.007C243.938 294.979 244.438 293.011 244.937 291.512C244.929 291.487 244.924 291.461 244.922 291.433C244.927 291.459 244.932 291.486 244.937 291.512C248.383 292.233 250.611 290.297 253.15 288.092C253.637 287.669 254.135 287.237 254.655 286.811C257.065 284.839 260.792 282.518 262.926 282.518Z" fill="#008C99"/>
</g>
<g style="mix-blend-mode:hard-light">
<path d="M84.5352 178.084C94.8015 174.947 105.393 177.995 116.497 181.189C124.849 183.593 133.49 186.079 142.499 186.079C153.493 186.079 162.734 183.561 171.249 181.241C180.924 178.604 189.662 176.223 198.964 178.084C198.964 178.084 198.964 178.084 198.964 178.084C199.424 181.759 196.082 188.389 193.599 193.318C193.381 193.75 193.17 194.17 192.968 194.573C192.134 198.742 191.609 199.82 190.706 201.674C189.985 203.154 189.024 205.129 187.471 209.564C184.683 217.532 185.07 223.276 185.342 227.304C185.411 228.328 185.473 229.241 185.473 230.051C181.475 231.55 166.984 232.55 159.988 231.55C156.814 231.097 153.743 230.232 150.868 229.422C147.407 228.448 144.23 227.553 141.5 227.553C138.355 227.553 134.22 228.543 129.594 229.65C126.87 230.302 123.976 230.995 121.013 231.55C114.617 232.75 103.357 231.051 98.5265 230.051C98.693 225.054 98.4265 213.761 96.028 208.565C93.0299 202.069 91.0311 195.073 90.5314 193.074C90.3787 192.463 89.8522 191.525 89.1662 190.303C87.6087 187.528 85.229 183.287 84.5352 178.084Z" fill="#008C99"/>
</g>
<g style="mix-blend-mode:hard-light">
<path d="M98.5277 230.051C98.5277 232.165 97.9754 235.163 97.4421 238.059C96.8411 241.321 96.2642 244.452 96.529 246.041C96.7581 247.416 96.6204 249.672 97.0289 251.537C97.5112 253.739 97.5286 255.494 97.5286 256.035C98.1866 256.035 100.25 255.982 101.578 255.915C107.312 255.63 117.956 255.099 122.013 257.534C123.306 258.309 124.766 259.419 126.359 260.63C130.922 264.1 136.574 268.398 142.501 268.027C146.988 267.747 151.16 264.476 154.753 261.66C157.561 259.458 160.015 257.534 161.989 257.534C162.787 257.534 163.979 257.565 165.41 257.603C172.045 257.778 183.83 258.09 185.474 256.035C187.473 253.536 187.473 246.041 186.973 243.542C186.473 241.044 185.474 233.049 185.474 230.051C181.477 231.55 166.986 232.549 159.99 231.55C156.816 231.096 153.745 230.231 150.87 229.422C147.408 228.447 144.231 227.552 141.501 227.552C138.356 227.552 134.222 228.542 129.595 229.649C126.871 230.301 123.977 230.994 121.014 231.55C114.618 232.749 103.358 231.05 98.5277 230.051Z" fill="#008C99"/>
</g>
<g style="mix-blend-mode:hard-light">
<path d="M142.004 268.047V323.493H141.005C140.505 325.325 138.806 329.489 136.008 331.488C111.023 341.981 99.1067 330.988 92.1111 321.994C90.5724 320.015 89.134 318.102 88.5371 315.498C88.5357 308.502 91.4376 300.033 92.1111 294.994C92.3486 293.217 92.5346 291.826 92.5346 291.013C92.5346 287.015 92.5346 278.021 93.534 271.525C94.0518 268.159 94.972 265.33 95.8082 262.759C96.5858 260.368 97.2907 258.201 97.5315 256.034C98.1895 256.034 100.253 255.981 101.581 255.915C107.314 255.63 117.959 255.099 122.016 257.534C123.309 258.309 124.769 259.419 126.362 260.63C130.796 264.002 136.26 268.156 142.004 268.047Z" fill="#008C99"/>
</g>
<g style="mix-blend-mode:hard-light">
<path d="M88.5398 314.993C88.5375 314.994 88.5351 314.996 88.5327 314.998C88.1501 317.23 87.7511 319.52 87.3473 321.837C84.5876 337.674 81.6009 354.814 82.0368 363.968C82.5365 374.461 83.5353 389.952 85.534 396.947C86.0729 398.833 86.6844 400.683 87.3098 402.575C89.0041 407.7 90.8003 413.133 91.5303 420.433C92.5297 430.426 93.0294 443.418 93.0294 445.417C97.0269 446.916 119.013 451.913 123.51 451.413C123.825 450.155 124.14 449.045 124.439 447.99C125.09 445.694 125.667 443.659 126.009 440.92C126.178 439.565 126.233 438.382 126.289 437.158C126.399 434.77 126.517 432.222 127.508 427.928C129.007 421.432 131.506 410.439 133.504 390.951C136.502 374.961 138.001 365.467 138.001 350.976C138.001 344.139 137.557 340.528 137.244 337.991C136.894 335.15 136.71 333.656 137.502 330.488C137.535 330.356 137.551 330.215 137.55 330.067C137.079 330.603 136.564 331.089 136.006 331.488C111.021 341.981 99.1046 330.988 92.1089 321.994C90.5703 320.016 89.1318 318.102 88.535 315.498C88.535 315.33 88.5366 315.162 88.5398 314.993Z" fill="#008C99"/>
</g>
<g style="mix-blend-mode:hard-light">
<path d="M93.0294 445.417C97.0293 446.917 119.013 451.913 123.51 451.413C123.29 454.271 123.651 456.451 124.209 459.826C124.919 464.124 125.949 470.359 126.509 482.394C128.008 499.883 126.009 505.88 123.51 511.376C121.512 515.774 120.679 521.203 120.512 523.369C120.346 526.367 119.613 534.562 118.014 543.356C116.415 552.151 116.348 557.348 116.515 558.847C112.351 560.679 102.524 564.144 96.5272 563.344C96.5272 561.125 96.2015 557.685 95.813 553.581C95.2392 547.521 94.5285 540.014 94.5285 532.863C94.5285 525.425 92.7986 509.146 91.4846 496.78C90.6799 489.208 90.0312 483.103 90.0312 481.395C90.0312 479.392 90.5268 474.416 91.1207 468.452C91.8602 461.026 92.7522 452.069 93.0294 445.417Z" fill="#008C99"/>
</g>
<g style="mix-blend-mode:hard-light">
<path d="M96.5263 563.344C96.5263 565.212 96.3539 567.252 96.1881 569.215C95.9548 571.976 95.7345 574.583 96.0266 576.336C96.4264 578.735 97.193 581.333 97.5263 582.333C100.691 585.164 109.219 589.628 118.014 584.831C117.732 581.733 117.609 580.698 117.645 579.67C117.673 578.873 117.796 578.08 118.014 576.336C118.513 572.339 118.513 568.341 117.514 564.843C116.714 562.045 116.515 559.68 116.515 558.847C116.515 558.847 116.515 558.847 116.515 558.847C112.35 560.679 102.523 564.144 96.5263 563.344C96.5263 563.345 96.5263 563.344 96.5263 563.344Z" fill="#008C99"/>
</g>
<g style="mix-blend-mode:hard-light">
<path d="M96.5263 563.344C96.5263 565.212 96.3539 567.252 96.1881 569.215C95.9548 571.976 95.7345 574.583 96.0266 576.336C96.4264 578.735 97.193 581.333 97.5263 582.333C100.691 585.164 109.219 589.628 118.014 584.831C117.732 581.733 117.609 580.698 117.645 579.67C117.673 578.873 117.796 578.08 118.014 576.336C118.513 572.339 118.513 568.341 117.514 564.843C116.714 562.045 116.515 559.68 116.515 558.847C116.515 558.847 116.515 558.847 116.515 558.847C112.35 560.679 102.523 564.144 96.5263 563.344C96.5263 563.345 96.5263 563.344 96.5263 563.344Z" fill="#008C99"/>
</g>
<g style="mix-blend-mode:hard-light">
<path d="M187.474 563.344C187.474 565.212 187.646 567.252 187.812 569.214C188.045 571.976 188.266 574.583 187.973 576.336C187.574 578.735 187.138 581.333 186.805 582.333C183.64 585.164 175.112 589.628 166.317 584.831C166.599 581.733 166.222 580.698 166.186 579.67C166.159 578.873 166.036 578.08 165.818 576.336C165.318 572.339 165.318 568.341 166.317 564.843C167.117 562.045 167.317 559.68 167.317 558.847C171.481 560.679 181.477 564.144 187.474 563.344Z" fill="#008C99"/>
</g>
<g style="mix-blend-mode:hard-light">
<path d="M95.9597 575.809C95.9788 575.992 96.0021 576.168 96.0301 576.336C96.4298 578.734 97.1964 581.333 97.5298 582.332C100.694 585.164 109.223 589.628 118.017 584.831C118.017 584.831 118.017 584.831 118.017 584.831C119.016 592.826 119.517 599.322 116.519 601.82C113.521 604.319 109.023 604.818 100.529 600.821C99.466 600.289 98.6858 599.193 98.038 598.283C97.4672 597.481 96.9991 596.823 96.531 596.823C95.7315 596.823 92.5335 595.824 91.0345 595.324C88.3694 594.824 83.0394 592.626 83.0394 587.829C81.4404 584.231 84.0388 582.665 85.5379 582.332C85.3711 581.666 85.7371 580.233 88.5353 579.834C89.035 577.335 91.0338 576.836 93.5322 576.836C93.5322 575.281 95.107 575.49 95.9597 575.809Z" fill="#008C99"/>
</g>
<g style="mix-blend-mode:hard-light">
<path d="M187.818 575.809C187.799 575.992 187.775 576.168 187.747 576.336C187.348 578.734 186.581 581.333 186.248 582.332C183.083 585.164 175.279 589.628 166.484 584.831C165.485 592.826 164.261 599.322 167.259 601.82C170.257 604.319 174.754 604.818 183.249 600.821C184.311 600.289 185.824 598.733 186.472 597.823C186.972 597.323 187.471 596.823 187.971 596.324C188.771 596.324 191.244 595.824 192.743 595.324C195.408 594.824 200.738 592.626 200.738 587.829C202.337 584.231 199.739 582.665 198.239 582.332C198.406 581.666 198.04 580.233 195.242 579.834C194.742 577.335 192.744 576.836 190.245 576.836C190.245 575.281 188.67 575.49 187.818 575.809Z" fill="#008C99"/>
</g>
<g style="mix-blend-mode:hard-light">
<path d="M190.986 445.417C186.986 446.917 165.003 451.913 160.506 451.413C160.726 454.271 160.365 456.451 159.807 459.826C159.097 464.124 158.067 470.359 157.507 482.394C156.008 499.883 158.007 505.88 160.505 511.376C162.504 515.774 163.337 521.203 163.503 523.369C163.67 526.367 164.403 534.562 166.002 543.356C167.601 552.151 167.667 557.348 167.501 558.847C171.665 560.679 181.492 564.144 187.488 563.344C187.488 561.125 187.814 557.685 188.203 553.581C188.776 547.521 189.487 540.014 189.487 532.863C189.487 525.425 191.217 509.146 192.531 496.78C193.336 489.208 193.984 483.103 193.984 481.395C193.984 479.392 193.489 474.416 192.895 468.452C192.155 461.026 191.263 452.069 190.986 445.417Z" fill="#008C99"/>
</g>
<g style="mix-blend-mode:hard-light">
<path d="M195.462 314.993C195.464 314.994 195.467 314.996 195.469 314.998C195.852 317.23 196.251 319.52 196.655 321.837C199.414 337.674 202.401 354.814 201.965 363.968C201.465 374.461 200.467 389.952 198.468 396.947C197.929 398.833 197.318 400.683 196.692 402.575C194.998 407.7 193.202 413.133 192.472 420.433C191.472 430.426 190.973 443.418 190.973 445.417C186.975 446.916 164.989 451.913 160.491 451.413C160.177 450.155 159.862 449.045 159.563 447.99C158.912 445.694 158.335 443.659 157.993 440.92C157.824 439.565 157.769 438.382 157.713 437.158C157.602 434.77 157.485 432.222 156.494 427.928C154.995 421.432 152.496 410.439 150.498 390.951C147.5 374.961 146 365.467 146 350.976C146 344.139 146.445 340.528 146.758 337.991C147.108 335.15 147.292 333.656 146.5 330.488C146.467 330.356 146.451 330.215 146.452 330.067C146.923 330.603 147.438 331.089 147.996 331.488C172.981 341.981 184.897 330.988 191.893 321.994C193.432 320.016 194.87 318.102 195.467 315.498C195.467 315.33 195.465 315.162 195.462 314.993Z" fill="#008C99"/>
</g>
<g style="mix-blend-mode:hard-light">
<path d="M141.996 268.027V323.472H142.995C143.495 325.304 145.194 329.469 147.992 331.467C172.977 341.961 185.973 331.987 192.968 322.993C194.372 321.188 195.465 318.496 195.465 316.497C194.965 310.001 192.664 300.717 191.968 295.51C191.73 293.733 191.468 291.326 191.468 290.513C191.468 286.516 190.968 278.021 189.969 271.525C189.451 268.159 188.806 265.101 187.97 262.53C187.192 260.14 185.71 258.201 185.469 256.034C184.811 256.034 182.747 255.981 181.419 255.915C175.686 255.63 165.044 255.099 160.987 257.533C159.694 258.309 157.582 259.321 155.99 260.532C151.555 263.904 147.495 267.527 141.996 268.027Z" fill="#008C99"/>
</g>
<g style="mix-blend-mode:hard-light">
<path d="M140.5 323.493C140 320.661 139.601 312.999 141.999 305.004C144.398 312.999 143.998 320.661 143.498 323.493H140.5Z" fill="#008C99"/>
</g>
</svg>
