<svg width="138" height="138" viewBox="0 0 138 138" fill="none" xmlns="http://www.w3.org/2000/svg">
<path d="M138 69C138 107.108 107.108 138 69 138C30.8924 138 0 107.108 0 69C0 30.8924 30.8924 0 69 0C107.108 0 138 30.8924 138 69Z" fill="#970A0A"/>
<path d="M100.9 36.6148C98.5567 34.2716 94.7577 34.2716 92.4146 36.6148L68.9997 60.0296L45.5853 36.6151C43.2422 34.272 39.4432 34.272 37.1 36.6151L36.6154 37.0998C34.2722 39.4429 34.2722 43.2419 36.6154 45.585L60.0298 68.9995L36.6154 92.4139C34.2723 94.757 34.2723 98.556 36.6154 100.899L37.1001 101.384C39.4432 103.727 43.2422 103.727 45.5854 101.384L68.9997 77.9694L92.4145 101.384C94.7576 103.727 98.5566 103.727 100.9 101.384L101.384 100.9C103.728 98.5564 103.728 94.7574 101.384 92.4143L77.9697 68.9995L101.384 45.5847C103.728 43.2416 103.728 39.4426 101.384 37.0994L100.9 36.6148Z" fill="white"/>
</svg>
