<svg width="63" height="64" viewBox="0 0 63 64" fill="none" xmlns="http://www.w3.org/2000/svg">
<path d="M62.718 32.7113C62.718 30.5336 62.5402 28.3559 62.1847 26.2227H32.0078V38.5334H49.2962C48.5851 42.4888 46.274 46.0443 42.8964 48.2664V56.2662H53.2072C59.2514 50.7108 62.718 42.4888 62.718 32.7113Z" fill="#4285F4"/>
<path d="M32.0105 64.0007C40.6325 64.0007 47.9211 61.1563 53.2099 56.2675L42.8991 48.2678C40.0103 50.2233 36.3215 51.3344 32.0105 51.3344C23.6552 51.3344 16.5888 45.6901 14.0555 38.1348H3.43359V46.4012C8.85565 57.1564 19.922 64.0007 32.0105 64.0007Z" fill="#34A853"/>
<path d="M14.0551 38.1348C12.7218 34.1793 12.7218 29.8683 14.0551 25.8685V17.6465H3.4332C1.17622 22.0951 0 27.0132 0 32.0016C0 36.99 1.17622 41.9081 3.4332 46.3567L14.0551 38.1348Z" fill="#FBBC04"/>
<path d="M32.0105 12.6682C36.5882 12.5793 40.988 14.3126 44.2768 17.4681L53.3876 8.35724C47.61 2.89074 39.9658 -0.0869521 32.0105 0.00193407C19.922 0.00193407 8.85565 6.84617 3.43359 17.6458L14.0555 25.9123C16.5888 18.3125 23.6552 12.6682 32.0105 12.6682Z" fill="#EA4335"/>
</svg>
