<svg id="Layer_1" data-name="Layer 1" xmlns="http://www.w3.org/2000/svg" viewBox="0 0 128 128"><defs><style>.cls-1{fill:none;}.cls-2{fill:#38c9df;}.cls-2,.cls-3{fill-rule:evenodd;}.cls-3{fill:#f16439;}</style></defs><rect class="cls-1" width="128" height="128"/><path class="cls-2" d="M85.26,75H64.39L80,90.87a6.9,6.9,0,0,0,9.77,0l.73-.72a6.9,6.9,0,0,0,0-9.77Z"/><path class="cls-3" d="M20,34.5H84.48a6.91,6.91,0,0,1,6.91,6.91v1a6.91,6.91,0,0,1-6.91,6.91H20a6.91,6.91,0,0,1-6.91-6.91v-1A6.91,6.91,0,0,1,20,34.5Z"/><path class="cls-2" d="M98,73c5.66,7.65,5.83,16.6-1.42,23.84-8.29,8.3-19.19,7.24-27.45-1L48.35,75H33.87l31.05,31.05A28.66,28.66,0,0,0,107,67.29,28.85,28.85,0,0,1,98,73Z"/><path class="cls-3" d="M86.27,70.85H29.68L19.2,60.61H82c11.68,0,20.13-7,20.13-18.68S93.69,23.75,82,23.75H19.2V13.51H86.27a28.67,28.67,0,1,1,0,57.34Z"/></svg>