<svg width="103" height="60" viewBox="0 0 103 60" fill="none" xmlns="http://www.w3.org/2000/svg">
<g clip-path="url(#clip0_37_9088)">
<path fill-rule="evenodd" clip-rule="evenodd" d="M32.643 33.4375H26.1211L30.9992 38.3969C31.1995 38.5977 31.4374 38.757 31.6994 38.8657C31.9614 38.9743 32.2422 39.0303 32.5258 39.0303C32.8094 39.0303 33.0902 38.9743 33.3522 38.8657C33.6141 38.757 33.852 38.5977 34.0523 38.3969L34.2805 38.1719C34.4813 37.9716 34.6406 37.7336 34.7492 37.4717C34.8579 37.2097 34.9139 36.9289 34.9139 36.6453C34.9139 36.3617 34.8579 36.0809 34.7492 35.8189C34.6406 35.557 34.4813 35.319 34.2805 35.1187L32.643 33.4375Z" fill="#38C9DF"/>
<path fill-rule="evenodd" clip-rule="evenodd" d="M12.2492 20.7813H32.3992C32.9719 20.7812 33.5212 21.0088 33.9261 21.4137C34.3311 21.8187 34.5586 22.3679 34.5586 22.9406V23.2531C34.5586 23.8258 34.3311 24.3751 33.9261 24.78C33.5212 25.185 32.9719 25.4125 32.3992 25.4125H12.2492C11.6765 25.4125 11.1273 25.185 10.7223 24.78C10.3173 24.3751 10.0898 23.8258 10.0898 23.2531V22.9406C10.0898 22.3679 10.3173 21.8187 10.7223 21.4137C11.1273 21.0088 11.6765 20.7813 12.2492 20.7813Z" fill="#F16439"/>
<path fill-rule="evenodd" clip-rule="evenodd" d="M36.6266 32.8127C38.3953 35.2033 38.4484 38.0002 36.1828 40.2627C33.5922 42.8564 30.1859 42.5252 27.6047 39.9502L21.1109 33.4377H16.5859L26.2891 43.1408C27.9341 44.719 30.119 45.6106 32.3985 45.6337C34.678 45.6569 36.8806 44.81 38.5573 43.2655C40.2341 41.7211 41.2588 39.5953 41.4226 37.3216C41.5864 35.0478 40.8771 32.7972 39.4391 31.0283C38.6205 31.7926 37.6668 32.3977 36.6266 32.8127Z" fill="#38C9DF"/>
<path fill-rule="evenodd" clip-rule="evenodd" d="M32.9594 32.1404H15.275L12 28.9404H31.625C35.275 28.9404 37.9156 26.7529 37.9156 23.1029C37.9156 19.4529 35.2781 17.4217 31.625 17.4217H12V14.2217H32.9594C34.1359 14.2217 35.301 14.4534 36.388 14.9037C37.475 15.3539 38.4627 16.0139 39.2946 16.8458C40.1266 17.6778 40.7865 18.6654 41.2368 19.7524C41.687 20.8395 41.9188 22.0045 41.9188 23.1811C41.9188 24.3576 41.687 25.5227 41.2368 26.6097C40.7865 27.6967 40.1266 28.6843 39.2946 29.5163C38.4627 30.3482 37.475 31.0082 36.388 31.4584C35.301 31.9087 34.1359 32.1404 32.9594 32.1404Z" fill="#F16439"/>
</g>
<path d="M58.6615 30.6861H56.3218L54.9154 28.4188C54.8103 28.2468 54.7094 28.0932 54.6127 27.958C54.516 27.8228 54.4172 27.7081 54.3163 27.6139C54.2196 27.5156 54.1166 27.4419 54.0073 27.3927C53.9022 27.3395 53.7866 27.3128 53.6604 27.3128H53.1118V30.6861H51.0747V21.875H54.3037C56.4984 21.875 57.5957 22.6738 57.5957 24.2713C57.5957 24.5786 57.5474 24.8632 57.4507 25.1254C57.354 25.3835 57.2173 25.617 57.0408 25.8259C56.8642 26.0348 56.6498 26.215 56.3975 26.3666C56.1494 26.5181 55.8719 26.6369 55.565 26.723V26.7475C55.6996 26.7885 55.8299 26.8561 55.956 26.9503C56.0822 27.0404 56.2041 27.1469 56.3218 27.2698C56.4395 27.3927 56.5509 27.5258 56.6561 27.6692C56.7654 27.8085 56.8642 27.9457 56.9525 28.0809L58.6615 30.6861ZM53.1118 23.362V25.8136H53.9947C54.4319 25.8136 54.783 25.6907 55.0479 25.4449C55.317 25.195 55.4515 24.8858 55.4515 24.5171C55.4515 23.747 54.9785 23.362 54.0325 23.362H53.1118Z" fill="#151515"/>
<path d="M68.0532 30.6861H65.8333L65.19 28.7261H61.9737L61.3367 30.6861H59.1294L62.4214 21.875H64.8368L68.0532 30.6861ZM64.7233 27.2022L63.7521 24.2406C63.6806 24.0194 63.6302 23.7552 63.6008 23.448H63.5503C63.5293 23.706 63.4767 23.9621 63.3926 24.216L62.4088 27.2022H64.7233Z" fill="#151515"/>
<path d="M71.8068 27.6508V30.6861H69.7697V21.875H72.9609C75.2396 21.875 76.379 22.811 76.379 24.683C76.379 25.5678 76.0511 26.2847 75.3952 26.8336C74.7435 27.3784 73.8711 27.6508 72.778 27.6508H71.8068ZM71.8068 23.3988V26.1454H72.6077C73.6924 26.1454 74.2348 25.6825 74.2348 24.7567C74.2348 23.8515 73.6924 23.3988 72.6077 23.3988H71.8068Z" fill="#151515"/>
<path d="M80.3281 30.6861H78.2911V21.875H80.3281V30.6861Z" fill="#151515"/>
<path d="M82.978 30.6861V21.875H86.1818C89.3939 21.875 91 23.3067 91 26.17C91 27.5422 90.5606 28.638 89.6819 29.4572C88.8074 30.2765 87.6407 30.6861 86.1818 30.6861H82.978ZM85.0151 23.491V29.0763H86.0241C86.907 29.0763 87.5987 28.8182 88.099 28.3021C88.6035 27.786 88.8558 27.0834 88.8558 26.1945C88.8558 25.3548 88.6056 24.6953 88.1053 24.216C87.6092 23.7327 86.9112 23.491 86.0115 23.491H85.0151Z" fill="#151515"/>
<path d="M55.4987 37.7809C55.053 38.0103 54.498 38.125 53.8338 38.125C52.9761 38.125 52.2893 37.856 51.7736 37.318C51.2579 36.78 51 36.0741 51 35.2002C51 34.2608 51.2901 33.5016 51.8703 32.9227C52.4505 32.3438 53.1863 32.0543 54.0776 32.0543C54.6494 32.0543 55.1231 32.1349 55.4987 32.296V33.0292C55.067 32.7944 54.5905 32.6769 54.0692 32.6769C53.3769 32.6769 52.8149 32.9022 52.3832 33.3528C51.9544 33.8034 51.74 34.4056 51.74 35.1593C51.74 35.8748 51.9404 36.4455 52.3412 36.8715C52.7448 37.2948 53.2732 37.5065 53.9263 37.5065C54.5317 37.5065 55.0558 37.3754 55.4987 37.1132V37.7809Z" fill="#151515"/>
<path d="M62.25 38.0267H61.468L60.8289 36.38H58.2726L57.6714 38.0267H56.8852L59.1976 32.1526H59.9292L62.25 38.0267ZM60.5977 35.7614L59.6517 33.2586C59.6208 33.1767 59.59 33.0456 59.5592 32.8654H59.5424C59.5143 33.0319 59.4821 33.163 59.4457 33.2586L58.5081 35.7614H60.5977Z" fill="#151515"/>
<path d="M64.7044 35.8065V38.0267H63.9981V32.1526H65.6546C66.2993 32.1526 66.7982 32.3055 67.1514 32.6114C67.5073 32.9172 67.6853 33.3487 67.6853 33.9058C67.6853 34.4629 67.4877 34.919 67.0925 35.274C66.7001 35.629 66.1689 35.8065 65.499 35.8065H64.7044ZM64.7044 32.7752V35.1839H65.4444C65.9321 35.1839 66.3035 35.076 66.5585 34.8603C66.8164 34.6418 66.9453 34.3346 66.9453 33.9386C66.9453 33.163 66.4745 32.7752 65.5327 32.7752H64.7044Z" fill="#151515"/>
<path d="M69.3998 37.7891V36.978C69.4951 37.06 69.6086 37.1337 69.7403 37.1992C69.8749 37.2648 70.015 37.3208 70.1608 37.3672C70.3093 37.4109 70.4579 37.445 70.6064 37.4696C70.755 37.4942 70.8923 37.5065 71.0184 37.5065C71.4529 37.5065 71.7766 37.4286 71.9897 37.273C72.2055 37.1146 72.3134 36.8879 72.3134 36.593C72.3134 36.4346 72.277 36.2967 72.2041 36.1793C72.134 36.0618 72.0359 35.9553 71.9098 35.8597C71.7836 35.7614 71.6337 35.6686 71.4599 35.5812C71.2889 35.4911 71.1039 35.3969 70.9049 35.2986C70.6947 35.1948 70.4985 35.0896 70.3163 34.9831C70.1341 34.8766 69.9758 34.7592 69.8412 34.6309C69.7067 34.5025 69.6002 34.3578 69.5217 34.1967C69.446 34.0328 69.4082 33.8416 69.4082 33.6232C69.4082 33.3555 69.4684 33.1234 69.589 32.9268C69.7095 32.7274 69.8678 32.5636 70.0641 32.4352C70.2603 32.3069 70.4831 32.2113 70.7325 32.1485C70.9848 32.0857 71.2413 32.0543 71.502 32.0543C72.0962 32.0543 72.5292 32.1239 72.8011 32.2632V33.0374C72.4451 32.7971 71.9883 32.6769 71.4305 32.6769C71.2763 32.6769 71.1222 32.6933 70.968 32.7261C70.8138 32.7561 70.6765 32.8066 70.556 32.8776C70.4354 32.9486 70.3373 33.0401 70.2617 33.1521C70.186 33.2641 70.1481 33.4006 70.1481 33.5617C70.1481 33.7119 70.1762 33.8416 70.2322 33.9509C70.2911 34.0601 70.3766 34.1598 70.4887 34.2499C70.6008 34.34 70.7368 34.4274 70.8965 34.5121C71.0591 34.5967 71.2455 34.6896 71.4557 34.7906C71.6715 34.8944 71.8761 35.0036 72.0695 35.1183C72.2629 35.233 72.4325 35.36 72.5783 35.4993C72.724 35.6385 72.8389 35.7928 72.923 35.9622C73.0099 36.1315 73.0534 36.3254 73.0534 36.5438C73.0534 36.8333 72.9945 37.0791 72.8768 37.2812C72.7619 37.4805 72.6049 37.643 72.4059 37.7686C72.2097 37.8942 71.9827 37.9844 71.7248 38.039C71.4669 38.0963 71.195 38.125 70.9091 38.125C70.8138 38.125 70.6961 38.1168 70.556 38.1004C70.4158 38.0868 70.2729 38.0649 70.1271 38.0349C69.9814 38.0076 69.8426 37.9734 69.7109 37.9325C69.5819 37.8888 69.4782 37.841 69.3998 37.7891Z" fill="#151515"/>
<path d="M79.523 35.6508C79.523 37.3003 78.7592 38.125 77.2316 38.125C75.7685 38.125 75.0369 37.3317 75.0369 35.7451V32.1526H75.7432V35.7C75.7432 36.9043 76.2646 37.5065 77.3073 37.5065C78.3135 37.5065 78.8166 36.9248 78.8166 35.7614V32.1526H79.523V35.6508Z" fill="#151515"/>
<path d="M85.0172 38.0267H81.8891V32.1526H82.5954V37.4041H85.0172V38.0267Z" fill="#151515"/>
<path d="M89.9942 38.0267H86.7989V32.1526H89.8597V32.7752H87.5052V34.7292H89.6831V35.3477H87.5052V37.4041H89.9942V38.0267Z" fill="#151515"/>
<defs>
<clipPath id="clip0_37_9088">
<rect width="40" height="40" fill="white" transform="translate(6 10)"/>
</clipPath>
</defs>
</svg>
