<svg width="53" height="21" viewBox="0 0 53 21" fill="none" xmlns="http://www.w3.org/2000/svg">
<path d="M10.5629 11.3863H7.54069L5.72413 8.4577C5.58837 8.23547 5.45803 8.03706 5.33313 7.86245C5.20822 7.68785 5.0806 7.5397 4.95026 7.41801C4.82536 7.29102 4.69231 7.19578 4.55111 7.13229C4.41534 7.06351 4.266 7.02911 4.10308 7.02911H3.39438V11.3863H0.763224V0.00524902H4.93397C7.76878 0.00524902 9.18618 1.037 9.18618 3.10051C9.18618 3.49734 9.12373 3.86507 8.99882 4.20369C8.87392 4.53703 8.69742 4.83862 8.46933 5.10846C8.24125 5.37831 7.96428 5.61111 7.63844 5.80688C7.31803 6.00265 6.95961 6.15609 6.56317 6.2672V6.29895C6.73695 6.35186 6.9053 6.43916 7.06822 6.56086C7.23114 6.67726 7.38863 6.81483 7.54069 6.97356C7.69275 7.13229 7.83666 7.30425 7.97243 7.48944C8.11363 7.66933 8.24125 7.84658 8.35529 8.02118L10.5629 11.3863ZM3.39438 1.9259V5.09259H4.53482C5.09961 5.09259 5.55307 4.93386 5.8952 4.6164C6.24276 4.29364 6.41654 3.89417 6.41654 3.41797C6.41654 2.42326 5.80559 1.9259 4.58369 1.9259H3.39438Z" fill="#151515"/>
<path d="M22.6937 11.3863H19.8263L18.9955 8.85453H14.841L14.0183 11.3863H11.1672L15.4194 0.00524902H18.5393L22.6937 11.3863ZM18.3927 6.88626L17.1382 3.06083C17.0458 2.77511 16.9807 2.43384 16.9427 2.03701H16.8775C16.8503 2.37035 16.7825 2.70104 16.6738 3.02908L15.4031 6.88626H18.3927Z" fill="#151515"/>
<path d="M27.5421 7.46563V11.3863H24.9109V0.00524902H29.0328C31.9762 0.00524902 33.4479 1.21425 33.4479 3.63226C33.4479 4.77513 33.0243 5.70106 32.1772 6.41006C31.3354 7.11377 30.2086 7.46563 28.7966 7.46563H27.5421ZM27.5421 1.97352V5.52117H28.5766C29.9777 5.52117 30.6783 4.92328 30.6783 3.7275C30.6783 2.55818 29.9777 1.97352 28.5766 1.97352H27.5421Z" fill="#151515"/>
<path d="M38.5488 11.3863H35.9177V0.00524902H38.5488V11.3863Z" fill="#151515"/>
<path d="M41.9716 11.3863V0.00524902H46.1098C50.2588 0.00524902 52.3334 1.85447 52.3334 5.55291C52.3334 7.32541 51.7659 8.74077 50.6308 9.79898C49.5013 10.8572 47.9943 11.3863 46.1098 11.3863H41.9716ZM44.6028 2.09257V9.30691H45.9062C47.0466 9.30691 47.9399 8.97357 48.5862 8.3069C49.2379 7.64023 49.5637 6.73282 49.5637 5.58466C49.5637 4.49999 49.2406 3.64813 48.5943 3.02908C47.9535 2.40474 47.052 2.09257 45.8899 2.09257H44.6028Z" fill="#151515"/>
<path d="M6.47749 20.5504C5.90184 20.8467 5.185 20.9948 4.32695 20.9948C3.2191 20.9948 2.33209 20.6474 1.66593 19.9525C0.999768 19.2576 0.666687 18.3458 0.666687 17.217C0.666687 16.0036 1.0414 15.023 1.79083 14.2752C2.54027 13.5274 3.49063 13.1535 4.64193 13.1535C5.3805 13.1535 5.99236 13.2576 6.47749 13.4657V14.4128C5.91995 14.1094 5.30447 13.9577 4.63107 13.9577C3.73682 13.9577 3.01092 14.2487 2.45337 14.8308C1.89945 15.4128 1.62248 16.1906 1.62248 17.1641C1.62248 18.0883 1.88135 18.8255 2.39907 19.3758C2.92041 19.9225 3.60286 20.1959 4.44643 20.1959C5.22844 20.1959 5.90547 20.0266 6.47749 19.6879V20.5504Z" fill="#151515"/>
<path d="M15.1979 20.8678H14.1878L13.3624 18.7408H10.0605L9.28393 20.8678H8.2684L11.2553 13.2805H12.2002L15.1979 20.8678ZM13.0637 17.9419L11.8418 14.7091C11.8019 14.6032 11.7621 14.4339 11.7223 14.2011H11.7006C11.6644 14.4163 11.6227 14.5856 11.5757 14.7091L10.3646 17.9419H13.0637Z" fill="#151515"/>
<path d="M18.3682 18.0001V20.8678H17.4559V13.2805H19.5955C20.4282 13.2805 21.0727 13.478 21.5289 13.8731C21.9887 14.2681 22.2185 14.8255 22.2185 15.5451C22.2185 16.2646 21.9633 16.8537 21.4528 17.3123C20.946 17.7708 20.2599 18.0001 19.3946 18.0001H18.3682ZM18.3682 14.0847V17.1959H19.324C19.954 17.1959 20.4337 17.0565 20.7631 16.7779C21.0962 16.4957 21.2628 16.0989 21.2628 15.5874C21.2628 14.5856 20.6545 14.0847 19.4381 14.0847H18.3682Z" fill="#151515"/>
<path d="M24.433 20.561V19.5133C24.5561 19.6192 24.7028 19.7144 24.8729 19.7991C25.0467 19.8837 25.2277 19.956 25.416 20.016C25.6079 20.0724 25.7998 20.1165 25.9916 20.1483C26.1835 20.18 26.3609 20.1959 26.5238 20.1959C27.085 20.1959 27.5032 20.0954 27.7783 19.8943C28.0571 19.6897 28.1965 19.3969 28.1965 19.016C28.1965 18.8114 28.1494 18.6333 28.0553 18.4816C27.9648 18.3299 27.8381 18.1923 27.6751 18.0689C27.5122 17.9419 27.3185 17.822 27.0941 17.7091C26.8732 17.5927 26.6343 17.471 26.3772 17.344C26.1057 17.21 25.8523 17.0742 25.6169 16.9366C25.3816 16.799 25.177 16.6474 25.0033 16.4816C24.8295 16.3158 24.6919 16.1288 24.5905 15.9207C24.4928 15.7091 24.4439 15.4622 24.4439 15.18C24.4439 14.8343 24.5217 14.5345 24.6774 14.2805C24.8331 14.023 25.0377 13.8114 25.2911 13.6456C25.5445 13.4798 25.8323 13.3563 26.1546 13.2752C26.4804 13.1941 26.8117 13.1535 27.1484 13.1535C27.9159 13.1535 28.4753 13.2434 28.8264 13.4233V14.4234C28.3667 14.1129 27.7765 13.9577 27.0561 13.9577C26.8569 13.9577 26.6578 13.9789 26.4587 14.0212C26.2596 14.06 26.0822 14.1253 25.9265 14.217C25.7708 14.3087 25.6441 14.4269 25.5463 14.5715C25.4486 14.7161 25.3997 14.8925 25.3997 15.1006C25.3997 15.2946 25.4359 15.4622 25.5083 15.6033C25.5843 15.7444 25.6948 15.8731 25.8396 15.9895C25.9844 16.1059 26.16 16.2188 26.3664 16.3281C26.5763 16.4375 26.8171 16.5574 27.0886 16.6879C27.3674 16.822 27.6317 16.9631 27.8815 17.1112C28.1313 17.2594 28.3504 17.4234 28.5386 17.6033C28.7269 17.7832 28.8753 17.9825 28.9839 18.2012C29.0962 18.4199 29.1523 18.6703 29.1523 18.9525C29.1523 19.3264 29.0763 19.6439 28.9242 19.9049C28.7758 20.1624 28.573 20.3723 28.316 20.5345C28.0625 20.6968 27.7693 20.8132 27.4362 20.8837C27.1031 20.9578 26.7519 20.9948 26.3827 20.9948C26.2596 20.9948 26.1075 20.9843 25.9265 20.9631C25.7455 20.9454 25.5608 20.9172 25.3725 20.8784C25.1843 20.8432 25.0051 20.7991 24.8349 20.7462C24.6684 20.6897 24.5344 20.628 24.433 20.561Z" fill="#151515"/>
<path d="M37.5089 17.799C37.5089 19.9296 36.5223 20.9948 34.5491 20.9948C32.6593 20.9948 31.7143 19.9701 31.7143 17.9207V13.2805H32.6267V17.8625C32.6267 19.4181 33.3001 20.1959 34.6469 20.1959C35.9466 20.1959 36.5965 19.4446 36.5965 17.9419V13.2805H37.5089V17.799Z" fill="#151515"/>
<path d="M44.6055 20.8678H40.5651V13.2805H41.4775V20.0636H44.6055V20.8678Z" fill="#151515"/>
<path d="M51.0342 20.8678H46.9069V13.2805H50.8604V14.0847H47.8193V16.6086H50.6323V17.4075H47.8193V20.0636H51.0342V20.8678Z" fill="#151515"/>
</svg>
