<svg width="52" height="53" viewBox="0 0 52 53" fill="none" xmlns="http://www.w3.org/2000/svg">
<g clip-path="url(#clip0_2193_42315)">
<path fill-rule="evenodd" clip-rule="evenodd" d="M34.4148 30.9407H25.9907L32.2916 37.3465C32.5503 37.6059 32.8577 37.8116 33.196 37.952C33.5344 38.0924 33.8971 38.1647 34.2634 38.1647C34.6298 38.1647 34.9925 38.0924 35.3308 37.952C35.6692 37.8116 35.9765 37.6059 36.2353 37.3465L36.5299 37.0559C36.7893 36.7972 36.995 36.4899 37.1354 36.1515C37.2758 35.8132 37.3481 35.4504 37.3481 35.0841C37.3481 34.7178 37.2758 34.355 37.1354 34.0167C36.995 33.6783 36.7893 33.371 36.5299 33.1123L34.4148 30.9407Z" fill="#38C9DF"/>
<path fill-rule="evenodd" clip-rule="evenodd" d="M8.07288 14.593H34.1C34.8397 14.593 35.5491 14.8869 36.0722 15.41C36.5953 15.933 36.8892 16.6425 36.8892 17.3822V17.7859C36.8892 18.5256 36.5953 19.235 36.0722 19.7581C35.5491 20.2812 34.8397 20.575 34.1 20.575H8.07288C7.33314 20.575 6.6237 20.2812 6.10063 19.7581C5.57755 19.235 5.28369 18.5256 5.28369 17.7859V17.3822C5.28369 16.6425 5.57755 15.933 6.10063 15.41C6.6237 14.8869 7.33314 14.593 8.07288 14.593Z" fill="#F16439"/>
<path fill-rule="evenodd" clip-rule="evenodd" d="M39.5574 30.1325C41.8421 33.2203 41.9107 36.833 38.9843 39.7554C35.638 43.1056 31.2383 42.6778 27.9042 39.3517L19.5164 30.9397H13.6716L26.2048 43.4729C28.3296 45.5115 31.1518 46.663 34.0962 46.693C37.0406 46.7229 39.8856 45.6289 42.0514 43.634C44.2171 41.6391 45.5407 38.8934 45.7523 35.9565C45.9639 33.0195 45.0477 30.1124 43.1903 27.8276C42.133 28.8149 40.901 29.5965 39.5574 30.1325Z" fill="#38C9DF"/>
<path fill-rule="evenodd" clip-rule="evenodd" d="M34.8225 29.2666H11.9802L7.75 25.1333H33.099C37.8135 25.1333 41.2243 22.3078 41.2243 17.5932C41.2243 12.8786 37.8176 10.2549 33.099 10.2549H7.75V6.12158H34.8225C36.3422 6.12158 37.8471 6.42091 39.2511 7.00249C40.6552 7.58406 41.9309 8.43649 43.0055 9.5111C44.0802 10.5857 44.9326 11.8615 45.5141 13.2655C46.0957 14.6695 46.3951 16.1744 46.3951 17.6941C46.3951 19.2138 46.0957 20.7187 45.5141 22.1227C44.9326 23.5268 44.0802 24.8025 43.0055 25.8771C41.9309 26.9517 40.6552 27.8042 39.2511 28.3857C37.8471 28.9673 36.3422 29.2666 34.8225 29.2666Z" fill="#F16439"/>
</g>
<defs>
<clipPath id="clip0_2193_42315">
<rect width="51.6667" height="51.6667" fill="white" transform="translate(0 0.666626)"/>
</clipPath>
</defs>
</svg>
