<svg width="64" height="64" viewBox="0 0 64 64" fill="none" xmlns="http://www.w3.org/2000/svg">
<g clip-path="url(#clip0_426_17130)">
<path fill-rule="evenodd" clip-rule="evenodd" d="M10.668 21.3333C10.668 18.3878 13.0558 16 16.0013 16H48.0013C50.9468 16 53.3346 18.3878 53.3346 21.3333V42.6667C53.3346 45.6122 50.9468 48 48.0013 48H16.0013C13.0558 48 10.668 45.6122 10.668 42.6667V21.3333ZM16.0013 18.6667H48.0013C48.1903 18.6667 48.3748 18.6863 48.5527 18.7237L34.6045 30.6793C33.1065 31.9633 30.8961 31.9633 29.3982 30.6793L15.45 18.7237C15.6279 18.6863 15.8123 18.6667 16.0013 18.6667ZM13.4582 20.5287C13.3779 20.7826 13.3346 21.0529 13.3346 21.3333V42.6667C13.3346 44.1394 14.5285 45.3333 16.0013 45.3333H48.0013C49.4741 45.3333 50.668 44.1394 50.668 42.6667V21.3333C50.668 21.0529 50.6247 20.7826 50.5444 20.5287L36.3399 32.704C33.8433 34.8439 30.1593 34.8439 27.6627 32.704L13.4582 20.5287Z" fill="#151515"/>
</g>
<defs>
<clipPath id="clip0_426_17130">
<rect width="64" height="64" fill="white"/>
</clipPath>
</defs>
</svg>
