<svg width="65" height="64" viewBox="0 0 65 64" fill="none" xmlns="http://www.w3.org/2000/svg">
<path d="M49.4026 51C50.5607 51 51.4999 50.061 51.4999 48.9027V15.0973C51.4999 13.9389 50.5607 13 49.4026 13H15.5973C14.4387 13 13.5 13.9389 13.5 15.0973V48.9027C13.5 50.061 14.4387 51 15.5973 51H49.4026Z" fill="#395185"/>
<path d="M39.7181 50.999V36.2834H44.6576L45.3971 30.5485H39.7181V26.8869C39.7181 25.2265 40.1793 24.0949 42.5604 24.0949L45.5972 24.0936V18.9644C45.0718 18.8944 43.2691 18.7383 41.172 18.7383C36.7934 18.7383 33.7959 21.4109 33.7959 26.3191V30.5485H28.8438V36.2834H33.7959V50.999H39.7181Z" fill="white"/>
</svg>
