<svg width="65" height="64" viewBox="0 0 65 64" fill="none" xmlns="http://www.w3.org/2000/svg">
<g clip-path="url(#clip0_426_16771)">
<path fill-rule="evenodd" clip-rule="evenodd" d="M48.6874 13.0002H16.2946C15.5611 12.9955 14.8555 13.2812 14.3319 13.7949C13.8083 14.3086 13.5093 15.0086 13.5 15.7421V48.2579C13.5093 48.9914 13.8083 49.6914 14.3319 50.2051C14.8555 50.7188 15.5611 51.0045 16.2946 50.9998H48.6874C49.0521 51.0044 49.4141 50.9372 49.7528 50.8019C50.0915 50.6666 50.4002 50.4659 50.6614 50.2113C50.9225 49.9567 51.131 49.6532 51.2748 49.318C51.4186 48.9828 51.495 48.6226 51.4995 48.2579V15.7421C51.495 15.3774 51.4186 15.0172 51.2748 14.682C51.131 14.3468 50.9225 14.0433 50.6614 13.7887C50.4002 13.5341 50.0915 13.3334 49.7528 13.1981C49.4141 13.0628 49.0521 12.9956 48.6874 13.0002ZM19.1266 27.2379H24.7685V45.3764H19.1266V27.2379ZM21.9564 18.2213C22.6044 18.2214 23.2379 18.414 23.7762 18.7748C24.3145 19.1356 24.7335 19.6483 24.9799 20.2477C25.2262 20.8471 25.2889 21.5062 25.1599 22.1413C25.0309 22.7764 24.716 23.3588 24.2553 23.8146C23.7946 24.2704 23.2088 24.5789 22.5723 24.7011C21.9359 24.8232 21.2775 24.7534 20.6808 24.5006C20.084 24.2478 19.5759 23.8233 19.221 23.2811C18.866 22.7389 18.6802 22.1034 18.6872 21.4553C18.701 20.5959 19.0509 19.776 19.662 19.1714C20.2731 18.5669 21.0968 18.2258 21.9564 18.2213ZM33.7124 27.2381H28.2989V45.4821H33.9409V36.5182C33.9409 34.1455 34.3803 31.8606 37.3155 31.8606C40.2507 31.8606 40.2507 34.5673 40.2507 36.6764V45.4645H45.8926V35.5164C45.8926 30.5599 44.8029 26.7283 38.9852 26.7987C37.9239 26.7705 36.8746 27.028 35.947 27.5444C35.0194 28.0608 34.2476 28.817 33.7124 29.7339V27.2381Z" fill="#007BB6"/>
</g>
<defs>
<clipPath id="clip0_426_16771">
<rect width="64" height="64" fill="white" transform="translate(0.5)"/>
</clipPath>
</defs>
</svg>
