<svg width="64" height="64" viewBox="0 0 64 64" fill="none" xmlns="http://www.w3.org/2000/svg">
<g clip-path="url(#clip0_418_16426)">
<path d="M34.6654 31.9993V18.666C34.6654 15.7205 32.2775 13.3327 29.332 13.3327C26.3865 13.3327 23.9987 15.7205 23.9987 18.666V37.9623C22.362 36.4974 21.332 34.3687 21.332 31.9993V18.666C21.332 14.2477 24.9138 10.666 29.332 10.666C33.7503 10.666 37.332 14.2477 37.332 18.666V31.9993C37.332 35.4826 35.1059 38.4459 31.9987 39.5441V36.6192C33.5928 35.697 34.6654 33.9734 34.6654 31.9993Z" fill="#151515"/>
<path d="M26.6654 31.9994C26.6654 28.5161 28.8915 25.5528 31.9987 24.4546V27.3795C30.4046 28.3017 29.332 30.0253 29.332 31.9994V45.3327C29.332 48.2782 31.7198 50.666 34.6654 50.666C37.6109 50.666 39.9987 48.2782 39.9987 45.3327V26.0364C41.6354 27.5013 42.6654 29.63 42.6654 31.9994V45.3327C42.6654 49.751 39.0836 53.3327 34.6654 53.3327C30.2471 53.3327 26.6654 49.751 26.6654 45.3327V31.9994Z" fill="#151515"/>
</g>
<defs>
<clipPath id="clip0_418_16426">
<rect width="64" height="64" fill="white"/>
</clipPath>
</defs>
</svg>
