<svg width="64" height="64" viewBox="0 0 64 64" fill="none" xmlns="http://www.w3.org/2000/svg">
<g clip-path="url(#clip0_418_16408)">
<path d="M56 17.5022C54.2402 18.2818 52.3725 18.7936 50.4595 19.0203C52.4747 17.8196 53.9824 15.9311 54.7016 13.7068C52.8106 14.8291 50.7381 15.6163 48.5763 16.0333C47.2535 14.6292 45.5366 13.6533 43.6488 13.2323C41.761 12.8114 39.7896 12.9649 37.9907 13.673C36.1918 14.381 34.6486 15.6108 33.5615 17.2026C32.4745 18.7944 31.894 20.6746 31.8954 22.5988C31.8967 23.3351 31.9798 24.0691 32.1432 24.7873C28.3178 24.588 24.577 23.5928 21.1625 21.8659C17.748 20.1389 14.7357 17.7187 12.3203 14.7616C11.0808 16.8724 10.6983 19.3742 11.2509 21.7561C11.8036 24.1379 13.2496 26.22 15.2938 27.5771C13.7611 27.529 12.2624 27.1166 10.9228 26.3744V26.5026C10.9152 28.7185 11.6777 30.8689 13.081 32.5898C14.4844 34.3108 16.4426 35.4967 18.624 35.9466C17.7934 36.1689 16.9369 36.2816 16.0768 36.2818C15.4678 36.2823 14.8602 36.2229 14.263 36.1044C14.8786 38.0108 16.078 39.6782 17.6935 40.8731C19.309 42.068 21.2596 42.7307 23.2725 42.7684C19.2283 45.912 14.0949 47.3303 9 46.7117C13.4098 49.5227 18.5402 51.0114 23.7779 50.9999C41.5194 50.9999 51.2227 36.3902 51.2227 23.7128C51.2227 23.2987 51.2227 22.8847 51.2227 22.4706C53.0995 21.1102 54.7173 19.4277 56 17.5022Z" fill="#2CAAE1"/>
</g>
<defs>
<clipPath id="clip0_418_16408">
<rect width="64" height="64" fill="white"/>
</clipPath>
</defs>
</svg>
