<svg width="64" height="64" viewBox="0 0 64 64" fill="none" xmlns="http://www.w3.org/2000/svg">
<path d="M14.155 50.3425L16.7348 40.9228C15.1433 38.166 14.3063 35.0383 14.3073 31.835C14.3115 21.8122 22.4686 13.658 32.4912 13.658C37.3556 13.6602 41.9212 15.5533 45.3539 18.9892C48.7873 22.4251 50.677 26.9921 50.675 31.8492C50.6708 41.8722 42.5132 50.0272 32.4919 50.0272C32.4912 50.0272 32.4924 50.0272 32.4919 50.0272H32.4838C29.4406 50.0262 26.4505 49.2623 23.7947 47.8149L14.155 50.3425Z" fill="url(#paint0_linear_435_15765)"/>
<path d="M26.7275 23.1442C27.0628 23.1579 27.434 23.1736 27.7865 23.9574C28.0274 24.4931 28.4328 25.4917 28.7558 26.2876C28.994 26.8743 29.1874 27.3509 29.2374 27.4508C29.355 27.6862 29.4335 27.961 29.2766 28.2753C29.2531 28.3223 29.2313 28.3667 29.2105 28.4091C29.0927 28.6496 29.006 28.8264 28.8064 29.06C28.7281 29.1514 28.6472 29.2498 28.5663 29.3483C28.4039 29.5459 28.2414 29.7435 28.1003 29.8842C27.8642 30.1189 27.6191 30.3738 27.8937 30.8445C28.1682 31.3157 29.1129 32.8563 30.512 34.1037C32.015 35.4438 33.3207 36.0107 33.9838 36.2985C34.114 36.355 34.2194 36.4008 34.2967 36.4395C34.7674 36.6749 35.042 36.6357 35.3166 36.3212C35.5912 36.0074 36.4926 34.9475 36.8064 34.4768C37.1202 34.0056 37.434 34.0841 37.8655 34.241C38.297 34.3979 40.6108 35.5366 41.0815 35.772C41.1733 35.8179 41.2591 35.8593 41.3387 35.8978C41.6671 36.0562 41.8889 36.1633 41.9837 36.3212C42.1013 36.518 42.1013 37.4599 41.7091 38.5587C41.3168 39.6578 39.3953 40.7176 38.5323 40.796C38.4493 40.8036 38.3668 40.8133 38.2819 40.8233C37.4844 40.9171 36.4778 41.0355 32.8846 39.6186C28.4635 37.8751 25.5484 33.5546 24.946 32.6618C24.8966 32.5886 24.8627 32.5384 24.8449 32.5146L24.8398 32.5077C24.5863 32.1691 22.9231 29.9466 22.9231 27.647C22.9231 25.4796 23.9885 24.3435 24.4787 23.8207C24.5122 23.785 24.543 23.7521 24.5706 23.722C25.0018 23.2511 25.5117 23.1331 25.8255 23.1331L25.8769 23.1331C26.1733 23.1331 26.4681 23.1331 26.7275 23.1442Z" fill="white"/>
<path fill-rule="evenodd" clip-rule="evenodd" d="M32.4944 13C37.5328 13.0022 42.2619 14.9632 45.8184 18.5222C49.3745 22.0814 51.3321 26.8125 51.3304 31.8441C51.3259 42.2258 42.8753 50.6739 32.4944 50.6739H32.4863C29.334 50.6727 26.2365 49.882 23.4853 48.3817L13.5 51L16.1722 41.2427C14.524 38.3871 13.6569 35.1476 13.6581 31.8289C13.6623 21.4467 22.1117 13 32.4944 13ZM32.4882 47.4938H32.4944C41.1232 47.4938 48.1462 40.4724 48.1499 31.8429C48.1512 27.6607 46.5245 23.7284 43.5687 20.7703C40.6126 17.8122 36.6822 16.1822 32.5003 16.1805C23.8645 16.1805 16.8417 23.2008 16.8383 31.8301C16.8371 34.7872 17.6645 37.6671 19.2318 40.1591L19.6044 40.7512L18.0224 46.5264L23.9479 44.9728L24.5199 45.3119C26.9231 46.7379 29.6785 47.4923 32.4882 47.4938Z" fill="white"/>
<defs>
<linearGradient id="paint0_linear_435_15765" x1="32.4152" y1="51" x2="32.4152" y2="13.0001" gradientUnits="userSpaceOnUse">
<stop stop-color="#20B038"/>
<stop offset="1" stop-color="#60D66A"/>
</linearGradient>
</defs>
</svg>
