<svg width="34" height="34" viewBox="0 0 34 34" fill="none" xmlns="http://www.w3.org/2000/svg">
<path fill-rule="evenodd" clip-rule="evenodd" d="M17 32.0571C25.3158 32.0571 32.0571 25.3158 32.0571 17C32.0571 8.68417 25.3158 1.94286 17 1.94286C8.68417 1.94286 1.94286 8.68417 1.94286 17C1.94286 25.3158 8.68417 32.0571 17 32.0571ZM17 34C26.3888 34 34 26.3888 34 17C34 7.61116 26.3888 0 17 0C7.61116 0 0 7.61116 0 17C0 26.3888 7.61116 34 17 34Z" fill="#151515"/>
<path d="M14.6792 6.79701C14.6207 5.74351 15.4592 4.85714 16.5143 4.85714C17.5694 4.85714 18.4079 5.74351 18.3494 6.79701L17.5396 21.3729C17.5094 21.9171 17.0593 22.3429 16.5143 22.3429C15.9693 22.3429 15.5192 21.9171 15.489 21.3729L14.6792 6.79701Z" fill="#151515"/>
<path d="M14.5714 26.2286C14.5714 25.1556 15.4413 24.2857 16.5143 24.2857C17.5873 24.2857 18.4571 25.1556 18.4571 26.2286C18.4571 27.3016 17.5873 28.1714 16.5143 28.1714C15.4413 28.1714 14.5714 27.3016 14.5714 26.2286Z" fill="#151515"/>
</svg>
