<svg width="169" height="110" viewBox="0 0 169 110" fill="none" xmlns="http://www.w3.org/2000/svg">
<path d="M49.1205 107.726C48.6615 107.829 48.1514 107.88 47.7433 107.88L47.4883 104.653C48.1004 104.602 48.7635 104.5 49.4776 104.346C59.0672 102.246 57.996 83.9622 56.8228 64.6541C56.1597 53.3355 55.4456 41.6584 56.9248 32.4397C58.6591 21.4284 63.3009 15.4874 71.1051 14.207C71.1051 14.207 71.1051 14.207 71.1561 14.207L71.6662 17.3824C57.4349 19.6871 58.7611 42.4266 60.0873 64.4492C61.3625 85.1914 62.5357 104.807 50.1917 107.521C49.7837 107.624 49.4266 107.675 49.1205 107.726Z" fill="#2E5D7D"/>
<mask id="mask0_4634_58126" style="mask-type:luminance" maskUnits="userSpaceOnUse" x="47" y="14" width="25" height="94">
<path d="M49.1205 107.726C48.6615 107.829 48.1514 107.88 47.7433 107.88L47.4883 104.653C48.1004 104.602 48.7635 104.5 49.4776 104.346C59.0672 102.246 57.996 83.9622 56.8228 64.6541C56.1597 53.3355 55.4456 41.6584 56.9248 32.4397C58.6591 21.4284 63.3009 15.4874 71.1051 14.207C71.1051 14.207 71.1051 14.207 71.1561 14.207L71.6662 17.3824C57.4349 19.6871 58.7611 42.4266 60.0873 64.4492C61.3625 85.1914 62.5357 104.807 50.1917 107.521C49.7837 107.624 49.4266 107.675 49.1205 107.726Z" fill="white"/>
</mask>
<g mask="url(#mask0_4634_58126)">
<g opacity="0.3">
<path d="M50.1909 110.902C49.7318 111.004 49.2217 111.056 48.8136 111.056L48.5586 107.829C49.1707 107.778 49.8338 107.675 50.5479 107.522C53.5064 106.856 55.3937 104.551 56.5159 101.888C58.3522 97.4835 57.6381 93.5911 56.1078 89.1866C55.2407 86.6771 54.2205 84.1675 53.7614 81.5043C53.3534 79.0972 53.4554 76.6389 53.0473 74.1293C52.0782 68.2396 51.109 62.2986 50.1909 56.4089C49.8338 54.1554 49.4767 51.9019 49.3747 49.6484C49.2217 44.8342 50.3439 40.02 51.6191 35.3594C51.9251 34.1302 52.2822 32.8498 53.0983 31.8767C55.8018 28.599 59.2193 25.987 62.3818 23.1701C65.4423 20.4557 67.9417 18.0998 72.1754 17.3828C72.1754 17.3828 72.1754 17.3828 72.2264 17.3828L72.7365 20.5582C58.5052 22.8628 59.8314 45.6024 61.1576 67.625C62.4329 88.3672 63.606 107.983 51.262 110.697C50.854 110.748 50.5479 110.851 50.1909 110.902Z" fill="#2E5D7D"/>
</g>
</g>
<path d="M136.142 31.7226C127.47 12.5169 102.68 10.3146 90.03 32.3884C88.1937 35.5637 84.215 36.6392 81.0525 34.7443C59.272 21.7356 38.7156 35.8198 40.5519 56.8181C42.0822 74.3337 70.3408 98.661 98.2423 109.109C102.884 110.85 108.138 109.467 111.351 105.677C130.582 82.8354 143.385 47.753 136.142 31.7226Z" fill="#D04B5E"/>
<mask id="mask1_4634_58126" style="mask-type:luminance" maskUnits="userSpaceOnUse" x="40" y="16" width="99" height="94">
<path d="M136.142 31.7226C127.47 12.5169 102.68 10.3146 90.03 32.3884C88.1937 35.5637 84.215 36.6392 81.0525 34.7443C59.272 21.7356 38.7156 35.8198 40.5519 56.8181C42.0822 74.3337 70.3408 98.661 98.2423 109.109C102.884 110.85 108.138 109.467 111.351 105.677C130.582 82.8354 143.385 47.753 136.142 31.7226Z" fill="white"/>
</mask>
<g mask="url(#mask1_4634_58126)">
<path d="M135.937 25.2692C133.438 18.0478 127.878 12.0044 120.533 9.39243C109.668 5.50007 98.2934 10.2119 90.9992 18.56C87.9387 22.0938 85.4903 26.1398 83.603 30.4419C59.272 8.41934 32.4416 22.8108 33.4618 47.2405C33.9209 58.9176 43.1534 69.6216 50.9067 77.4575C58.0988 84.6789 66.3112 92.8733 76.5128 95.3829C107.322 102.912 133.234 72.4384 136.958 44.3725C137.519 40.1728 137.621 35.9219 137.264 31.7223C137.111 29.52 136.652 27.369 135.937 25.2692Z" fill="#D4647A"/>
</g>
<mask id="mask2_4634_58126" style="mask-type:luminance" maskUnits="userSpaceOnUse" x="40" y="16" width="99" height="94">
<path d="M136.142 31.7226C127.47 12.5169 102.68 10.3146 90.03 32.3884C88.1937 35.5637 84.215 36.6392 81.0525 34.7443C59.272 21.7356 38.7156 35.8198 40.5519 56.8181C42.0822 74.3337 70.3408 98.661 98.2423 109.109C102.884 110.85 108.138 109.467 111.351 105.677C130.582 82.8354 143.385 47.753 136.142 31.7226Z" fill="white"/>
</mask>
<g mask="url(#mask2_4634_58126)">
<path d="M119.258 111.053C118.697 111.105 118.085 111.207 117.473 111.207C101.507 112.129 96.2535 87.0335 91.1527 62.7575C86.3069 39.6082 81.3081 15.6906 67.7909 17.4832L67.3828 14.2566C83.8585 12.1056 89.1634 37.5083 94.3152 62.0405C99.11 84.9849 104.058 108.698 117.269 107.929C117.779 107.878 118.34 107.827 118.799 107.776L119.258 111.053Z" fill="#D04B5E"/>
</g>
<mask id="mask3_4634_58126" style="mask-type:luminance" maskUnits="userSpaceOnUse" x="40" y="16" width="99" height="94">
<path d="M136.142 31.7226C127.47 12.5169 102.68 10.3146 90.03 32.3884C88.1937 35.5637 84.215 36.6392 81.0525 34.7443C59.272 21.7356 38.7156 35.8198 40.5519 56.8181C42.0822 74.3337 70.3408 98.661 98.2423 109.109C102.884 110.85 108.138 109.467 111.351 105.677C130.582 82.8354 143.385 47.753 136.142 31.7226Z" fill="white"/>
</mask>
<g mask="url(#mask3_4634_58126)">
<path d="M119.361 41.66L118.341 41.9161C116.81 35.719 115.79 29.6244 114.923 23.9907C113.903 17.1791 114.77 12.0063 117.422 9.03585C119.769 6.47509 122.88 6.11658 125.125 6.27023L125.278 4.11918C121.452 3.86311 118.137 5.09227 115.841 7.60182C112.679 11.0332 111.659 16.8206 112.781 24.3492C113.648 30.0853 114.668 36.2312 116.249 42.4794L115.229 42.7355C119.82 61.0194 126.502 70.1869 135.734 70.7503L135.989 66.4482C128.95 65.9872 123.39 57.6391 119.361 41.66Z" fill="#D04B5E"/>
</g>
<path opacity="0.2" d="M103.09 24.7592C104.722 23.1203 106.507 21.5326 108.65 20.918C109.619 20.6108 110.894 20.7132 111.455 21.7375C111.863 22.5569 111.557 23.5812 111.098 24.3495C109.874 26.3981 107.68 27.32 105.793 28.6003C101.712 31.3147 98.3969 35.4632 93.6022 36.4875C92.684 36.6924 91.7149 36.7436 90.8477 36.2314C90.7967 35.8729 91.0007 35.5144 91.2558 35.3095C91.5618 35.1559 91.8679 35.1047 92.1739 35.0022C94.2143 34.4901 96.2036 32.4415 97.5808 30.7514C99.3151 28.6003 101.202 26.6542 103.09 24.7592Z" fill="#C1E3F9"/>
<path opacity="0.2" d="M43.7649 50.7254C43.3569 53.1837 43.4079 55.7445 44.53 57.998C44.9891 58.9198 45.9583 59.8929 46.9274 59.5344C47.7436 59.2271 47.9986 58.2028 48.1006 57.3322C48.8147 52.2106 50.192 46.9355 53.7625 43.248C55.1908 41.7627 56.8741 40.5848 58.0983 38.9459C58.3533 38.5874 58.5573 38.2289 58.6083 37.8191C59.2714 32.7488 50.549 39.1507 49.6309 39.919C46.4684 42.5822 44.428 46.6282 43.7649 50.7254Z" fill="#C1E3F9"/>
<path opacity="0.2" d="M64.2217 36.8431C65.4459 37.1504 67.0272 37.048 68.0474 36.8943C68.4044 36.8431 68.8125 36.7407 69.1185 36.587C69.4246 36.3822 69.6796 36.0749 69.6796 35.6652C69.6796 32.9507 65.599 33.1556 63.9667 33.7702C63.4056 33.9751 62.7425 34.2823 62.5385 34.8969C62.3344 35.5115 62.6915 36.1773 63.2526 36.4846C63.5076 36.6382 63.8647 36.7407 64.2217 36.8431Z" fill="#C1E3F9"/>
<path d="M16.1689 53.0797C17.138 57.4842 14.3326 61.8887 9.94585 62.8618C5.55914 63.8349 1.17243 61.0181 0.203269 56.6136C-0.765889 52.2091 2.03957 47.8045 6.42628 46.8314C10.813 45.8584 15.1997 48.624 16.1689 53.0797Z" fill="#C1E3F9"/>
<path d="M14.4341 53.49C15.0972 56.6141 13.1589 59.7383 9.99637 60.4041C6.88486 61.0699 3.77335 59.1237 3.11025 55.9483C2.44714 52.8242 4.38545 49.7001 7.54797 49.0343C10.6595 48.3685 13.771 50.3659 14.4341 53.49Z" fill="#A2C6DB"/>
<path d="M47.6916 107.932C37.49 108.7 34.9396 98.8157 31.9811 87.3435C30.7059 82.3756 29.2266 76.6907 26.9823 71.1595C22.6466 60.4042 18.3109 57.024 15.4544 56.1022C12.7509 55.2315 10.8636 56.3582 10.8126 56.4095L9.02734 53.695C9.12936 53.5926 12.1388 51.6464 16.3215 52.9268C21.5244 54.5145 26.1151 60.2506 29.9918 69.9303C32.2871 75.6664 33.7664 81.4025 35.0926 86.4728C38.3061 98.8157 40.2954 105.218 47.4876 104.654L47.6916 107.932Z" fill="#2E5D7D"/>
<mask id="mask4_4634_58126" style="mask-type:luminance" maskUnits="userSpaceOnUse" x="9" y="52" width="39" height="56">
<path d="M47.6916 107.932C37.49 108.7 34.9396 98.8157 31.9811 87.3435C30.7059 82.3756 29.2266 76.6907 26.9823 71.1595C22.6466 60.4042 18.3109 57.024 15.4544 56.1022C12.7509 55.2315 10.8636 56.3582 10.8126 56.4095L9.02734 53.695C9.12936 53.5926 12.1388 51.6464 16.3215 52.9268C21.5244 54.5145 26.1151 60.2506 29.9918 69.9303C32.2871 75.6664 33.7664 81.4025 35.0926 86.4728C38.3061 98.8157 40.2954 105.218 47.4876 104.654L47.6916 107.932Z" fill="white"/>
</mask>
<g mask="url(#mask4_4634_58126)">
<g opacity="0.3">
<path d="M48.4044 108.649C47.5882 108.444 46.7721 108.239 45.9049 108.035C44.8848 107.778 43.8646 107.522 42.9465 107.01C41.8243 106.396 40.9571 105.371 40.192 104.347C36.2644 99.0207 34.7851 92.2603 33.1019 86.012C31.7757 81.0441 30.2964 75.4104 28.052 69.8792C26.4708 65.9356 24.5325 61.9408 21.778 58.7142C20.9619 57.7411 20.0437 56.8705 19.0236 56.1023C17.7484 55.2316 16.0141 55.078 15.0449 53.8488C14.6879 53.3879 14.4838 52.8245 14.0758 52.3635C13.3617 51.4929 12.0354 51.1344 10.9643 51.5441C9.9441 51.9538 9.28099 52.9269 8.77091 53.9512C8.31183 54.8731 8.00578 55.9998 7.34267 56.7681C6.78158 57.4339 5.86343 57.8948 5.55738 58.8167C5.14932 60.0971 5.30234 61.4799 5.50637 62.8115C5.86343 65.2698 6.2715 67.7281 6.62856 70.1865C7.13864 73.5155 7.69973 76.8957 8.82191 80.071C10.1481 83.8609 12.2395 87.2924 14.4838 90.6214C20.4008 99.4304 27.491 107.83 36.9275 112.644C40.9571 114.744 46.007 116.075 49.9346 113.822C50.8017 113.31 51.6179 112.644 51.8729 111.671C52.383 109.93 50.8017 109.264 49.4245 108.905C49.1695 108.854 48.7614 108.752 48.4044 108.649Z" fill="#2E5D7D"/>
</g>
</g>
<path d="M125.788 109.467H125.737L125.227 106.292H125.278C133.031 105.011 140.784 99.3776 139.713 67.3681L142.926 67.2656C143.845 94.717 138.744 107.316 125.788 109.467Z" fill="#2E5D7D"/>
<mask id="mask5_4634_58126" style="mask-type:luminance" maskUnits="userSpaceOnUse" x="125" y="67" width="19" height="43">
<path d="M125.788 109.467H125.737L125.227 106.292H125.278C133.031 105.011 140.784 99.3776 139.713 67.3681L142.926 67.2656C143.845 94.717 138.744 107.316 125.788 109.467Z" fill="white"/>
</mask>
<g mask="url(#mask5_4634_58126)">
<g opacity="0.3">
<path d="M122.318 106.498H122.267L122.062 103.271H122.114C129.969 102.708 138.181 97.74 139.864 65.7305L143.078 65.8841C141.599 93.3867 135.427 105.525 122.318 106.498Z" fill="#2E5D7D"/>
</g>
</g>
<path d="M125.685 109.466C125.123 109.568 124.511 109.619 123.899 109.67C107.934 111.053 102.017 86.1114 96.2018 61.989C90.6929 38.9933 85.031 15.2294 71.5648 17.4317L71.0547 14.2563C87.4794 11.5931 93.4983 36.8423 99.3643 61.2719C104.822 84.0627 110.433 107.622 123.644 106.495C124.154 106.444 124.715 106.393 125.174 106.29L125.685 109.466Z" fill="#2E5D7D"/>
<mask id="mask6_4634_58126" style="mask-type:luminance" maskUnits="userSpaceOnUse" x="71" y="14" width="55" height="96">
<path d="M125.685 109.466C125.123 109.568 124.511 109.619 123.899 109.67C107.934 111.053 102.017 86.1114 96.2018 61.989C90.6929 38.9933 85.031 15.2294 71.5648 17.4317L71.0547 14.2563C87.4794 11.5931 93.4983 36.8423 99.3643 61.2719C104.822 84.0627 110.433 107.622 123.644 106.495C124.154 106.444 124.715 106.393 125.174 106.29L125.685 109.466Z" fill="white"/>
</mask>
<g mask="url(#mask6_4634_58126)">
<g opacity="0.3">
<path d="M125.329 112.794C124.768 112.896 124.156 112.947 123.544 112.999C107.578 114.381 101.661 89.4395 95.8463 65.3171C90.3374 42.3214 84.6755 18.5575 71.2093 20.7598L70.6992 17.5844C87.1239 14.9212 93.1429 40.1704 99.0088 64.6001C104.467 87.3909 110.078 110.95 123.289 109.823C123.799 109.772 124.36 109.721 124.819 109.618L125.329 112.794Z" fill="#2E5D7D"/>
</g>
</g>
<path d="M120.33 42.2231C118.442 36.026 117.065 29.9314 115.892 24.2977C114.362 16.8715 115.076 11.033 118.034 7.44792C120.177 4.83594 123.441 3.45312 127.267 3.45312V5.60417C125.022 5.60417 121.911 6.11632 119.718 8.77951C117.167 11.8524 116.606 17.0764 117.983 23.8368C119.156 29.4193 120.483 35.4627 122.37 41.5573L120.33 42.2231Z" fill="#C1E3F9"/>
<path d="M159.605 41.6085C154.453 57.2804 148.332 65.2188 141.293 65.1163C134.254 65.0651 128.235 57.0243 123.389 41.25L119.309 42.5304C124.868 60.5582 132.01 69.316 141.242 69.4184C142.058 69.4184 142.823 69.3672 143.64 69.2135C151.75 67.8819 158.33 59.2266 163.686 42.8889L159.605 41.6085Z" fill="#2E5D7D"/>
<mask id="mask7_4634_58126" style="mask-type:luminance" maskUnits="userSpaceOnUse" x="119" y="41" width="45" height="29">
<path d="M159.605 41.6085C154.453 57.2804 148.332 65.2188 141.293 65.1163C134.254 65.0651 128.235 57.0243 123.389 41.25L119.309 42.5304C124.868 60.5582 132.01 69.316 141.242 69.4184C142.058 69.4184 142.823 69.3672 143.64 69.2135C151.75 67.8819 158.33 59.2266 163.686 42.8889L159.605 41.6085Z" fill="white"/>
</mask>
<g mask="url(#mask7_4634_58126)">
<path opacity="0.3" d="M161.9 41.0437C161.951 40.9413 162.002 40.8389 162.053 40.7877C162.359 40.1731 162.767 39.6097 163.277 39.2C165.011 37.8684 166.848 39.5073 167.919 40.8901C170.112 43.7069 172.051 47.0359 172 50.6722C171.949 53.3866 170.775 55.9474 169.449 58.3033C165.879 64.5515 160.727 69.9804 154.3 73.1557C147.873 76.3311 140.119 77.0481 133.488 74.4361C128.235 72.3363 123.95 68.3415 120.073 64.2443C118.084 62.0932 116.095 59.891 114.768 57.279C113.748 55.2816 113.085 53.0793 112.677 50.8771C112.269 48.6236 112.167 46.2677 112.83 44.1166C113.493 41.9656 115.074 39.917 117.268 39.2512C120.991 46.0116 122.267 53.6427 127.163 59.891C130.326 63.937 134.662 67.0611 139.915 67.0611C140.732 67.0611 141.497 67.0099 142.313 66.8562C147.618 65.9856 151.596 62.042 154.504 57.7399C156.289 55.0767 157.666 52.2087 158.89 49.2382C159.911 46.5238 160.574 43.6045 161.9 41.0437Z" fill="#2E5D7D"/>
</g>
<path d="M162.665 42.5799L160.624 41.9141C162.614 35.8707 164.042 29.8273 165.317 24.2448C166.847 17.5356 166.337 12.3116 163.889 9.13629C161.746 6.42188 158.635 5.80729 156.391 5.80729V3.65625C160.216 3.70747 163.43 5.14149 165.521 7.80469C168.429 11.4922 169.041 17.3307 167.357 24.7057C166.184 30.3906 164.705 36.434 162.665 42.5799Z" fill="#C1E3F9"/>
<path d="M126.575 2.3555L123.352 2.87109L124.058 7.3217L127.281 6.80611L126.575 2.3555Z" fill="#2E5D7D"/>
<path d="M136.191 3.14321C136.191 3.04078 136.14 2.93835 136.089 2.83592C135.222 0.88974 131.141 0.377588 129.968 0.275157C128.744 0.172727 127.673 0.633664 126.602 2.4262L126.806 3.7578L127.112 5.55033L127.316 6.88193C128.846 8.21352 130.019 8.36717 131.141 7.85502C132.212 7.39408 135.987 5.60155 136.191 3.50172C136.191 3.34807 136.191 3.24564 136.191 3.14321Z" fill="#A2C6DB"/>
<mask id="mask8_4634_58126" style="mask-type:luminance" maskUnits="userSpaceOnUse" x="126" y="0" width="11" height="9">
<path d="M136.191 3.14321C136.191 3.04078 136.14 2.93835 136.089 2.83592C135.222 0.88974 131.141 0.377588 129.968 0.275157C128.744 0.172727 127.673 0.633664 126.602 2.4262L126.806 3.7578L127.112 5.55033L127.316 6.88193C128.846 8.21352 130.019 8.36717 131.141 7.85502C132.212 7.39408 135.987 5.60155 136.191 3.50172C136.191 3.34807 136.191 3.24564 136.191 3.14321Z" fill="white"/>
</mask>
<g mask="url(#mask8_4634_58126)">
<path d="M143.945 0.531194C144.353 3.09196 141.089 5.75515 136.702 6.47217C132.315 7.18918 128.388 5.65272 127.98 3.09196C127.572 0.531194 130.836 -2.132 135.223 -2.84901C139.661 -3.51481 143.537 -2.02957 143.945 0.531194Z" fill="#C1E3F9"/>
</g>
<path d="M156.594 6.7998L159.824 7.27344L160.473 2.81382L157.243 2.34018L156.594 6.7998Z" fill="#2E5D7D"/>
<path d="M147.668 3.19549C147.668 3.09306 147.719 2.99063 147.77 2.8882C148.586 0.942018 152.718 0.37865 153.891 0.225004C155.115 0.0713578 156.186 0.58351 157.258 2.32483L157.053 3.65643L156.798 5.50018L156.594 6.83178C155.064 8.21459 153.891 8.36823 152.769 7.85608C151.698 7.39514 147.923 5.65382 147.668 3.554C147.668 3.45157 147.668 3.34914 147.668 3.19549Z" fill="#A2C6DB"/>
<mask id="mask9_4634_58126" style="mask-type:luminance" maskUnits="userSpaceOnUse" x="147" y="0" width="11" height="9">
<path d="M147.668 3.19549C147.668 3.09306 147.719 2.99063 147.77 2.8882C148.586 0.942018 152.718 0.37865 153.891 0.225004C155.115 0.0713578 156.186 0.58351 157.258 2.32483L157.053 3.65643L156.798 5.50018L156.594 6.83178C155.064 8.21459 153.891 8.36823 152.769 7.85608C151.698 7.39514 147.923 5.65382 147.668 3.554C147.668 3.45157 147.668 3.34914 147.668 3.19549Z" fill="white"/>
</mask>
<g mask="url(#mask9_4634_58126)">
<path d="M155.904 3.06607C156.279 0.491137 152.989 -2.12309 148.557 -2.77296C144.125 -3.42283 140.228 -1.86226 139.854 0.712678C139.479 3.28761 142.769 5.90183 147.201 6.5517C151.633 7.20157 155.53 5.64101 155.904 3.06607Z" fill="#C1E3F9"/>
</g>
<path d="M13.2633 53.6936C13.8754 56.5105 12.0901 59.3273 9.28467 59.9419C6.47921 60.5565 3.67375 58.764 3.06165 55.9471C2.44955 53.1303 4.23484 50.3134 7.0403 49.6989C9.89676 49.0843 12.6512 50.8768 13.2633 53.6936Z" fill="#2E5D7D"/>
<path opacity="0.2" d="M10.1483 57.7404C7.34285 58.355 4.53739 56.5625 3.92529 53.7457C3.77227 53.1311 3.77227 52.5165 3.87428 51.9531C3.10916 53.0799 2.80311 54.5139 3.16017 55.9479C3.77227 58.7648 6.57772 60.5573 9.38318 59.9427C11.5765 59.4306 13.1578 57.638 13.4638 55.487C12.6477 56.6137 11.5255 57.4332 10.1483 57.7404Z" fill="#C1E3F9"/>
</svg>
