<svg width="24" height="24" viewBox="0 0 24 24" fill="none" xmlns="http://www.w3.org/2000/svg">
<g clip-path="url(#clip0_47_1773)">
<path fill-rule="evenodd" clip-rule="evenodd" d="M16.8373 9.9736C17.0542 9.73328 17.0542 9.34364 16.8373 9.10332L12.3928 4.18024C12.2887 4.06483 12.1473 4 12 4C11.8527 4 11.7114 4.06483 11.6072 4.18024L7.16272 9.10332C6.94576 9.34364 6.94576 9.73328 7.16272 9.9736C7.37968 10.2139 7.73144 10.2139 7.94839 9.9736L11.4444 6.10105L11.4444 19.3846C11.4444 19.7245 11.6932 20 12 20C12.3068 20 12.5556 19.7245 12.5556 19.3846L12.5556 6.10105L16.0516 9.9736C16.2686 10.2139 16.6203 10.2139 16.8373 9.9736Z" fill="#151515"/>
</g>
<defs>
<clipPath id="clip0_47_1773">
<rect width="24" height="24" fill="white"/>
</clipPath>
</defs>
</svg>
