<svg width="24" height="24" viewBox="0 0 24 24" fill="none" xmlns="http://www.w3.org/2000/svg">
<path d="M5.51278 11.9957C5.51278 8.5388 8.41446 5.73639 11.9939 5.73639C14.8765 5.73639 17.3203 7.5543 18.1619 10.0681L17.6008 9.5262C17.4519 9.38241 17.2105 9.38241 17.0616 9.5262C16.9128 9.66999 16.9128 9.90312 17.0616 10.0469L18.5866 11.5197C18.68 11.6099 18.8152 11.647 18.9438 11.6177C19.0724 11.5884 19.1761 11.4968 19.2179 11.3758L19.9803 9.1666C20.0469 8.97368 19.939 8.76516 19.7392 8.70086C19.5395 8.63655 19.3236 8.74081 19.257 8.93373L18.9148 9.92518C18.0007 7.0725 15.2483 5 11.9939 5C7.99335 5 4.7503 8.1321 4.7503 11.9957C4.7503 12.1991 4.92099 12.3639 5.13154 12.3639C5.34209 12.3639 5.51278 12.1991 5.51278 11.9957Z" fill="#151515"/>
<path d="M11.8291 18.2614C15.4593 18.3519 18.469 15.6192 18.5612 12.1677C18.5666 11.9644 18.7416 11.8039 18.9521 11.8091C19.1626 11.8144 19.3288 11.9834 19.3234 12.1867C19.2201 16.0534 15.8516 19.0983 11.8094 18.9976C8.64049 18.9186 5.98969 16.9306 5.04074 14.2125L4.73154 14.9065C4.64833 15.0933 4.42408 15.1796 4.23067 15.0992C4.03726 15.0189 3.94792 14.8023 4.03113 14.6155L4.84251 12.7941C4.88938 12.6889 4.98429 12.6107 5.09928 12.5827C5.21427 12.5546 5.33623 12.5798 5.42925 12.6509L6.92421 13.7931C7.08934 13.9192 7.1173 14.1508 6.98667 14.3103C6.85604 14.4698 6.61627 14.4968 6.45115 14.3706L5.70454 13.8002C6.49734 16.3196 8.91589 18.1889 11.8291 18.2614Z" fill="#151515"/>
<path d="M13 12C13 12.5523 12.5523 13 12 13C11.4477 13 11 12.5523 11 12C11 11.4477 11.4477 11 12 11C12.5523 11 13 11.4477 13 12Z" fill="#151515"/>
<path fill-rule="evenodd" clip-rule="evenodd" d="M12 16C14.2091 16 16 14.2091 16 12C16 9.79086 14.2091 8 12 8C9.79086 8 8 9.79086 8 12C8 14.2091 9.79086 16 12 16ZM12 15C13.6569 15 15 13.6569 15 12C15 10.3431 13.6569 9 12 9C10.3431 9 9 10.3431 9 12C9 13.6569 10.3431 15 12 15Z" fill="#151515"/>
</svg>
