<svg width="24" height="24" viewBox="0 0 24 24" fill="none" xmlns="http://www.w3.org/2000/svg">
<path d="M11.9939 5.78899C8.41446 5.78899 5.51278 8.79157 5.51278 12.4954C5.51278 12.7133 5.34209 12.8899 5.13154 12.8899C4.92099 12.8899 4.7503 12.7133 4.7503 12.4954C4.7503 8.35582 7.99335 5 11.9939 5C15.2483 5 18.0007 7.22053 18.9148 10.277L19.257 9.21471C19.3236 9.00801 19.5395 8.89631 19.7392 8.96521C19.939 9.0341 20.0469 9.25752 19.9803 9.46421L19.2179 11.8312C19.1761 11.9609 19.0724 12.059 18.9438 12.0904C18.8152 12.1218 18.68 12.0821 18.5866 11.9854L17.0616 10.4074C16.9128 10.2533 16.9128 10.0036 17.0616 9.8495C17.2105 9.69544 17.4519 9.69544 17.6008 9.8495L18.1619 10.4301C17.3203 7.73675 14.8765 5.78899 11.9939 5.78899Z" fill="#151515"/>
<path fill-rule="evenodd" clip-rule="evenodd" d="M11.9939 17.2294C13.6783 17.2294 15.0438 15.6879 15.0438 13.7865C15.0438 12.4186 13.4653 9.90053 12.5794 8.59519C12.2909 8.16996 11.6968 8.16996 11.4083 8.59519C10.5225 9.90052 8.94394 12.4186 8.94394 13.7865C8.94394 15.6879 10.3094 17.2294 11.9939 17.2294ZM11.9939 16.4404C13.1961 16.4404 14.2813 15.3182 14.2813 13.7865C14.2813 13.5825 14.2182 13.2716 14.0689 12.8576C13.9238 12.4552 13.7164 12.0066 13.4736 11.5437C13.0024 10.6451 12.4256 9.74434 11.9939 9.10533C11.5621 9.74434 10.9853 10.6451 10.5141 11.5437C10.2714 12.0066 10.0639 12.4552 9.9188 12.8576C9.76954 13.2716 9.70642 13.5825 9.70642 13.7865C9.70642 15.3182 10.7916 16.4404 11.9939 16.4404Z" fill="#151515"/>
<path d="M18.5612 12.6797C18.469 16.3777 15.4593 19.3056 11.8291 19.2087C8.91589 19.1309 6.49735 17.1281 5.70454 14.4288L6.45115 15.0399C6.61627 15.1751 6.85604 15.1462 6.98667 14.9753C7.1173 14.8044 7.08934 14.5563 6.92421 14.4212L5.42925 13.1974C5.33623 13.1212 5.21427 13.0942 5.09928 13.1243C4.98429 13.1544 4.88939 13.2381 4.84251 13.3508L4.03113 15.3023C3.94792 15.5025 4.03726 15.7345 4.23067 15.8206C4.42408 15.9067 4.64833 15.8143 4.73154 15.6141L5.04074 14.8705C5.98969 17.7828 8.64049 19.9128 11.8094 19.9974C15.8516 20.1053 19.2201 16.8429 19.3234 12.7C19.3288 12.4822 19.1626 12.3011 18.9521 12.2955C18.7416 12.2899 18.5666 12.4619 18.5612 12.6797Z" fill="#151515"/>
</svg>
