<svg width="16" height="16" viewBox="0 0 16 16" fill="none" xmlns="http://www.w3.org/2000/svg">
<path fill-rule="evenodd" clip-rule="evenodd" d="M8 14.8571C11.7871 14.8571 14.8571 11.7871 14.8571 8C14.8571 4.2129 11.7871 1.14286 8 1.14286C4.2129 1.14286 1.14286 4.2129 1.14286 8C1.14286 11.7871 4.2129 14.8571 8 14.8571ZM8 16C12.4183 16 16 12.4183 16 8C16 3.58172 12.4183 0 8 0C3.58172 0 0 3.58172 0 8C0 12.4183 3.58172 16 8 16Z" fill="#151515"/>
<path fill-rule="evenodd" clip-rule="evenodd" d="M8 2.28571C8.31559 2.28571 8.57143 2.54155 8.57143 2.85714V7.76331L11.2612 10.4531C11.4844 10.6762 11.4844 11.038 11.2612 11.2612C11.038 11.4844 10.6762 11.4844 10.4531 11.2612L7.59594 8.40406C7.48878 8.2969 7.42857 8.15155 7.42857 8V2.85714C7.42857 2.54155 7.68441 2.28571 8 2.28571Z" fill="#151515"/>
</svg>
