<svg width="24" height="24" viewBox="0 0 24 24" fill="none" xmlns="http://www.w3.org/2000/svg">
<g clip-path="url(#clip0_1178_56206)">
<path fill-rule="evenodd" clip-rule="evenodd" d="M15.5895 16.2856C14.3607 17.3535 12.7558 18 11 18C7.13401 18 4 14.866 4 11C4 7.13401 7.13401 4 11 4C14.866 4 18 7.13401 18 11C18 12.7558 17.3535 14.3607 16.2856 15.5895C16.3095 15.6062 16.3323 15.6251 16.3536 15.6464L19.8536 19.1464C20.0488 19.3417 20.0488 19.6583 19.8536 19.8536C19.6583 20.0488 19.3417 20.0488 19.1464 19.8536L15.6464 16.3536C15.6251 16.3323 15.6062 16.3095 15.5895 16.2856ZM17 11C17 14.3137 14.3137 17 11 17C7.68629 17 5 14.3137 5 11C5 7.68629 7.68629 5 11 5C14.3137 5 17 7.68629 17 11Z" fill="#151515"/>
</g>
<defs>
<clipPath id="clip0_1178_56206">
<rect width="24" height="24" fill="white"/>
</clipPath>
</defs>
</svg>
