<svg width="24" height="24" viewBox="0 0 24 24" fill="none" xmlns="http://www.w3.org/2000/svg">
<g clip-path="url(#clip0_26_1763)">
<path d="M16.5 16C16.2239 16 16 16.2239 16 16.5V18.5C16 18.7761 16.2239 19 16.5 19H18.5C18.7761 19 19 18.7761 19 18.5V16.5C19 16.2239 18.7761 16 18.5 16H16.5Z" fill="#151515"/>
<path fill-rule="evenodd" clip-rule="evenodd" d="M6.5 3C6.77614 3 7 3.22386 7 3.5V5H11.5V3.5C11.5 3.22386 11.7239 3 12 3C12.2761 3 12.5 3.22386 12.5 3.5V5H17V3.5C17 3.22386 17.2239 3 17.5 3C17.7761 3 18 3.22386 18 3.5V5H19C20.1046 5 21 5.89543 21 7V19C21 20.1046 20.1046 21 19 21H5C3.89543 21 3 20.1046 3 19V7C3 5.89543 3.89543 5 5 5H6V3.5C6 3.22386 6.22386 3 6.5 3ZM6 6.5V6H5C4.44772 6 4 6.44772 4 7V10.5H20V7C20 6.44772 19.5523 6 19 6H18V6.5C18 6.77614 17.7761 7 17.5 7C17.2239 7 17 6.77614 17 6.5V6H12.5V6.5C12.5 6.77614 12.2761 7 12 7C11.7239 7 11.5 6.77614 11.5 6.5V6H7V6.5C7 6.77614 6.77614 7 6.5 7C6.22386 7 6 6.77614 6 6.5ZM4 11.5V19C4 19.5523 4.44772 20 5 20H19C19.5523 20 20 19.5523 20 19V11.5H4Z" fill="#151515"/>
</g>
<defs>
<clipPath id="clip0_26_1763">
<rect width="24" height="24" fill="white"/>
</clipPath>
</defs>
</svg>
