<svg width="24" height="24" viewBox="0 0 24 24" fill="none" xmlns="http://www.w3.org/2000/svg">
<g clip-path="url(#clip0_426_17094)">
<path fill-rule="evenodd" clip-rule="evenodd" d="M4 8C4 6.89543 4.89543 6 6 6H18C19.1046 6 20 6.89543 20 8V16C20 17.1046 19.1046 18 18 18H6C4.89543 18 4 17.1046 4 16V8ZM6 7H18C18.0709 7 18.14 7.00738 18.2068 7.0214L12.9762 11.5047C12.4145 11.9862 11.5856 11.9862 11.0238 11.5047L5.79326 7.0214C5.85997 7.00737 5.92912 7 6 7ZM5.04633 7.69825C5.01623 7.79346 5 7.89484 5 8V16C5 16.5523 5.44772 17 6 17H18C18.5523 17 19 16.5523 19 16V8C19 7.89484 18.9838 7.79347 18.9537 7.69826L13.627 12.264C12.6908 13.0665 11.3093 13.0665 10.373 12.264L5.04633 7.69825Z" fill="#151515"/>
</g>
<defs>
<clipPath id="clip0_426_17094">
<rect width="24" height="24" fill="white"/>
</clipPath>
</defs>
</svg>
