<svg width="17" height="16" viewBox="0 0 17 16" fill="none" xmlns="http://www.w3.org/2000/svg">
<path d="M8.5 0C8.00908 0 7.61111 0.39797 7.61111 0.888889V7.11111L1.38889 7.11111C0.897969 7.11111 0.5 7.50908 0.5 8C0.5 8.49092 0.897969 8.88889 1.38889 8.88889H7.61111V15.1111C7.61111 15.602 8.00908 16 8.5 16C8.99092 16 9.38889 15.602 9.38889 15.1111V8.88889H15.6111C16.102 8.88889 16.5 8.49092 16.5 8C16.5 7.50908 16.102 7.11111 15.6111 7.11111L9.38889 7.11111V0.888889C9.38889 0.397969 8.99092 0 8.5 0Z" fill="#008C99"/>
</svg>
