<svg width="15" height="17" viewBox="0 0 15 17" fill="none" xmlns="http://www.w3.org/2000/svg">
<path d="M9.86035 2.96387C10.3667 2.34961 10.7236 1.51123 10.7236 0.664551C10.7236 0.54834 10.7153 0.432129 10.6987 0.34082C9.86865 0.374023 8.87256 0.888672 8.2832 1.58594C7.81006 2.11719 7.37842 2.96387 7.37842 3.81055C7.37842 3.94336 7.40332 4.06787 7.41162 4.10938C7.46143 4.11768 7.54443 4.13428 7.63574 4.13428C8.37451 4.13428 9.3042 3.63623 9.86035 2.96387ZM10.4414 4.30859C9.20459 4.30859 8.19189 5.06396 7.54443 5.06396C6.85547 5.06396 5.95898 4.3584 4.87988 4.3584C2.82959 4.3584 0.754395 6.05176 0.754395 9.23926C0.754395 11.2314 1.51807 13.3315 2.47266 14.6846C3.28613 15.8301 4 16.7681 5.0293 16.7681C6.04199 16.7681 6.49023 16.0957 7.75195 16.0957C9.03027 16.0957 9.3208 16.7515 10.4414 16.7515C11.5537 16.7515 12.2925 15.7305 12.998 14.7261C13.7783 13.5723 14.1104 12.4517 14.1187 12.3936C14.0522 12.377 11.9272 11.5054 11.9272 9.07324C11.9272 6.96484 13.5957 6.01855 13.6953 5.94385C12.5913 4.3584 10.9062 4.30859 10.4414 4.30859Z" fill="white"/>
</svg>
