<svg width="24" height="24" viewBox="0 0 24 24" fill="none" xmlns="http://www.w3.org/2000/svg">
<g clip-path="url(#clip0_37_5316)">
<path d="M16.3536 10.3536C16.5488 10.1583 16.5488 9.84171 16.3536 9.64645C16.1583 9.45118 15.8417 9.45118 15.6464 9.64645L11 14.2929L8.35355 11.6464C8.15829 11.4512 7.84171 11.4512 7.64645 11.6464C7.45118 11.8417 7.45118 12.1583 7.64645 12.3536L10.6464 15.3536C10.8417 15.5488 11.1583 15.5488 11.3536 15.3536L16.3536 10.3536Z" fill="#151515"/>
<path fill-rule="evenodd" clip-rule="evenodd" d="M21 12C21 16.9706 16.9706 21 12 21C7.02944 21 3 16.9706 3 12C3 7.02944 7.02944 3 12 3C16.9706 3 21 7.02944 21 12ZM20 12C20 16.4183 16.4183 20 12 20C7.58172 20 4 16.4183 4 12C4 7.58172 7.58172 4 12 4C16.4183 4 20 7.58172 20 12Z" fill="#151515"/>
</g>
<defs>
<clipPath id="clip0_37_5316">
<rect width="24" height="24" fill="white"/>
</clipPath>
</defs>
</svg>
