<svg width="18" height="18" viewBox="0 0 18 18" fill="none" xmlns="http://www.w3.org/2000/svg">
<path d="M13.5 13C13.2239 13 13 13.2239 13 13.5V15.5C13 15.7761 13.2239 16 13.5 16H15.5C15.7761 16 16 15.7761 16 15.5V13.5C16 13.2239 15.7761 13 15.5 13H13.5Z" fill="#151515"/>
<path fill-rule="evenodd" clip-rule="evenodd" d="M3.5 0C3.77614 0 4 0.223858 4 0.5V2H8.5V0.5C8.5 0.223858 8.72386 0 9 0C9.27614 0 9.5 0.223858 9.5 0.5V2H14V0.5C14 0.223858 14.2239 0 14.5 0C14.7761 0 15 0.223858 15 0.5V2H16C17.1046 2 18 2.89543 18 4V16C18 17.1046 17.1046 18 16 18H2C0.89543 18 0 17.1046 0 16V4C0 2.89543 0.895431 2 2 2H3V0.5C3 0.223858 3.22386 0 3.5 0ZM3 3.5V3H2C1.44772 3 1 3.44772 1 4V7.5H17V4C17 3.44772 16.5523 3 16 3H15V3.5C15 3.77614 14.7761 4 14.5 4C14.2239 4 14 3.77614 14 3.5V3H9.5V3.5C9.5 3.77614 9.27614 4 9 4C8.72386 4 8.5 3.77614 8.5 3.5V3H4V3.5C4 3.77614 3.77614 4 3.5 4C3.22386 4 3 3.77614 3 3.5ZM1 8.5V16C1 16.5523 1.44772 17 2 17H16C16.5523 17 17 16.5523 17 16V8.5H1Z" fill="#151515"/>
</svg>
