<svg width="24" height="24" viewBox="0 0 24 24" fill="none" xmlns="http://www.w3.org/2000/svg">
<g clip-path="url(#clip0_5082_68497)">
<path fill-rule="evenodd" clip-rule="evenodd" d="M5.13668 5.13668C5.31893 4.95444 5.61441 4.95444 5.79665 5.13668L18.8633 18.2033C19.0456 18.3856 19.0456 18.6811 18.8633 18.8633C18.6811 19.0456 18.3856 19.0456 18.2033 18.8633L5.13668 5.79665C4.95444 5.61441 4.95444 5.31893 5.13668 5.13668Z" fill="#DB1818"/>
<path fill-rule="evenodd" clip-rule="evenodd" d="M18.8633 5.13668C18.6811 4.95444 18.3856 4.95444 18.2034 5.13668L5.13668 18.2033C4.95444 18.3856 4.95444 18.6811 5.13668 18.8633C5.31893 19.0456 5.61441 19.0456 5.79665 18.8633L18.8633 5.79665C19.0456 5.61441 19.0456 5.31893 18.8633 5.13668Z" fill="#DB1818"/>
</g>
<defs>
<clipPath id="clip0_5082_68497">
<rect width="24" height="24" fill="white"/>
</clipPath>
</defs>
</svg>
