<svg width="19" height="18" viewBox="0 0 19 18" fill="none" xmlns="http://www.w3.org/2000/svg">
<path d="M14 13C13.7239 13 13.5 13.2239 13.5 13.5V15.5C13.5 15.7761 13.7239 16 14 16H16C16.2761 16 16.5 15.7761 16.5 15.5V13.5C16.5 13.2239 16.2761 13 16 13H14Z" fill="#151515"/>
<path fill-rule="evenodd" clip-rule="evenodd" d="M4 0C4.27614 0 4.5 0.223858 4.5 0.5V2H9V0.5C9 0.223858 9.22386 0 9.5 0C9.77614 0 10 0.223858 10 0.5V2H14.5V0.5C14.5 0.223858 14.7239 0 15 0C15.2761 0 15.5 0.223858 15.5 0.5V2H16.5C17.6046 2 18.5 2.89543 18.5 4V16C18.5 17.1046 17.6046 18 16.5 18H2.5C1.39543 18 0.5 17.1046 0.5 16V4C0.5 2.89543 1.39543 2 2.5 2H3.5V0.5C3.5 0.223858 3.72386 0 4 0ZM3.5 3.5V3H2.5C1.94772 3 1.5 3.44772 1.5 4V7.5H17.5V4C17.5 3.44772 17.0523 3 16.5 3H15.5V3.5C15.5 3.77614 15.2761 4 15 4C14.7239 4 14.5 3.77614 14.5 3.5V3H10V3.5C10 3.77614 9.77614 4 9.5 4C9.22386 4 9 3.77614 9 3.5V3H4.5V3.5C4.5 3.77614 4.27614 4 4 4C3.72386 4 3.5 3.77614 3.5 3.5ZM1.5 8.5V16C1.5 16.5523 1.94772 17 2.5 17H16.5C17.0523 17 17.5 16.5523 17.5 16V8.5H1.5Z" fill="#151515"/>
</svg>
