<svg width="24" height="24" viewBox="0 0 24 24" fill="none" xmlns="http://www.w3.org/2000/svg">
<path fill-rule="evenodd" clip-rule="evenodd" d="M6.1926 7C5.53395 7 5 7.51488 5 8.15V15.85C5 16.4852 5.53395 17 6.1926 17H14.1778C14.8365 17 15.3704 16.4852 15.3704 15.85V14.7647L18.36 15.9178C18.5038 15.9733 18.6667 15.9564 18.7949 15.8726C18.9232 15.7889 19 15.6493 19 15.5V8.49998C19 8.35066 18.9232 8.21107 18.7949 8.12735C18.6667 8.04364 18.5038 8.02671 18.36 8.08217L15.3704 9.2353V8.15C15.3704 7.51488 14.8365 7 14.1778 7H6.1926ZM14.4371 9.8881C14.4368 9.8961 14.4368 9.90412 14.4371 9.91215V14.0878C14.4368 14.0959 14.4368 14.1039 14.4371 14.1119V15.85C14.4371 15.9881 14.321 16.1 14.1778 16.1H6.1926C6.04941 16.1 5.93334 15.9881 5.93334 15.85V8.15C5.93334 8.01194 6.04941 7.9 6.1926 7.9H14.1778C14.321 7.9 14.4371 8.01193 14.4371 8.15V9.8881ZM15.3704 13.7954V10.2046L18.0667 9.16465V14.8353L15.3704 13.7954Z" fill="#151515"/>
</svg>
