<svg width="24" height="24" viewBox="0 0 24 24" fill="none" xmlns="http://www.w3.org/2000/svg">
<g clip-path="url(#clip0_43_2904)">
<path d="M12 14.6133C8.15725 14.6133 5.01641 13.0389 3.89047 11L3 11.4532C3.42835 12.2289 4.07494 12.9244 4.886 13.5135L4.09679 14.2712C3.89999 14.4601 3.89999 14.7665 4.09679 14.9554C4.29359 15.1444 4.61267 15.1444 4.80947 14.9554L5.74091 14.0612C6.25366 14.3508 6.8126 14.6042 7.40826 14.8169L6.98788 16.4312C6.92038 16.6904 7.08454 16.9531 7.35455 17.0179C7.62456 17.0827 7.89816 16.9251 7.96567 16.6659L8.36932 15.1158C8.89175 15.2555 9.43593 15.3656 9.99647 15.4436V17.0324C9.99647 17.2996 10.2221 17.5162 10.5004 17.5162C10.7787 17.5162 11.0044 17.2996 11.0044 17.0324V15.5474C11.3323 15.5696 11.6645 15.5809 12 15.5809C12.173 15.5809 12.3451 15.5779 12.5162 15.572V17.5162C12.5162 17.7834 12.7418 18 13.0201 18C13.2984 18 13.524 17.7834 13.524 17.5162V15.502C13.8865 15.464 14.243 15.4128 14.5921 15.3489L15.0617 16.7016C15.1497 16.955 15.4351 17.092 15.6992 17.0075C15.9632 16.923 16.1059 16.6491 16.0179 16.3956L15.5784 15.1296C16.0024 15.0182 16.4123 14.8872 16.8053 14.7383L17.1048 15.3135C17.2293 15.5525 17.532 15.6494 17.7809 15.5299C18.0299 15.4104 18.1308 15.1197 18.0063 14.8808L17.7254 14.3414C18.1389 14.1398 18.5275 13.9162 18.8869 13.6728L19.215 13.9878C19.4118 14.1767 19.7309 14.1767 19.9277 13.9878C20.1245 13.7988 20.1245 13.4925 19.9277 13.3036L19.6777 13.0635C20.2277 12.5801 20.6762 12.0396 21 11.4532L20.1095 11C18.9836 13.0389 15.8427 14.6133 12 14.6133Z" fill="#151515"/>
</g>
<defs>
<clipPath id="clip0_43_2904">
<rect width="24" height="24" fill="white"/>
</clipPath>
</defs>
</svg>
