<svg width="24" height="24" viewBox="0 0 24 24" fill="none" xmlns="http://www.w3.org/2000/svg">
<g clip-path="url(#clip0_1359_41835)">
<path fill-rule="evenodd" clip-rule="evenodd" d="M12 18.8571C15.7871 18.8571 18.8571 15.7871 18.8571 12C18.8571 8.2129 15.7871 5.14286 12 5.14286C8.2129 5.14286 5.14286 8.2129 5.14286 12C5.14286 15.7871 8.2129 18.8571 12 18.8571ZM12 20C16.4183 20 20 16.4183 20 12C20 7.58172 16.4183 4 12 4C7.58172 4 4 7.58172 4 12C4 16.4183 7.58172 20 12 20Z" fill="#151515"/>
<path fill-rule="evenodd" clip-rule="evenodd" d="M12 6.28571C12.3156 6.28571 12.5714 6.54155 12.5714 6.85714V11.7633L15.2612 14.4531C15.4844 14.6762 15.4844 15.038 15.2612 15.2612C15.038 15.4844 14.6762 15.4844 14.4531 15.2612L11.5959 12.4041C11.4888 12.2969 11.4286 12.1516 11.4286 12V6.85714C11.4286 6.54155 11.6844 6.28571 12 6.28571Z" fill="#151515"/>
</g>
<defs>
<clipPath id="clip0_1359_41835">
<rect width="24" height="24" fill="white"/>
</clipPath>
</defs>
</svg>
