<svg width="24" height="24" viewBox="0 0 24 24" fill="none" xmlns="http://www.w3.org/2000/svg">
<path d="M5.79665 5.13668C5.61441 4.95444 5.31893 4.95444 5.13668 5.13668C4.95444 5.31893 4.95444 5.61441 5.13668 5.79665L18.2034 18.8633C18.3856 19.0456 18.6811 19.0456 18.8633 18.8633C19.0456 18.6811 19.0456 18.3856 18.8633 18.2034L5.79665 5.13668Z" fill="#151515"/>
<path d="M5.93333 15.9926V9.09632C5.93333 8.83859 5.7244 8.62965 5.46667 8.62965C5.20893 8.62965 5 8.83859 5 9.09632V15.9926C5 16.6513 5.53395 17.1852 6.19259 17.1852H13.4519C13.7096 17.1852 13.9185 16.9763 13.9185 16.7185C13.9185 16.4608 13.7096 16.2519 13.4519 16.2519H6.19259C6.0494 16.2519 5.93333 16.1358 5.93333 15.9926Z" fill="#151515"/>
<path d="M10.0814 7.28147C10.0814 7.02373 10.2903 6.8148 10.548 6.8148H14.1777C14.8363 6.8148 15.3703 7.34875 15.3703 8.00739V9.13295L18.36 7.93706C18.5038 7.87955 18.6667 7.8971 18.7949 7.98392C18.9232 8.07073 19 8.2155 19 8.37035V15.6296C19 15.8873 18.7911 16.0963 18.5333 16.0963C18.2756 16.0963 18.0667 15.8873 18.0667 15.6296V9.05963L15.3703 10.1382V11.2741C15.3703 11.5318 15.1613 11.7407 14.9036 11.7407C14.6459 11.7407 14.4369 11.5318 14.4369 11.2741V9.82823C14.4369 9.8243 14.4369 9.82038 14.4369 9.81646V8.00739C14.4369 7.8642 14.3209 7.74813 14.1777 7.74813H10.548C10.2903 7.74813 10.0814 7.5392 10.0814 7.28147Z" fill="#151515"/>
</svg>
