<svg width="24" height="24" viewBox="0 0 24 24" fill="none" xmlns="http://www.w3.org/2000/svg">
<g clip-path="url(#clip0_47_1776)">
<path fill-rule="evenodd" clip-rule="evenodd" d="M16.8373 14.0264C17.0542 14.2667 17.0542 14.6564 16.8373 14.8967L12.3928 19.8198C12.2887 19.9352 12.1473 20 12 20C11.8527 20 11.7114 19.9352 11.6072 19.8198L7.16272 14.8967C6.94576 14.6564 6.94576 14.2667 7.16272 14.0264C7.37968 13.7861 7.73144 13.7861 7.94839 14.0264L11.4444 17.8989L11.4444 4.61538C11.4444 4.27552 11.6932 4 12 4C12.3068 4 12.5556 4.27552 12.5556 4.61538L12.5556 17.8989L16.0516 14.0264C16.2686 13.7861 16.6203 13.7861 16.8373 14.0264Z" fill="#151515"/>
</g>
<defs>
<clipPath id="clip0_47_1776">
<rect width="24" height="24" fill="white"/>
</clipPath>
</defs>
</svg>
