<svg width="20" height="22" viewBox="0 0 20 22" fill="none" xmlns="http://www.w3.org/2000/svg">
<path fill-rule="evenodd" clip-rule="evenodd" d="M12.0585 1.8697C11.6282 1.36101 10.9828 1.07987 10.1731 1.06894C9.91491 0.629013 9.43221 0.333008 8.87934 0.333008C8.05459 0.333008 7.38601 0.991714 7.38601 1.80427C7.38601 2.61683 8.05459 3.27553 8.87934 3.27553C9.43187 3.27553 9.91432 2.97989 10.1726 2.5404C10.612 2.55014 10.8095 2.69123 10.9113 2.81158C11.0367 2.95989 11.1193 3.20089 11.1193 3.52071C11.1193 3.62777 11.0648 3.94018 10.9312 4.45979C10.8061 4.94633 10.6331 5.53717 10.4439 6.14943C10.066 7.37268 9.63343 8.65145 9.41544 9.29574C9.21838 9.87817 8.94556 10.388 8.53541 10.7517C8.14277 11.0998 7.56456 11.3674 6.63935 11.3674C5.70998 11.3674 5.13469 11.1043 4.74543 10.7609C4.33853 10.402 4.06566 9.89398 3.86325 9.29574C3.64527 8.65145 3.21265 7.37268 2.83478 6.14943C2.64564 5.53717 2.47256 4.94633 2.34746 4.45979C2.21385 3.94018 2.15935 3.62777 2.15935 3.52071C2.15935 3.20089 2.24195 2.95989 2.3674 2.81158C2.46919 2.69124 2.66667 2.55014 3.10609 2.54041C3.36437 2.97989 3.84681 3.27553 4.39934 3.27553C5.22409 3.27553 5.89268 2.61683 5.89268 1.80427C5.89268 0.991714 5.22409 0.333008 4.39934 0.333008C3.84647 0.333008 3.36378 0.629013 3.10562 1.06894C2.29584 1.07988 1.65045 1.36101 1.22019 1.8697C0.80119 2.36507 0.666016 2.9823 0.666016 3.52071C0.666016 3.84277 0.77485 4.33496 0.899853 4.8211C1.03336 5.3403 1.21417 5.95636 1.40614 6.57781C1.79012 7.82079 2.22814 9.11543 2.44592 9.75913L2.44655 9.76099C2.68918 10.4781 3.06965 11.2575 3.74926 11.857C4.30014 12.343 5.00529 12.6738 5.89274 12.7913V16.5169C5.89274 17.3957 6.19794 18.6754 7.11301 19.7487C8.05253 20.8506 9.57697 21.6663 11.8661 21.6663C14.1552 21.6663 15.6796 20.8506 16.6191 19.7487C17.5342 18.6754 17.8394 17.3957 17.8394 16.5169V9.16058C17.8394 9.11899 17.8359 9.07821 17.8292 9.03851C18.7045 8.7384 19.3327 7.91832 19.3327 6.95367C19.3327 5.73484 18.3298 4.74678 17.0927 4.74678C15.8556 4.74678 14.8527 5.73484 14.8527 6.95367C14.8527 7.91834 15.4809 8.73845 16.3563 9.03853C16.3496 9.07823 16.3461 9.119 16.3461 9.16058V16.5169C16.3461 17.1093 16.1286 18.0366 15.4757 18.8024C14.8472 19.5395 13.7583 20.195 11.8661 20.195C9.97384 20.195 8.88495 19.5395 8.25646 18.8024C7.60354 18.0366 7.38607 17.1093 7.38607 16.5169V12.7905C8.27704 12.6707 8.98386 12.3334 9.5344 11.8453C10.2131 11.2434 10.5936 10.4659 10.8321 9.76099L10.8328 9.75907L10.8329 9.75884C11.0507 9.11504 11.4886 7.82061 11.8726 6.57781C12.0645 5.95636 12.2453 5.3403 12.3788 4.8211C12.5038 4.33496 12.6127 3.84277 12.6127 3.52071C12.6127 2.9823 12.4775 2.36507 12.0585 1.8697ZM17.8394 6.95365C17.8394 7.35992 17.5051 7.68928 17.0927 7.68928C16.6803 7.68928 16.346 7.35992 16.346 6.95365C16.346 6.54737 16.6803 6.21802 17.0927 6.21802C17.5051 6.21802 17.8394 6.54737 17.8394 6.95365Z" fill="#6F6F6F"/>
</svg>
