<svg width="24" height="24" viewBox="0 0 24 24" fill="none" xmlns="http://www.w3.org/2000/svg">
<g clip-path="url(#clip0_43_2909)">
<path fill-rule="evenodd" clip-rule="evenodd" d="M15 12C15 13.6569 13.6569 15 12 15C10.3431 15 9 13.6569 9 12C9 10.3431 10.3431 9 12 9C13.6569 9 15 10.3431 15 12ZM14 12C14 13.1046 13.1046 14 12 14C10.8954 14 10 13.1046 10 12C10 10.8954 10.8954 10 12 10C13.1046 10 14 10.8954 14 12Z" fill="#151515"/>
<path fill-rule="evenodd" clip-rule="evenodd" d="M12 17C7.02944 17 3 12 3 12C3 12 7.02944 7 12 7C16.9706 7 21 12 21 12C21 12 16.9706 17 12 17ZM4.42449 12.0844C4.39651 12.0556 4.36937 12.0275 4.34308 12C4.36937 11.9725 4.39651 11.9444 4.42449 11.9156C4.85481 11.4727 5.47768 10.8821 6.24488 10.2933C7.80324 9.09726 9.83766 8 12 8C14.1623 8 16.1968 9.09726 17.7551 10.2933C18.5223 10.8821 19.1452 11.4727 19.5755 11.9156C19.6035 11.9444 19.6306 11.9725 19.6569 12C19.6306 12.0275 19.6035 12.0556 19.5755 12.0844C19.1452 12.5273 18.5223 13.1179 17.7551 13.7067C16.1968 14.9027 14.1623 16 12 16C9.83766 16 7.80324 14.9027 6.24488 13.7067C5.47768 13.1179 4.85481 12.5273 4.42449 12.0844Z" fill="#151515"/>
</g>
<defs>
<clipPath id="clip0_43_2909">
<rect width="24" height="24" fill="white"/>
</clipPath>
</defs>
</svg>
