<svg width="24" height="24" viewBox="0 0 24 24" fill="none" xmlns="http://www.w3.org/2000/svg">
<g clip-path="url(#clip0_102_16032)">
<path d="M4 6.5C4 6.22386 4.22386 6 4.5 6H19.5C19.7761 6 20 6.22386 20 6.5C20 6.77614 19.7761 7 19.5 7H4.5C4.22386 7 4 6.77614 4 6.5Z" fill="#151515"/>
<path d="M4 11.5C4 11.2239 4.22386 11 4.5 11H19.5C19.7761 11 20 11.2239 20 11.5C20 11.7761 19.7761 12 19.5 12H4.5C4.22386 12 4 11.7761 4 11.5Z" fill="#151515"/>
<path d="M4 16.5C4 16.2239 4.22386 16 4.5 16H19.5C19.7761 16 20 16.2239 20 16.5C20 16.7761 19.7761 17 19.5 17H4.5C4.22386 17 4 16.7761 4 16.5Z" fill="#151515"/>
</g>
<defs>
<clipPath id="clip0_102_16032">
<rect width="24" height="24" fill="white"/>
</clipPath>
</defs>
</svg>
