<svg width="24" height="24" viewBox="0 0 24 24" fill="none" xmlns="http://www.w3.org/2000/svg">
<g clip-path="url(#clip0_26_1765)">
<path fill-rule="evenodd" clip-rule="evenodd" d="M7 3.5C7 3.22386 6.77614 3 6.5 3C6.22386 3 6 3.22386 6 3.5V5H5C3.89543 5 3 5.89543 3 7V19C3 20.1046 3.89543 21 5 21H19C20.1046 21 21 20.1046 21 19V7C21 5.89543 20.1046 5 19 5H18V3.5C18 3.22386 17.7761 3 17.5 3C17.2239 3 17 3.22386 17 3.5V5H12.5V3.5C12.5 3.22386 12.2761 3 12 3C11.7239 3 11.5 3.22386 11.5 3.5V5H7V3.5ZM6 6V6.5C6 6.77614 6.22386 7 6.5 7C6.77614 7 7 6.77614 7 6.5V6H11.5V6.5C11.5 6.77614 11.7239 7 12 7C12.2761 7 12.5 6.77614 12.5 6.5V6H17V6.5C17 6.77614 17.2239 7 17.5 7C17.7761 7 18 6.77614 18 6.5V6H19C19.5523 6 20 6.44772 20 7V10.5H4V7C4 6.44772 4.44772 6 5 6H6ZM4 19V11.5H20V19C20 19.5523 19.5523 20 19 20H5C4.44772 20 4 19.5523 4 19Z" fill="#151515"/>
</g>
<defs>
<clipPath id="clip0_26_1765">
<rect width="24" height="24" fill="white"/>
</clipPath>
</defs>
</svg>
