<svg width="48" height="48" viewBox="0 0 48 48" fill="none" xmlns="http://www.w3.org/2000/svg">
<path d="M28.8516 12.6299H19.1094V30.1587H28.8516V12.6299Z" fill="#FF5A00"/>
<path d="M19.763 21.3946C19.763 17.8333 21.4347 14.6724 24 12.6302C22.1121 11.1436 19.7306 10.2451 17.1329 10.2451C10.9792 10.2451 6 15.2317 6 21.3946C6 27.5575 10.9792 32.5441 17.1329 32.5441C19.7306 32.5441 22.1121 31.6456 24 30.159C21.4311 28.1456 19.763 24.9559 19.763 21.3946Z" fill="#EB001B"/>
<path d="M42 21.3946C42 27.5575 37.0208 32.5441 30.8671 32.5441C28.2694 32.5441 25.8879 31.6456 24 30.159C26.5977 28.1132 28.237 24.9559 28.237 21.3946C28.237 17.8333 26.5653 14.6724 24 12.6302C25.8843 11.1436 28.2658 10.2451 30.8635 10.2451C37.0208 10.2451 42 15.2642 42 21.3946Z" fill="#F79E1B"/>
<path d="M12.4962 37.6934V35.8352C12.4962 35.1244 12.0639 34.6589 11.3217 34.6589C10.9506 34.6589 10.5471 34.7816 10.2696 35.1857C10.0535 34.8465 9.74361 34.6589 9.27884 34.6589C8.96899 34.6589 8.65914 34.7527 8.41414 35.0919V34.7202H7.76562V37.6934H8.41414V36.0517C8.41414 35.5249 8.69157 35.2759 9.12391 35.2759C9.55626 35.2759 9.77243 35.5537 9.77243 36.0517V37.6934H10.4209V36.0517C10.4209 35.5249 10.7308 35.2759 11.1307 35.2759C11.5631 35.2759 11.7792 35.5537 11.7792 36.0517V37.6934H12.4962ZM22.1159 34.7202H21.0639V33.8218H20.4153V34.7202H19.8281V35.3084H20.4153V36.6723C20.4153 37.3543 20.6928 37.7548 21.435 37.7548C21.7124 37.7548 22.0222 37.661 22.2384 37.5383L22.0511 36.979C21.8637 37.1017 21.6475 37.1342 21.4926 37.1342C21.1828 37.1342 21.0603 36.9465 21.0603 36.6398V35.3084H22.1123V34.7202H22.1159ZM27.6211 34.6553C27.25 34.6553 27.0014 34.8429 26.8465 35.0883V34.7166H26.198V37.6898H26.8465V36.0156C26.8465 35.5213 27.0627 35.2398 27.4662 35.2398C27.5887 35.2398 27.7436 35.2723 27.8697 35.3012L28.0571 34.6805C27.9274 34.6553 27.7436 34.6553 27.6211 34.6553ZM19.3021 34.9656C18.9922 34.7491 18.5599 34.6553 18.0951 34.6553C17.3529 34.6553 16.8593 35.0269 16.8593 35.6151C16.8593 36.1094 17.2304 36.3909 17.8789 36.4811L18.1888 36.5135C18.5274 36.5749 18.7148 36.6687 18.7148 36.8238C18.7148 37.0403 18.4662 37.1955 18.0338 37.1955C17.6015 37.1955 17.2592 37.0403 17.043 36.8852L16.7332 37.3795C17.0719 37.6285 17.5366 37.7512 18.0014 37.7512C18.8661 37.7512 19.3633 37.347 19.3633 36.7914C19.3633 36.2646 18.9598 35.9867 18.3437 35.8929L18.0338 35.8604C17.7564 35.828 17.5402 35.7666 17.5402 35.5826C17.5402 35.3661 17.7564 35.2434 18.0987 35.2434C18.4698 35.2434 18.8409 35.3986 19.0282 35.4924L19.3021 34.9656ZM36.5563 34.6553C36.1852 34.6553 35.9366 34.8429 35.7816 35.0883V34.7166H35.1331V37.6898H35.7816V36.0156C35.7816 35.5213 35.9978 35.2398 36.4013 35.2398C36.5238 35.2398 36.6788 35.2723 36.8049 35.3012L36.9922 34.6878C36.8661 34.6553 36.6824 34.6553 36.5563 34.6553ZM28.2696 36.2068C28.2696 37.1053 28.8893 37.7548 29.8477 37.7548C30.28 37.7548 30.5899 37.661 30.8997 37.4156L30.5899 36.8888C30.3413 37.0764 30.0963 37.1666 29.8153 37.1666C29.2892 37.1666 28.9181 36.795 28.9181 36.2068C28.9181 35.6476 29.2892 35.2759 29.8153 35.247C30.0927 35.247 30.3413 35.3409 30.5899 35.5249L30.8997 34.9981C30.5899 34.7491 30.28 34.6589 29.8477 34.6589C28.8893 34.6553 28.2696 35.3084 28.2696 36.2068ZM34.2684 36.2068V34.7202H33.6199V35.0919C33.4037 34.814 33.0939 34.6589 32.6904 34.6589C31.8545 34.6589 31.206 35.3084 31.206 36.2068C31.206 37.1053 31.8545 37.7548 32.6904 37.7548C33.1227 37.7548 33.4326 37.5996 33.6199 37.3218V37.6934H34.2684V36.2068ZM31.8869 36.2068C31.8869 35.68 32.2256 35.247 32.784 35.247C33.3101 35.247 33.6812 35.6512 33.6812 36.2068C33.6812 36.7336 33.3101 37.1666 32.784 37.1666C32.2292 37.1342 31.8869 36.73 31.8869 36.2068ZM24.1263 34.6553C23.2616 34.6553 22.6419 35.2759 22.6419 36.2032C22.6419 37.1342 23.2616 37.7512 24.1587 37.7512C24.5911 37.7512 25.0234 37.6285 25.3657 37.347L25.0559 36.8816C24.8073 37.0692 24.4974 37.1919 24.1912 37.1919C23.7876 37.1919 23.3877 37.0043 23.294 36.4811H25.4882C25.4882 36.3872 25.4882 36.3259 25.4882 36.2321C25.517 35.2759 24.9586 34.6553 24.1263 34.6553ZM24.1263 35.2146C24.5298 35.2146 24.8073 35.4635 24.8685 35.9254H23.3229C23.3841 35.5249 23.6615 35.2146 24.1263 35.2146ZM40.2384 36.2068V33.5439H39.5899V35.0919C39.3737 34.814 39.0639 34.6589 38.6603 34.6589C37.8245 34.6589 37.176 35.3084 37.176 36.2068C37.176 37.1053 37.8245 37.7548 38.6603 37.7548C39.0927 37.7548 39.4025 37.5996 39.5899 37.3218V37.6934H40.2384V36.2068ZM37.8569 36.2068C37.8569 35.68 38.1956 35.247 38.754 35.247C39.28 35.247 39.6511 35.6512 39.6511 36.2068C39.6511 36.7336 39.28 37.1666 38.754 37.1666C38.1956 37.1342 37.8569 36.73 37.8569 36.2068ZM16.1459 36.2068V34.7202H15.4974V35.0919C15.2812 34.814 14.9714 34.6589 14.5679 34.6589C13.732 34.6589 13.0835 35.3084 13.0835 36.2068C13.0835 37.1053 13.732 37.7548 14.5679 37.7548C15.0002 37.7548 15.3101 37.5996 15.4974 37.3218V37.6934H16.1459V36.2068ZM13.7356 36.2068C13.7356 35.68 14.0743 35.247 14.6327 35.247C15.1587 35.247 15.5298 35.6512 15.5298 36.2068C15.5298 36.7336 15.1587 37.1666 14.6327 37.1666C14.0743 37.1342 13.7356 36.73 13.7356 36.2068Z" fill="black"/>
</svg>
