<svg width="24" height="24" viewBox="0 0 24 24" fill="none" xmlns="http://www.w3.org/2000/svg">
<g clip-path="url(#clip0_3532_47160)">
<path d="M5 4C4.44772 4 4 4.44772 4 5V6C4 6.55228 4.44772 7 5 7H6C6.55228 7 7 6.55228 7 6V5C7 4.44772 6.55228 4 6 4H5Z" fill="#151515"/>
<path d="M5 11C4.44772 11 4 11.4477 4 12V13C4 13.5523 4.44772 14 5 14H6C6.55228 14 7 13.5523 7 13V12C7 11.4477 6.55228 11 6 11H5Z" fill="#151515"/>
<path d="M4 18C4 17.4477 4.44772 17 5 17H6C6.55228 17 7 17.4477 7 18V19C7 19.5523 6.55228 20 6 20H5C4.44772 20 4 19.5523 4 19V18Z" fill="#151515"/>
<path d="M8.5 5C8.22386 5 8 5.22386 8 5.5C8 5.77614 8.22386 6 8.5 6H19.5C19.7761 6 20 5.77614 20 5.5C20 5.22386 19.7761 5 19.5 5H8.5Z" fill="#151515"/>
<path d="M8 12.5C8 12.2239 8.22386 12 8.5 12H19.5C19.7761 12 20 12.2239 20 12.5C20 12.7761 19.7761 13 19.5 13H8.5C8.22386 13 8 12.7761 8 12.5Z" fill="#151515"/>
<path d="M8.5 18C8.22386 18 8 18.2239 8 18.5C8 18.7761 8.22386 19 8.5 19H19.5C19.7761 19 20 18.7761 20 18.5C20 18.2239 19.7761 18 19.5 18H8.5Z" fill="#151515"/>
</g>
<defs>
<clipPath id="clip0_3532_47160">
<rect width="24" height="24" fill="white"/>
</clipPath>
</defs>
</svg>
