<svg width="24" height="24" viewBox="0 0 24 24" fill="none" xmlns="http://www.w3.org/2000/svg">
<g clip-path="url(#clip0_664_27175)">
<path d="M19.6614 9.21101C17.8116 7.15146 15.003 5.58018 11.2649 6.10036C8.04073 6.54902 6.25451 8.27335 4.91875 10.2447L4.02076 7.02444C3.94639 6.75776 3.66161 6.59962 3.38467 6.67123C3.10774 6.74285 2.94353 7.0171 3.01789 7.28378L4.22977 11.6297C4.30413 11.8964 4.58892 12.0545 4.86585 11.9829L9.37874 10.8159C9.65567 10.7442 9.81988 10.47 9.74552 10.2033C9.67115 9.93662 9.38636 9.77849 9.10943 9.8501L5.8564 10.6913C7.09307 8.8959 8.65269 7.47422 11.4134 7.09005C14.7238 6.62938 17.2016 8.00085 18.876 9.86516C19.0636 10.074 19.3915 10.0969 19.6084 9.91624C19.8252 9.7356 19.849 9.41986 19.6614 9.21101Z" fill="#151515"/>
<path d="M4.33861 14.789C6.1884 16.8485 8.99702 18.4198 12.7351 17.8996C15.9593 17.451 17.7455 15.7266 19.0813 13.7553L19.9792 16.9756C20.0536 17.2422 20.3384 17.4004 20.6153 17.3288C20.8923 17.2572 21.0565 16.9829 20.9821 16.7162L19.7702 12.3703C19.6959 12.1036 19.4111 11.9455 19.1341 12.0171L14.6213 13.1841C14.3443 13.2558 14.1801 13.53 14.2545 13.7967C14.3289 14.0634 14.6136 14.2215 14.8906 14.1499L18.1436 13.3087C16.9069 15.1041 15.3473 16.5258 12.5866 16.91C9.27618 17.3706 6.79843 15.9991 5.12399 14.1348C4.9364 13.926 4.60853 13.9031 4.39165 14.0838C4.17477 14.2644 4.15102 14.5801 4.33861 14.789Z" fill="#151515"/>
</g>
<defs>
<clipPath id="clip0_664_27175">
<rect width="24" height="24" fill="white"/>
</clipPath>
</defs>
</svg>
