<svg width="24" height="24" viewBox="0 0 24 24" fill="none" xmlns="http://www.w3.org/2000/svg">
<path fill-rule="evenodd" clip-rule="evenodd" d="M12 8.5C8.42037 8.5 5.90139 9.97396 4.43487 11.1572C3.95725 11.5425 3.84961 12.254 4.19676 12.8495L4.97417 14.1831C5.36254 14.8493 6.19277 15.1125 6.89403 14.7917L8.63641 13.9947V12.4738C8.63641 12.1502 8.79372 11.8294 9.08651 11.6428C9.61237 11.3075 10.5032 10.8684 12 10.8684C13.4969 10.8684 14.3877 11.3075 14.9136 11.6428C15.2064 11.8294 15.3637 12.1502 15.3637 12.4738V13.9947L17.1061 14.7917C17.8073 15.1125 18.6375 14.8493 19.0259 14.1831L19.8548 12.7613C20.184 12.1965 20.0941 11.5479 19.6649 11.1925C18.2355 10.0087 15.6217 8.5 12 8.5ZM3.80695 10.3789C5.39311 9.09916 8.12689 7.5 12 7.5C15.9109 7.5 18.7427 9.13041 20.3027 10.4223C21.1806 11.1494 21.2442 12.3634 20.7187 13.2649L19.8898 14.6867C19.2426 15.7971 17.8588 16.2357 16.6901 15.7011L14.9477 14.9041C14.5919 14.7413 14.3637 14.386 14.3637 13.9947V12.4782C13.9657 12.2263 13.2602 11.8684 12 11.8684C10.7399 11.8684 10.0344 12.2263 9.63641 12.4782V13.9947C9.63641 14.386 9.40821 14.7413 9.05239 14.9041L7.31001 15.7011C6.14125 16.2357 4.75753 15.7971 4.11025 14.6867L3.33283 13.3531C2.77584 12.3977 2.88737 11.1208 3.80695 10.3789Z" fill="#151515"/>
</svg>
