<svg width="24" height="24" viewBox="0 0 24 24" fill="none" xmlns="http://www.w3.org/2000/svg">
<g clip-path="url(#clip0_193_11733)">
<path fill-rule="evenodd" clip-rule="evenodd" d="M16.913 15.5C16.4271 18.6235 13.9647 21 11 21C7.68629 21 5 18.0309 5 14.3684C5 11.4382 8.84044 5.91999 10.3763 3.83035C10.7601 3.30809 11 3 11 3C11 3 11.2399 3.30809 11.6237 3.83035C13.1596 5.91999 17 11.4382 17 14.3684C17 14.4124 16.9996 14.4562 16.9988 14.5H19C19.2761 14.5 19.5 14.7239 19.5 15C19.5 15.2761 19.2761 15.5 19 15.5H16.913ZM15.9003 15.5C15.4285 18.1288 13.3452 20 11 20C8.33039 20 6 17.5752 6 14.3684C6 13.6765 6.29776 12.671 6.84786 11.4608C7.38452 10.2802 8.10882 9.01571 8.84643 7.84327C9.58196 6.67413 10.3192 5.61458 10.8735 4.84637C10.9168 4.78628 10.959 4.72801 11 4.67164C11.041 4.72801 11.0832 4.78628 11.1265 4.84637C11.6808 5.61458 12.418 6.67413 13.1536 7.84327C13.8912 9.01571 14.6155 10.2802 15.1521 11.4608C15.7022 12.671 16 13.6765 16 14.3684C16 14.4124 15.9996 14.4563 15.9987 14.5H14C13.7848 14.5 13.5937 14.6377 13.5257 14.8419L13.1954 15.8326L12.495 10.9293C12.4612 10.6926 12.2645 10.513 12.0258 10.5007C11.787 10.4884 11.5729 10.6468 11.5149 10.8787L10.6096 14.5H8C7.72386 14.5 7.5 14.7239 7.5 15C7.5 15.2761 7.72386 15.5 8 15.5H11C11.2294 15.5 11.4294 15.3439 11.4851 15.1213L11.866 13.5976L12.505 18.0707C12.5378 18.3003 12.7241 18.4772 12.9551 18.498C13.186 18.5188 13.401 18.3781 13.4743 18.1581L14.3604 15.5H15.9003Z" fill="#151515"/>
</g>
<defs>
<clipPath id="clip0_193_11733">
<rect width="24" height="24" fill="white"/>
</clipPath>
</defs>
</svg>
