<svg width="24" height="24" viewBox="0 0 24 24" fill="none" xmlns="http://www.w3.org/2000/svg">
<g clip-path="url(#clip0_712_34396)">
<path fill-rule="evenodd" clip-rule="evenodd" d="M18.5 5H14C13.7239 5 13.5 5.22386 13.5 5.5C13.5 5.77614 13.7239 6 14 6H17.2929L14.0195 9.27337C13.0658 8.47831 11.8387 8 10.5 8C7.46243 8 5 10.4624 5 13.5C5 16.5376 7.46243 19 10.5 19C13.5376 19 16 16.5376 16 13.5C16 12.1613 15.5217 10.9342 14.7266 9.98047L18 6.70711V10C18 10.2761 18.2239 10.5 18.5 10.5C18.7761 10.5 19 10.2761 19 10V5.5C19 5.22386 18.7761 5 18.5 5ZM15 13.5C15 15.9853 12.9853 18 10.5 18C8.01472 18 6 15.9853 6 13.5C6 11.0147 8.01472 9 10.5 9C12.9853 9 15 11.0147 15 13.5Z" fill="#151515"/>
</g>
<defs>
<clipPath id="clip0_712_34396">
<rect width="24" height="24" fill="white"/>
</clipPath>
</defs>
</svg>
