<svg width="24" height="24" viewBox="0 0 24 24" fill="none" xmlns="http://www.w3.org/2000/svg">
<path fill-rule="evenodd" clip-rule="evenodd" d="M17 7H7C6.44772 7 6 7.44772 6 8V13.3173C6 13.6944 6.30565 14 6.68269 14C7.31699 14 7.87444 14.4205 8.0487 15.0304L8.45074 16.4375L10.0911 14.5238L10.8503 15.1746L8.605 17.7942C8.34572 18.0967 7.85406 17.9892 7.74461 17.6061L7.08717 15.3051C7.03557 15.1245 6.87051 15 6.68269 15C5.75336 15 5 14.2466 5 13.3173V8C5 6.89543 5.89543 6 7 6H17C18.1046 6 19 6.89543 19 8V13C19 14.1046 18.1046 15 17 15H11.23C11.084 15 10.9453 15.0638 10.8503 15.1746L10.0911 14.5238C10.3761 14.1913 10.7921 14 11.23 14H17C17.5523 14 18 13.5523 18 13V8C18 7.44772 17.5523 7 17 7Z" fill="#151515"/>
</svg>
