<svg width="24" height="24" viewBox="0 0 24 24" fill="none" xmlns="http://www.w3.org/2000/svg">
<g clip-path="url(#clip0_198_12566)">
<path fill-rule="evenodd" clip-rule="evenodd" d="M8.1591 7.32843L11.6159 4.14645C11.828 3.95118 12.172 3.95118 12.3841 4.14645L15.8409 7.32843C16.053 7.52369 16.053 7.84027 15.8409 8.03553C15.6288 8.2308 15.2849 8.2308 15.0727 8.03553L12.5432 5.70711V15.5C12.5432 15.7761 12.3 16 12 16C11.7 16 11.4568 15.7761 11.4568 15.5L11.4568 5.70711L8.92728 8.03553C8.71515 8.2308 8.37122 8.2308 8.1591 8.03553C7.94697 7.84027 7.94697 7.52369 8.1591 7.32843Z" fill="#151515"/>
<path fill-rule="evenodd" clip-rule="evenodd" d="M5 10.5C5.27614 10.5 5.5 10.7239 5.5 11V18C5.5 18.8284 6.17157 19.5 7 19.5H17C17.8284 19.5 18.5 18.8284 18.5 18V11C18.5 10.7239 18.7239 10.5 19 10.5C19.2761 10.5 19.5 10.7239 19.5 11V18C19.5 19.3807 18.3807 20.5 17 20.5H7C5.61929 20.5 4.5 19.3807 4.5 18V11C4.5 10.7239 4.72386 10.5 5 10.5Z" fill="#151515"/>
</g>
<defs>
<clipPath id="clip0_198_12566">
<rect width="24" height="24" fill="white"/>
</clipPath>
</defs>
</svg>
