<svg width="24" height="24" viewBox="0 0 24 24" fill="none" xmlns="http://www.w3.org/2000/svg">
<path fill-rule="evenodd" clip-rule="evenodd" d="M12.0001 5.93333C11.3673 5.93333 10.8142 6.27656 10.5176 6.78923C10.3885 7.01232 10.1031 7.08856 9.87998 6.95951C9.65689 6.83045 9.58065 6.54498 9.7097 6.32188C10.1662 5.53268 11.0207 5 12.0001 5C13.4606 5 14.6445 6.18397 14.6445 7.64444V10.5481C14.6445 10.8059 14.4356 11.0148 14.1778 11.0148C13.9201 11.0148 13.7112 10.8059 13.7112 10.5481V7.64444C13.7112 6.69942 12.9451 5.93333 12.0001 5.93333Z" fill="#151515"/>
<path fill-rule="evenodd" clip-rule="evenodd" d="M16.3556 11.5333C16.6133 11.5333 16.8222 11.7423 16.8222 12C16.8222 12.2733 16.7994 12.5416 16.7556 12.8031C16.713 13.0572 16.4724 13.2288 16.2182 13.1862C15.9641 13.1436 15.7925 12.903 15.8351 12.6488C15.8704 12.4381 15.8889 12.2213 15.8889 12C15.8889 11.7423 16.0978 11.5333 16.3556 11.5333Z" fill="#151515"/>
<path fill-rule="evenodd" clip-rule="evenodd" d="M5.13668 5.13668C5.31893 4.95444 5.61441 4.95444 5.79665 5.13668L18.8633 18.2034C19.0456 18.3856 19.0456 18.6811 18.8633 18.8633C18.6811 19.0456 18.3856 19.0456 18.2034 18.8633L5.13668 5.79665C4.95444 5.61441 4.95444 5.31893 5.13668 5.13668Z" fill="#151515"/>
<path fill-rule="evenodd" clip-rule="evenodd" d="M7.64451 11.5333C7.90224 11.5333 8.11118 11.7423 8.11118 12C8.11118 14.1478 9.85229 15.8889 12.0001 15.8889C12.2214 15.8889 12.4381 15.8704 12.6487 15.8351C12.9029 15.7924 13.1435 15.9639 13.1862 16.218C13.2289 16.4722 13.0574 16.7129 12.8033 16.7555C12.5417 16.7994 12.2734 16.8222 12.0001 16.8222C9.33683 16.8222 7.17784 14.6632 7.17784 12C7.17784 11.7423 7.38678 11.5333 7.64451 11.5333Z" fill="#151515"/>
<path fill-rule="evenodd" clip-rule="evenodd" d="M12.0001 15.8889C12.2578 15.8889 12.4667 16.0978 12.4667 16.3555V18.5333C12.4667 18.791 12.2577 19 12 19C11.7423 19 11.5333 18.791 11.5333 18.5333V16.3555C11.5333 16.0978 11.7423 15.8889 12.0001 15.8889Z" fill="#151515"/>
<path fill-rule="evenodd" clip-rule="evenodd" d="M9.35549 18.5333C9.35549 18.2756 9.56442 18.0667 9.82216 18.0667H14.1777C14.4354 18.0667 14.6444 18.2756 14.6444 18.5333C14.6444 18.7911 14.4354 19 14.1777 19H9.82216C9.56442 19 9.35549 18.7911 9.35549 18.5333Z" fill="#151515"/>
</svg>
