<svg width="24" height="24" viewBox="0 0 24 24" fill="none" xmlns="http://www.w3.org/2000/svg">
<g clip-path="url(#clip0_193_11706)">
<path fill-rule="evenodd" clip-rule="evenodd" d="M8 6C8 4.34315 9.34315 3 11 3C12.6569 3 14 4.34315 14 6V12.9998C15.213 13.9109 16 15.3631 16 17C16 19.7614 13.7614 22 11 22C8.23858 22 6 19.7614 6 17C6 15.3631 6.78702 13.9109 8 12.9998V6ZM9 13.5351V6C9 4.89543 9.89543 4 11 4C12.1046 4 13 4.89543 13 6V13.5351C14.1956 14.2267 15 15.5194 15 17C15 19.2091 13.2091 21 11 21C8.79086 21 7 19.2091 7 17C7 15.5194 7.8044 14.2267 9 13.5351Z" fill="#151515"/>
<path d="M11 8C10.4477 8 10 8.44772 10 9V14.1672C8.80174 14.5815 7.94118 15.7197 7.94118 17.0588C7.94118 18.7482 9.31066 20.1176 11 20.1176C12.6893 20.1176 14.0588 18.7482 14.0588 17.0588C14.0588 15.7197 13.1983 14.5815 12 14.1672V9C12 8.44772 11.5523 8 11 8Z" fill="#151515"/>
<path d="M18 4C18 4.55228 17.5523 5 17 5C16.4477 5 16 4.55228 16 4C16 3.44772 16.4477 3 17 3C17.5523 3 18 3.44772 18 4Z" fill="#151515"/>
</g>
<defs>
<clipPath id="clip0_193_11706">
<rect width="24" height="24" fill="white"/>
</clipPath>
</defs>
</svg>
