<svg width="24" height="24" viewBox="0 0 24 24" fill="none" xmlns="http://www.w3.org/2000/svg">
<path fill-rule="evenodd" clip-rule="evenodd" d="M9.25806 7.64444C9.25806 6.18397 10.4856 5 12 5C13.5144 5 14.7419 6.18397 14.7419 7.64444V12C14.7419 13.4605 13.5144 14.6444 12 14.6444C10.4856 14.6444 9.25806 13.4605 9.25806 12V7.64444ZM12 5.93333C11.0201 5.93333 10.2258 6.69942 10.2258 7.64444V12C10.2258 12.9451 11.0201 13.7111 12 13.7111C12.9799 13.7111 13.7742 12.9451 13.7742 12V7.64444C13.7742 6.69942 12.9799 5.93333 12 5.93333Z" fill="#151515"/>
<path fill-rule="evenodd" clip-rule="evenodd" d="M7.48387 11.5333C7.75111 11.5333 7.96774 11.7423 7.96774 12C7.96774 14.1478 9.77304 15.8889 12 15.8889C14.2269 15.8889 16.0323 14.1478 16.0323 12C16.0323 11.7423 16.2489 11.5333 16.5161 11.5333C16.7834 11.5333 17 11.7423 17 12C17 14.6632 14.7614 16.8222 12 16.8222C9.23857 16.8222 7 14.6632 7 12C7 11.7423 7.21664 11.5333 7.48387 11.5333Z" fill="#151515"/>
<path fill-rule="evenodd" clip-rule="evenodd" d="M12 15.8889C12.2672 15.8889 12.4839 16.0978 12.4839 16.3556V18.5333C12.4839 18.7911 12.2672 19 12 19C11.7328 19 11.5161 18.7911 11.5161 18.5333V16.3556C11.5161 16.0978 11.7328 15.8889 12 15.8889Z" fill="#151515"/>
<path fill-rule="evenodd" clip-rule="evenodd" d="M9.25806 18.5333C9.25806 18.2756 9.4747 18.0667 9.74194 18.0667H14.2581C14.5253 18.0667 14.7419 18.2756 14.7419 18.5333C14.7419 18.7911 14.5253 19 14.2581 19H9.74194C9.4747 19 9.25806 18.7911 9.25806 18.5333Z" fill="#151515"/>
</svg>
