<svg width="24" height="24" viewBox="0 0 24 24" fill="none" xmlns="http://www.w3.org/2000/svg">
<path d="M9.3555 12.3203C9.15011 12.3203 8.98361 12.5047 8.98361 12.7321C8.98361 12.9595 9.15011 13.1439 9.3555 13.1439H13.3224C13.5278 13.1439 13.6943 12.9595 13.6943 12.7321C13.6943 12.5047 13.5278 12.3203 13.3224 12.3203H9.3555Z" fill="#151515"/>
<path d="M9.3555 15.2484C9.15011 15.2484 8.98361 15.4328 8.98361 15.6602C8.98361 15.8876 9.15011 16.0719 9.3555 16.0719H14.6448C14.8502 16.0719 15.0167 15.8876 15.0167 15.6602C15.0167 15.4328 14.8502 15.2484 14.6448 15.2484H9.3555Z" fill="#151515"/>
<path fill-rule="evenodd" clip-rule="evenodd" d="M7 5.41176C7 5.18435 7.1665 5 7.3719 5H13.3223C13.4209 5 13.5155 5.04338 13.5853 5.1206L16.8911 8.78073C16.9608 8.85795 17 8.96269 17 9.07189V18.5882C17 18.8156 16.8335 19 16.6281 19H7.3719C7.1665 19 7 18.8156 7 18.5882V5.41176ZM7.7438 5.82352V18.1765H16.2562V10.2158H13.9834C13.5319 10.2158 13.1115 9.96994 12.8113 9.63764C12.5112 9.30534 12.2892 8.83987 12.2892 8.33994V5.82352H7.7438ZM13.033 5.82352V8.33994C13.033 8.57204 13.1415 8.8386 13.3373 9.05532C13.533 9.27204 13.7738 9.39223 13.9834 9.39223H16.2562V9.24245L13.1683 5.82352H13.033Z" fill="#151515"/>
</svg>
