<svg width="24" height="24" viewBox="0 0 24 24" fill="none" xmlns="http://www.w3.org/2000/svg">
<g clip-path="url(#clip0_712_34409)">
<path fill-rule="evenodd" clip-rule="evenodd" d="M17 10C17 12.5929 15.0263 14.7248 12.4994 14.9754C12.4998 14.9835 12.5 14.9917 12.5 15V16.5H14.25C14.5261 16.5 14.75 16.7239 14.75 17C14.75 17.2761 14.5261 17.5 14.25 17.5H12.5V19.5C12.5 19.7761 12.2761 20 12 20C11.7239 20 11.5 19.7761 11.5 19.5V17.5H9.75C9.47386 17.5 9.25 17.2761 9.25 17C9.25 16.7239 9.47386 16.5 9.75 16.5H11.5V15C11.5 14.9917 11.5002 14.9835 11.5006 14.9754C8.97365 14.7248 7 12.5929 7 10C7 7.23858 9.23858 5 12 5C14.7614 5 17 7.23858 17 10ZM12 14C14.2091 14 16 12.2091 16 10C16 7.79086 14.2091 6 12 6C9.79086 6 8 7.79086 8 10C8 12.2091 9.79086 14 12 14Z" fill="#151515"/>
</g>
<defs>
<clipPath id="clip0_712_34409">
<rect width="24" height="24" fill="white"/>
</clipPath>
</defs>
</svg>
