<svg width="24" height="24" viewBox="0 0 24 24" fill="none" xmlns="http://www.w3.org/2000/svg">
<g clip-path="url(#clip0_193_11744)">
<path d="M10.5271 5.64705L4.31719 4.21448L4.09241 5.18889L10.048 6.56278C10.0166 6.70351 10.0001 6.84982 10.0001 7C10.0001 7.74028 10.4023 8.38663 11.0001 8.73244V18H8.00006C7.44777 18 7.00006 18.4477 7.00006 19V20H17.0001V19C17.0001 18.4477 16.5523 18 16.0001 18H13.0001V8.73244C13.4694 8.46093 13.8182 8.00415 13.9464 7.46211L19.6829 8.78548L19.9077 7.81107L13.9174 6.42916C13.6717 5.60272 12.9063 5 12.0001 5C11.4172 5 10.8927 5.24929 10.5271 5.64705Z" fill="#151515"/>
<path fill-rule="evenodd" clip-rule="evenodd" d="M5.8345 6.23174C5.78223 6.09235 5.64897 6 5.5001 6C5.35122 6 5.21797 6.09235 5.16569 6.23174L3.02284 11.946C3.00597 11.991 2.99876 12.0372 3.00017 12.0824C3.01234 12.8663 4.32213 13.5 5.50009 13.5C6.67746 13.5 7.98652 12.867 7.99998 12.0836C8.00156 12.038 7.99437 11.9914 7.97736 11.946L5.8345 6.23174ZM7.26153 12.0714L5.5001 7.37429L3.73867 12.0714H7.26153Z" fill="#151515"/>
<path fill-rule="evenodd" clip-rule="evenodd" d="M18.5001 9C18.649 9 18.7822 9.09235 18.8345 9.23174L20.9774 14.946C20.9944 14.9914 21.0016 15.038 21 15.0836C20.9865 15.867 19.6775 16.5 18.5001 16.5C17.3221 16.5 16.0123 15.8663 16.0002 15.0824C15.9988 15.0372 16.006 14.991 16.0228 14.946L18.1657 9.23174C18.218 9.09235 18.3512 9 18.5001 9ZM18.5001 10.3743L20.2615 15.0714H16.7387L18.5001 10.3743Z" fill="#151515"/>
</g>
<defs>
<clipPath id="clip0_193_11744">
<rect width="24" height="24" fill="white"/>
</clipPath>
</defs>
</svg>
