<svg width="24" height="24" viewBox="0 0 24 24" fill="none" xmlns="http://www.w3.org/2000/svg">
<g clip-path="url(#clip0_221_10840)">
<path fill-rule="evenodd" clip-rule="evenodd" d="M13.0434 5.16667C14.5989 3.61111 17.121 3.61111 18.6765 5.16667L18.8333 5.32346C20.3889 6.87902 20.3889 9.40109 18.8333 10.9566L10.9566 18.8333C9.40109 20.3889 6.87902 20.3889 5.32346 18.8333L5.16667 18.6765C3.61111 17.121 3.61111 14.5989 5.16667 13.0434L13.0434 5.16667ZM17.7377 6.10554L17.8945 6.26232C18.9315 7.29937 18.9315 8.98074 17.8945 10.0178L13.9562 13.9561L10.0439 10.0438L13.9822 6.10554C15.0193 5.06849 16.7006 5.06849 17.7377 6.10554ZM9.07884 11.0089L6.10554 13.9822C5.0685 15.0193 5.06849 16.7006 6.10553 17.7377L6.26232 17.8945C7.29936 18.9315 8.98074 18.9315 10.0178 17.8945L12.9911 14.9212L9.07884 11.0089Z" fill="#151515"/>
</g>
<defs>
<clipPath id="clip0_221_10840">
<rect width="24" height="24" fill="white"/>
</clipPath>
</defs>
</svg>
