<svg width="24" height="24" viewBox="0 0 24 24" fill="none" xmlns="http://www.w3.org/2000/svg">
<path fill-rule="evenodd" clip-rule="evenodd" d="M4 4.47059C4 4.21069 4.21069 4 4.47059 4H19.5294C19.7893 4 20 4.21069 20 4.47059V19.5294C20 19.7893 19.7893 20 19.5294 20H4.47059C4.21069 20 4 19.7893 4 19.5294V4.47059ZM4.94118 4.94118V19.0588H19.0588V4.94118H4.94118Z" fill="#151515"/>
<path fill-rule="evenodd" clip-rule="evenodd" d="M16.0261 10.2222C16.286 10.2222 16.4967 10.4212 16.4967 10.6667V16C16.4967 16.2455 16.286 16.4445 16.0261 16.4445C15.7662 16.4445 15.5555 16.2455 15.5555 16V10.6667C15.5555 10.4212 15.7662 10.2222 16.0261 10.2222Z" fill="#151515"/>
<path fill-rule="evenodd" clip-rule="evenodd" d="M12 6.66666C12.2599 6.66666 12.4706 6.86564 12.4706 7.1111V16C12.4706 16.2455 12.2599 16.4444 12 16.4444C11.7401 16.4444 11.5294 16.2455 11.5294 16V7.1111C11.5294 6.86564 11.7401 6.66666 12 6.66666Z" fill="#151515"/>
<path fill-rule="evenodd" clip-rule="evenodd" d="M8.02613 12.8889C8.28603 12.8889 8.49672 13.0879 8.49672 13.3333V16C8.49672 16.2455 8.28603 16.4444 8.02613 16.4444C7.76623 16.4444 7.55554 16.2455 7.55554 16V13.3333C7.55554 13.0879 7.76623 12.8889 8.02613 12.8889Z" fill="#151515"/>
</svg>
