<svg width="24" height="24" viewBox="0 0 24 24" fill="none" xmlns="http://www.w3.org/2000/svg">
<g clip-path="url(#clip0_193_11722)">
<path fill-rule="evenodd" clip-rule="evenodd" d="M16.5581 14.4571C14.1744 17.1219 11.1673 19 11.1673 19C11.1673 19 6.19144 15.8924 3.9673 12C1.39593 7.5 4.48158 5 7.05297 5C8.96047 5 10.0115 5.89406 10.5726 6.70602C11.0394 7.38141 11.1673 8 11.1673 8C11.1673 8 11.2952 7.38141 11.762 6.70602C12.3231 5.89406 13.3741 5 15.2816 5C17.853 5 20.9387 7.5 18.3673 12C18.0838 12.496 17.7557 12.9793 17.3989 13.4451L17.5245 14.0557L17.9407 12.8419C18.0107 12.6377 18.2072 12.5 18.4286 12.5H20.4857C20.7697 12.5 21 12.7239 21 13C21 13.2762 20.7697 13.5 20.4857 13.5H18.7992L17.8879 16.1581C17.8142 16.3732 17.6008 16.5131 17.368 16.4991C17.1353 16.485 16.9414 16.3204 16.8957 16.0981L16.5581 14.4571ZM11.1673 9C11.6546 9 12.0746 8.66763 12.1741 8.20457L12.1756 8.1985C12.178 8.18885 12.1829 8.16969 12.1908 8.14238C12.2067 8.08753 12.2343 8.00134 12.2772 7.89435C12.3639 7.67801 12.5072 7.39137 12.7302 7.10868C13.1526 6.57342 13.8936 6 15.2816 6C16.262 6 17.3245 6.48619 17.8834 7.34649C18.4024 8.14546 18.6236 9.49239 17.4682 11.5144C17.3589 11.7055 17.2421 11.8952 17.1187 12.083L16.8757 10.902C16.8326 10.6925 16.6575 10.5328 16.4397 10.5044C16.2219 10.4761 16.0097 10.5854 15.9114 10.7764L15.025 12.5H12.2571C12.0212 12.5 11.8154 12.6562 11.7582 12.8787L11.3664 14.4025L10.7091 9.92931C10.6754 9.69975 10.4837 9.52286 10.2462 9.50204C10.0086 9.48121 9.78753 9.62191 9.71211 9.8419L8.80075 12.5H7.11429C6.83025 12.5 6.6 12.7239 6.6 13C6.6 13.2762 6.83025 13.5 7.11429 13.5H9.17143C9.39279 13.5 9.58932 13.3623 9.65932 13.1581L9.99898 12.1675L10.7195 17.0707C10.7542 17.3074 10.9565 17.487 11.2021 17.4994C11.4477 17.5117 11.6679 17.3532 11.7275 17.1213L12.6587 13.5H15.3429C15.5377 13.5 15.7157 13.393 15.8028 13.2236L16.1611 12.527L16.2987 13.1962C15.3748 14.3314 14.2733 15.3624 13.2653 16.1991C12.5297 16.8098 11.8608 17.3032 11.3771 17.6431C11.3025 17.6955 11.2325 17.7441 11.1673 17.789C11.1021 17.7441 11.0321 17.6955 10.9575 17.6431C10.4738 17.3032 9.80491 16.8098 9.06926 16.1991C7.58155 14.9641 5.89023 13.3061 4.86643 11.5144C3.71105 9.4924 3.93223 8.14546 4.45125 7.34649C5.01011 6.48618 6.07258 6 7.05297 6C8.44099 6 9.18201 6.57343 9.60437 7.10868C9.82744 7.39137 9.97072 7.67802 10.0574 7.89436C10.1003 8.00134 10.1279 8.08754 10.1438 8.14239C10.1518 8.1697 10.1567 8.18886 10.159 8.19851L10.1605 8.20458C10.26 8.66764 10.68 9 11.1673 9Z" fill="#151515"/>
</g>
<defs>
<clipPath id="clip0_193_11722">
<rect width="24" height="24" fill="white"/>
</clipPath>
</defs>
</svg>
