<svg width="24" height="24" viewBox="0 0 24 24" fill="none" xmlns="http://www.w3.org/2000/svg">
<g clip-path="url(#clip0_418_16327)">
<path d="M13 12V7C13 5.89543 12.1046 5 11 5C9.89543 5 9 5.89543 9 7V14.2361C8.38625 13.6868 8 12.8885 8 12V7C8 5.34315 9.34315 4 11 4C12.6569 4 14 5.34315 14 7V12C14 13.3062 13.1652 14.4175 12 14.8293V13.7324C12.5978 13.3866 13 12.7403 13 12Z" fill="#151515"/>
<path d="M10 12C10 10.6938 10.8348 9.58255 12 9.17072V10.2676C11.4022 10.6134 11 11.2597 11 12V17C11 18.1046 11.8954 19 13 19C14.1046 19 15 18.1046 15 17V9.7639C15.6137 10.3132 16 11.1115 16 12V17C16 18.6569 14.6569 20 13 20C11.3431 20 10 18.6569 10 17V12Z" fill="#151515"/>
</g>
<defs>
<clipPath id="clip0_418_16327">
<rect width="24" height="24" fill="white"/>
</clipPath>
</defs>
</svg>
