<svg width="48" height="48" viewBox="0 0 48 48" fill="none" xmlns="http://www.w3.org/2000/svg">
<path d="M24.6738 21.8368C24.6515 23.5085 26.2436 24.4414 27.443 24.996C28.6753 25.5652 29.0892 25.9301 29.0845 26.4389C29.0751 27.2178 28.1015 27.5616 27.1902 27.5749C25.6004 27.5984 24.6762 27.1676 23.9413 26.8418L23.3686 29.385C24.1059 29.7075 25.4711 29.9887 26.8868 30.001C30.2098 30.001 32.384 28.4443 32.3958 26.0305C32.4087 22.9673 27.931 22.7976 27.9616 21.4284C27.9721 21.0133 28.3896 20.5703 29.3044 20.4575C29.7571 20.4006 31.0071 20.3571 32.424 20.9765L32.9802 18.5158C32.2182 18.2525 31.2387 18.0003 30.0193 18.0003C26.8915 18.0003 24.6915 19.5782 24.6738 21.8368ZM38.3245 18.2123C37.7177 18.2123 37.2062 18.5482 36.9781 19.0637L32.2311 29.8202H35.5518L36.2126 28.0872H40.2705L40.6539 29.8202H43.5806L41.0266 18.2123H38.3245ZM38.789 21.3481L39.7473 25.7069H37.1227L38.789 21.3481ZM20.6477 18.2123L18.0302 29.8202H21.1944L23.8108 18.2123H20.6477ZM15.9665 18.2123L12.6729 26.1131L11.3407 19.3952C11.1843 18.6453 10.567 18.2123 9.88143 18.2123H4.49713L4.42188 18.5493C5.52719 18.777 6.78302 19.1441 7.5438 19.5369C8.00945 19.7768 8.14232 19.9866 8.29518 20.5569L10.8186 29.8202H14.1628L19.2895 18.2123H15.9665Z" fill="url(#paint0_linear_3376_42369)"/>
<defs>
<linearGradient id="paint0_linear_3376_42369" x1="1804.71" y1="54.0765" x2="1837.68" y2="-1178.51" gradientUnits="userSpaceOnUse">
<stop stop-color="#222357"/>
<stop offset="1" stop-color="#254AA5"/>
</linearGradient>
</defs>
</svg>
